%TF.GenerationSoftware,KiCad,Pcbnew,8.0.9-8.0.9-0~ubuntu22.04.1*%
%TF.CreationDate,2025-05-12T13:18:15+05:45*%
%TF.ProjectId,minor_hardware_pcb,6d696e6f-725f-4686-9172-64776172655f,rev?*%
%TF.SameCoordinates,Original*%
%TF.FileFunction,Soldermask,Bot*%
%TF.FilePolarity,Negative*%
%FSLAX46Y46*%
G04 Gerber Fmt 4.6, Leading zero omitted, Abs format (unit mm)*
G04 Created by KiCad (PCBNEW 8.0.9-8.0.9-0~ubuntu22.04.1) date 2025-05-12 13:18:15*
%MOMM*%
%LPD*%
G01*
G04 APERTURE LIST*
%ADD10O,1.524000X2.000000*%
%ADD11O,2.500000X1.524000*%
%ADD12O,1.700000X2.200000*%
%ADD13R,1.700000X1.700000*%
%ADD14O,2.200000X1.700000*%
%ADD15C,2.000000*%
%ADD16R,1.600000X1.600000*%
%ADD17C,1.600000*%
%ADD18R,2.540000X2.540000*%
%ADD19C,2.540000*%
%ADD20O,1.600000X1.600000*%
G04 APERTURE END LIST*
D10*
%TO.C,R1*%
X172720000Y-109220000D03*
X172720000Y-99060000D03*
%TD*%
D11*
%TO.C,U1*%
X165279000Y-129286000D03*
X165354000Y-126746000D03*
X165354000Y-124206000D03*
X165354000Y-121666000D03*
X165354000Y-119126000D03*
X165354000Y-116586000D03*
X165354000Y-114046000D03*
X165354000Y-111506000D03*
X165354000Y-108966000D03*
X165354000Y-106426000D03*
X165354000Y-103886000D03*
X165354000Y-101346000D03*
X165354000Y-98806000D03*
X165354000Y-96266000D03*
X165354000Y-93726000D03*
X140029000Y-93726000D03*
X139954000Y-96266000D03*
X139954000Y-98806000D03*
X139954000Y-101346000D03*
X139954000Y-103886000D03*
X139954000Y-106426000D03*
X139954000Y-108966000D03*
X139954000Y-111506000D03*
X139954000Y-114046000D03*
X139954000Y-116586000D03*
X139954000Y-119126000D03*
X139954000Y-121666000D03*
X139954000Y-124206000D03*
X139954000Y-126746000D03*
X139954000Y-129286000D03*
%TD*%
D12*
%TO.C,J4*%
X158745000Y-138430000D03*
X161285000Y-138430000D03*
%TD*%
D13*
%TO.C,J3*%
X122936000Y-121158000D03*
D14*
X122936000Y-118618000D03*
X122936000Y-116078000D03*
X122936000Y-113538000D03*
%TD*%
D12*
%TO.C,J2*%
X177292000Y-136906000D03*
X179832000Y-136906000D03*
%TD*%
D15*
%TO.C,SW1*%
X184042000Y-96826000D03*
X184042000Y-103326000D03*
X179542000Y-96826000D03*
X179542000Y-103326000D03*
%TD*%
D10*
%TO.C,R2*%
X172684000Y-116026000D03*
X172684000Y-126186000D03*
%TD*%
D16*
%TO.C,C1*%
X170688000Y-83566000D03*
D17*
X174188000Y-83566000D03*
%TD*%
D15*
%TO.C,SW2*%
X184114000Y-116384000D03*
X184114000Y-122884000D03*
X179614000Y-116384000D03*
X179614000Y-122884000D03*
%TD*%
D18*
%TO.C,P1*%
X184404000Y-160528000D03*
D19*
X184404000Y-142748000D03*
X143764000Y-160528000D03*
X143764000Y-142748000D03*
%TD*%
D12*
%TO.C,U2*%
X133858000Y-138430000D03*
X131318000Y-138430000D03*
X128778000Y-138430000D03*
X126238000Y-138430000D03*
X123698000Y-138430000D03*
X121158000Y-160350000D03*
X123698000Y-160350000D03*
X126238000Y-160350000D03*
X128778000Y-160350000D03*
X131318000Y-160350000D03*
X133858000Y-160350000D03*
%TD*%
D10*
%TO.C,R3*%
X132334000Y-118872000D03*
D20*
X132334000Y-129032000D03*
%TD*%
D13*
%TO.C,J1*%
X120142000Y-103124000D03*
D12*
X122682000Y-103124000D03*
X125222000Y-103124000D03*
X127762000Y-103124000D03*
%TD*%
D16*
%TO.C,C2*%
X132842000Y-107442000D03*
D12*
X132842000Y-110942000D03*
%TD*%
%TO.C,J5*%
X102860000Y-149803000D03*
X105400000Y-149803000D03*
X107940000Y-149803000D03*
D13*
X110480000Y-149803000D03*
%TD*%
M02*
