M48
; DRILL file {KiCad 8.0.9-8.0.9-0~ubuntu22.04.1} date 2025-05-12T13:18:26+0545
; FORMAT={-:-/ absolute / inch / decimal}
; #@! TF.CreationDate,2025-05-12T13:18:26+05:45
; #@! TF.GenerationSoftware,Kicad,Pcbnew,8.0.9-8.0.9-0~ubuntu22.04.1
; #@! TF.FileFunction,Plated,1,2,PTH
FMAT,2
INCH
; #@! TA.AperFunction,Plated,PTH,ViaDrill
T1C0.0315
; #@! TA.AperFunction,Plated,PTH,ComponentDrill
T2C0.0315
; #@! TA.AperFunction,Plated,PTH,ComponentDrill
T3C0.0394
; #@! TA.AperFunction,Plated,PTH,ComponentDrill
T4C0.0433
%
G90
G05
T1
X4.05Y-5.76
X5.04Y-4.77
X5.05Y-3.94
X5.16Y-3.83
X5.37Y-5.09
X5.73Y-4.29
X5.87Y-5.76
X6.36Y-4.29
T2
X5.21Y-4.68
X5.21Y-5.08
X5.23Y-4.23
X6.72Y-3.29
X6.7986Y-4.568
X6.7986Y-4.968
X6.8Y-3.9
X6.8Y-4.3
X6.8578Y-3.29
T3
X4.0496Y-5.8978
X4.1496Y-5.8978
X4.2496Y-5.8978
X4.3496Y-5.8978
X4.73Y-4.06
X4.77Y-6.313
X4.83Y-4.06
X4.84Y-4.47
X4.84Y-4.57
X4.84Y-4.67
X4.84Y-4.77
X4.87Y-5.45
X4.87Y-6.313
X4.93Y-4.06
X4.97Y-5.45
X4.97Y-6.313
X5.03Y-4.06
X5.07Y-5.45
X5.07Y-6.313
X5.17Y-5.45
X5.17Y-6.313
X5.23Y-4.3678
X5.27Y-5.45
X5.27Y-6.313
X5.51Y-3.79
X5.51Y-3.89
X5.51Y-3.99
X5.51Y-4.09
X5.51Y-4.19
X5.51Y-4.29
X5.51Y-4.39
X5.51Y-4.49
X5.51Y-4.59
X5.51Y-4.69
X5.51Y-4.79
X5.51Y-4.89
X5.51Y-4.99
X5.51Y-5.09
X5.513Y-3.69
X5.66Y-5.62
X5.66Y-6.32
X6.2498Y-5.45
X6.3498Y-5.45
X6.507Y-5.09
X6.51Y-3.69
X6.51Y-3.79
X6.51Y-3.89
X6.51Y-3.99
X6.51Y-4.09
X6.51Y-4.19
X6.51Y-4.29
X6.51Y-4.39
X6.51Y-4.49
X6.51Y-4.59
X6.51Y-4.69
X6.51Y-4.79
X6.51Y-4.89
X6.51Y-4.99
X6.98Y-5.39
X7.08Y-5.39
X7.26Y-5.62
X7.26Y-6.32
T4
X7.0686Y-3.812
X7.0686Y-4.068
X7.0714Y-4.582
X7.0714Y-4.838
X7.2457Y-3.812
X7.2457Y-4.068
X7.2486Y-4.582
X7.2486Y-4.838
M30
