%TF.GenerationSoftware,KiCad,Pcbnew,8.0.9-8.0.9-0~ubuntu22.04.1*%
%TF.CreationDate,2025-05-12T13:18:15+05:45*%
%TF.ProjectId,minor_hardware_pcb,6d696e6f-725f-4686-9172-64776172655f,rev?*%
%TF.SameCoordinates,Original*%
%TF.FileFunction,Legend,Top*%
%TF.FilePolarity,Positive*%
%FSLAX46Y46*%
G04 Gerber Fmt 4.6, Leading zero omitted, Abs format (unit mm)*
G04 Created by KiCad (PCBNEW 8.0.9-8.0.9-0~ubuntu22.04.1) date 2025-05-12 13:18:15*
%MOMM*%
%LPD*%
G01*
G04 APERTURE LIST*
%ADD10C,0.150000*%
%ADD11C,0.100000*%
%ADD12C,0.120000*%
G04 APERTURE END LIST*
D10*
X170804819Y-104306666D02*
X170328628Y-104639999D01*
X170804819Y-104878094D02*
X169804819Y-104878094D01*
X169804819Y-104878094D02*
X169804819Y-104497142D01*
X169804819Y-104497142D02*
X169852438Y-104401904D01*
X169852438Y-104401904D02*
X169900057Y-104354285D01*
X169900057Y-104354285D02*
X169995295Y-104306666D01*
X169995295Y-104306666D02*
X170138152Y-104306666D01*
X170138152Y-104306666D02*
X170233390Y-104354285D01*
X170233390Y-104354285D02*
X170281009Y-104401904D01*
X170281009Y-104401904D02*
X170328628Y-104497142D01*
X170328628Y-104497142D02*
X170328628Y-104878094D01*
X170804819Y-103354285D02*
X170804819Y-103925713D01*
X170804819Y-103639999D02*
X169804819Y-103639999D01*
X169804819Y-103639999D02*
X169947676Y-103735237D01*
X169947676Y-103735237D02*
X170042914Y-103830475D01*
X170042914Y-103830475D02*
X170090533Y-103925713D01*
D11*
X153415904Y-112548580D02*
X153415904Y-111739057D01*
X153415904Y-111739057D02*
X153368285Y-111643819D01*
X153368285Y-111643819D02*
X153320666Y-111596200D01*
X153320666Y-111596200D02*
X153225428Y-111548580D01*
X153225428Y-111548580D02*
X153034952Y-111548580D01*
X153034952Y-111548580D02*
X152939714Y-111596200D01*
X152939714Y-111596200D02*
X152892095Y-111643819D01*
X152892095Y-111643819D02*
X152844476Y-111739057D01*
X152844476Y-111739057D02*
X152844476Y-112548580D01*
X151844476Y-111548580D02*
X152415904Y-111548580D01*
X152130190Y-111548580D02*
X152130190Y-112548580D01*
X152130190Y-112548580D02*
X152225428Y-112405723D01*
X152225428Y-112405723D02*
X152320666Y-112310485D01*
X152320666Y-112310485D02*
X152415904Y-112262866D01*
X161226306Y-96985961D02*
X161321544Y-97033580D01*
X161321544Y-97033580D02*
X161464401Y-97033580D01*
X161464401Y-97033580D02*
X161607258Y-96985961D01*
X161607258Y-96985961D02*
X161702496Y-96890723D01*
X161702496Y-96890723D02*
X161750115Y-96795485D01*
X161750115Y-96795485D02*
X161797734Y-96605009D01*
X161797734Y-96605009D02*
X161797734Y-96462152D01*
X161797734Y-96462152D02*
X161750115Y-96271676D01*
X161750115Y-96271676D02*
X161702496Y-96176438D01*
X161702496Y-96176438D02*
X161607258Y-96081200D01*
X161607258Y-96081200D02*
X161464401Y-96033580D01*
X161464401Y-96033580D02*
X161369163Y-96033580D01*
X161369163Y-96033580D02*
X161226306Y-96081200D01*
X161226306Y-96081200D02*
X161178687Y-96128819D01*
X161178687Y-96128819D02*
X161178687Y-96462152D01*
X161178687Y-96462152D02*
X161369163Y-96462152D01*
X160750115Y-96033580D02*
X160750115Y-97033580D01*
X160750115Y-97033580D02*
X160178687Y-96033580D01*
X160178687Y-96033580D02*
X160178687Y-97033580D01*
X159702496Y-96033580D02*
X159702496Y-97033580D01*
X159702496Y-97033580D02*
X159464401Y-97033580D01*
X159464401Y-97033580D02*
X159321544Y-96985961D01*
X159321544Y-96985961D02*
X159226306Y-96890723D01*
X159226306Y-96890723D02*
X159178687Y-96795485D01*
X159178687Y-96795485D02*
X159131068Y-96605009D01*
X159131068Y-96605009D02*
X159131068Y-96462152D01*
X159131068Y-96462152D02*
X159178687Y-96271676D01*
X159178687Y-96271676D02*
X159226306Y-96176438D01*
X159226306Y-96176438D02*
X159321544Y-96081200D01*
X159321544Y-96081200D02*
X159464401Y-96033580D01*
X159464401Y-96033580D02*
X159702496Y-96033580D01*
X144745353Y-94033580D02*
X144126306Y-94033580D01*
X144126306Y-94033580D02*
X144459639Y-93652628D01*
X144459639Y-93652628D02*
X144316782Y-93652628D01*
X144316782Y-93652628D02*
X144221544Y-93605009D01*
X144221544Y-93605009D02*
X144173925Y-93557390D01*
X144173925Y-93557390D02*
X144126306Y-93462152D01*
X144126306Y-93462152D02*
X144126306Y-93224057D01*
X144126306Y-93224057D02*
X144173925Y-93128819D01*
X144173925Y-93128819D02*
X144221544Y-93081200D01*
X144221544Y-93081200D02*
X144316782Y-93033580D01*
X144316782Y-93033580D02*
X144602496Y-93033580D01*
X144602496Y-93033580D02*
X144697734Y-93081200D01*
X144697734Y-93081200D02*
X144745353Y-93128819D01*
X143840591Y-94033580D02*
X143507258Y-93033580D01*
X143507258Y-93033580D02*
X143173925Y-94033580D01*
X142935829Y-94033580D02*
X142316782Y-94033580D01*
X142316782Y-94033580D02*
X142650115Y-93652628D01*
X142650115Y-93652628D02*
X142507258Y-93652628D01*
X142507258Y-93652628D02*
X142412020Y-93605009D01*
X142412020Y-93605009D02*
X142364401Y-93557390D01*
X142364401Y-93557390D02*
X142316782Y-93462152D01*
X142316782Y-93462152D02*
X142316782Y-93224057D01*
X142316782Y-93224057D02*
X142364401Y-93128819D01*
X142364401Y-93128819D02*
X142412020Y-93081200D01*
X142412020Y-93081200D02*
X142507258Y-93033580D01*
X142507258Y-93033580D02*
X142792972Y-93033580D01*
X142792972Y-93033580D02*
X142888210Y-93081200D01*
X142888210Y-93081200D02*
X142935829Y-93128819D01*
X161026306Y-98733580D02*
X161597734Y-98733580D01*
X161312020Y-98733580D02*
X161312020Y-99733580D01*
X161312020Y-99733580D02*
X161407258Y-99590723D01*
X161407258Y-99590723D02*
X161502496Y-99495485D01*
X161502496Y-99495485D02*
X161597734Y-99447866D01*
X160692972Y-99733580D02*
X160073925Y-99733580D01*
X160073925Y-99733580D02*
X160407258Y-99352628D01*
X160407258Y-99352628D02*
X160264401Y-99352628D01*
X160264401Y-99352628D02*
X160169163Y-99305009D01*
X160169163Y-99305009D02*
X160121544Y-99257390D01*
X160121544Y-99257390D02*
X160073925Y-99162152D01*
X160073925Y-99162152D02*
X160073925Y-98924057D01*
X160073925Y-98924057D02*
X160121544Y-98828819D01*
X160121544Y-98828819D02*
X160169163Y-98781200D01*
X160169163Y-98781200D02*
X160264401Y-98733580D01*
X160264401Y-98733580D02*
X160550115Y-98733580D01*
X160550115Y-98733580D02*
X160645353Y-98781200D01*
X160645353Y-98781200D02*
X160692972Y-98828819D01*
X143021544Y-104200247D02*
X143021544Y-103533580D01*
X143259639Y-104581200D02*
X143497734Y-103866914D01*
X143497734Y-103866914D02*
X142878687Y-103866914D01*
X162692972Y-127333580D02*
X162359639Y-126333580D01*
X162359639Y-126333580D02*
X162026306Y-127333580D01*
X161692972Y-126333580D02*
X161692972Y-127333580D01*
X161692972Y-127333580D02*
X161312020Y-127333580D01*
X161312020Y-127333580D02*
X161216782Y-127285961D01*
X161216782Y-127285961D02*
X161169163Y-127238342D01*
X161169163Y-127238342D02*
X161121544Y-127143104D01*
X161121544Y-127143104D02*
X161121544Y-127000247D01*
X161121544Y-127000247D02*
X161169163Y-126905009D01*
X161169163Y-126905009D02*
X161216782Y-126857390D01*
X161216782Y-126857390D02*
X161312020Y-126809771D01*
X161312020Y-126809771D02*
X161692972Y-126809771D01*
X143226306Y-113333580D02*
X143797734Y-113333580D01*
X143512020Y-113333580D02*
X143512020Y-114333580D01*
X143512020Y-114333580D02*
X143607258Y-114190723D01*
X143607258Y-114190723D02*
X143702496Y-114095485D01*
X143702496Y-114095485D02*
X143797734Y-114047866D01*
X142654877Y-113905009D02*
X142750115Y-113952628D01*
X142750115Y-113952628D02*
X142797734Y-114000247D01*
X142797734Y-114000247D02*
X142845353Y-114095485D01*
X142845353Y-114095485D02*
X142845353Y-114143104D01*
X142845353Y-114143104D02*
X142797734Y-114238342D01*
X142797734Y-114238342D02*
X142750115Y-114285961D01*
X142750115Y-114285961D02*
X142654877Y-114333580D01*
X142654877Y-114333580D02*
X142464401Y-114333580D01*
X142464401Y-114333580D02*
X142369163Y-114285961D01*
X142369163Y-114285961D02*
X142321544Y-114238342D01*
X142321544Y-114238342D02*
X142273925Y-114143104D01*
X142273925Y-114143104D02*
X142273925Y-114095485D01*
X142273925Y-114095485D02*
X142321544Y-114000247D01*
X142321544Y-114000247D02*
X142369163Y-113952628D01*
X142369163Y-113952628D02*
X142464401Y-113905009D01*
X142464401Y-113905009D02*
X142654877Y-113905009D01*
X142654877Y-113905009D02*
X142750115Y-113857390D01*
X142750115Y-113857390D02*
X142797734Y-113809771D01*
X142797734Y-113809771D02*
X142845353Y-113714533D01*
X142845353Y-113714533D02*
X142845353Y-113524057D01*
X142845353Y-113524057D02*
X142797734Y-113428819D01*
X142797734Y-113428819D02*
X142750115Y-113381200D01*
X142750115Y-113381200D02*
X142654877Y-113333580D01*
X142654877Y-113333580D02*
X142464401Y-113333580D01*
X142464401Y-113333580D02*
X142369163Y-113381200D01*
X142369163Y-113381200D02*
X142321544Y-113428819D01*
X142321544Y-113428819D02*
X142273925Y-113524057D01*
X142273925Y-113524057D02*
X142273925Y-113714533D01*
X142273925Y-113714533D02*
X142321544Y-113809771D01*
X142321544Y-113809771D02*
X142369163Y-113857390D01*
X142369163Y-113857390D02*
X142464401Y-113905009D01*
X162650115Y-120933580D02*
X162650115Y-121933580D01*
X161983449Y-121933580D02*
X161792973Y-121933580D01*
X161792973Y-121933580D02*
X161697735Y-121885961D01*
X161697735Y-121885961D02*
X161602497Y-121790723D01*
X161602497Y-121790723D02*
X161554878Y-121600247D01*
X161554878Y-121600247D02*
X161554878Y-121266914D01*
X161554878Y-121266914D02*
X161602497Y-121076438D01*
X161602497Y-121076438D02*
X161697735Y-120981200D01*
X161697735Y-120981200D02*
X161792973Y-120933580D01*
X161792973Y-120933580D02*
X161983449Y-120933580D01*
X161983449Y-120933580D02*
X162078687Y-120981200D01*
X162078687Y-120981200D02*
X162173925Y-121076438D01*
X162173925Y-121076438D02*
X162221544Y-121266914D01*
X162221544Y-121266914D02*
X162221544Y-121600247D01*
X162221544Y-121600247D02*
X162173925Y-121790723D01*
X162173925Y-121790723D02*
X162078687Y-121885961D01*
X162078687Y-121885961D02*
X161983449Y-121933580D01*
X161221544Y-121933580D02*
X160602497Y-121933580D01*
X160602497Y-121933580D02*
X160935830Y-121552628D01*
X160935830Y-121552628D02*
X160792973Y-121552628D01*
X160792973Y-121552628D02*
X160697735Y-121505009D01*
X160697735Y-121505009D02*
X160650116Y-121457390D01*
X160650116Y-121457390D02*
X160602497Y-121362152D01*
X160602497Y-121362152D02*
X160602497Y-121124057D01*
X160602497Y-121124057D02*
X160650116Y-121028819D01*
X160650116Y-121028819D02*
X160697735Y-120981200D01*
X160697735Y-120981200D02*
X160792973Y-120933580D01*
X160792973Y-120933580D02*
X161078687Y-120933580D01*
X161078687Y-120933580D02*
X161173925Y-120981200D01*
X161173925Y-120981200D02*
X161221544Y-121028819D01*
X159745354Y-121600247D02*
X159745354Y-120933580D01*
X159983449Y-121981200D02*
X160221544Y-121266914D01*
X160221544Y-121266914D02*
X159602497Y-121266914D01*
X143797734Y-126838342D02*
X143750115Y-126885961D01*
X143750115Y-126885961D02*
X143654877Y-126933580D01*
X143654877Y-126933580D02*
X143416782Y-126933580D01*
X143416782Y-126933580D02*
X143321544Y-126885961D01*
X143321544Y-126885961D02*
X143273925Y-126838342D01*
X143273925Y-126838342D02*
X143226306Y-126743104D01*
X143226306Y-126743104D02*
X143226306Y-126647866D01*
X143226306Y-126647866D02*
X143273925Y-126505009D01*
X143273925Y-126505009D02*
X143845353Y-125933580D01*
X143845353Y-125933580D02*
X143226306Y-125933580D01*
X142845353Y-126838342D02*
X142797734Y-126885961D01*
X142797734Y-126885961D02*
X142702496Y-126933580D01*
X142702496Y-126933580D02*
X142464401Y-126933580D01*
X142464401Y-126933580D02*
X142369163Y-126885961D01*
X142369163Y-126885961D02*
X142321544Y-126838342D01*
X142321544Y-126838342D02*
X142273925Y-126743104D01*
X142273925Y-126743104D02*
X142273925Y-126647866D01*
X142273925Y-126647866D02*
X142321544Y-126505009D01*
X142321544Y-126505009D02*
X142892972Y-125933580D01*
X142892972Y-125933580D02*
X142273925Y-125933580D01*
X161692972Y-94333580D02*
X161359639Y-93333580D01*
X161359639Y-93333580D02*
X161026306Y-94333580D01*
X160692972Y-93333580D02*
X160692972Y-94333580D01*
X160216782Y-93333580D02*
X160216782Y-94333580D01*
X160216782Y-94333580D02*
X159645354Y-93333580D01*
X159645354Y-93333580D02*
X159645354Y-94333580D01*
X161445353Y-119533580D02*
X160826306Y-119533580D01*
X160826306Y-119533580D02*
X161159639Y-119152628D01*
X161159639Y-119152628D02*
X161016782Y-119152628D01*
X161016782Y-119152628D02*
X160921544Y-119105009D01*
X160921544Y-119105009D02*
X160873925Y-119057390D01*
X160873925Y-119057390D02*
X160826306Y-118962152D01*
X160826306Y-118962152D02*
X160826306Y-118724057D01*
X160826306Y-118724057D02*
X160873925Y-118628819D01*
X160873925Y-118628819D02*
X160921544Y-118581200D01*
X160921544Y-118581200D02*
X161016782Y-118533580D01*
X161016782Y-118533580D02*
X161302496Y-118533580D01*
X161302496Y-118533580D02*
X161397734Y-118581200D01*
X161397734Y-118581200D02*
X161445353Y-118628819D01*
X159921544Y-119533580D02*
X160397734Y-119533580D01*
X160397734Y-119533580D02*
X160445353Y-119057390D01*
X160445353Y-119057390D02*
X160397734Y-119105009D01*
X160397734Y-119105009D02*
X160302496Y-119152628D01*
X160302496Y-119152628D02*
X160064401Y-119152628D01*
X160064401Y-119152628D02*
X159969163Y-119105009D01*
X159969163Y-119105009D02*
X159921544Y-119057390D01*
X159921544Y-119057390D02*
X159873925Y-118962152D01*
X159873925Y-118962152D02*
X159873925Y-118724057D01*
X159873925Y-118724057D02*
X159921544Y-118628819D01*
X159921544Y-118628819D02*
X159969163Y-118581200D01*
X159969163Y-118581200D02*
X160064401Y-118533580D01*
X160064401Y-118533580D02*
X160302496Y-118533580D01*
X160302496Y-118533580D02*
X160397734Y-118581200D01*
X160397734Y-118581200D02*
X160445353Y-118628819D01*
X143278687Y-121033580D02*
X143612020Y-121509771D01*
X143850115Y-121033580D02*
X143850115Y-122033580D01*
X143850115Y-122033580D02*
X143469163Y-122033580D01*
X143469163Y-122033580D02*
X143373925Y-121985961D01*
X143373925Y-121985961D02*
X143326306Y-121938342D01*
X143326306Y-121938342D02*
X143278687Y-121843104D01*
X143278687Y-121843104D02*
X143278687Y-121700247D01*
X143278687Y-121700247D02*
X143326306Y-121605009D01*
X143326306Y-121605009D02*
X143373925Y-121557390D01*
X143373925Y-121557390D02*
X143469163Y-121509771D01*
X143469163Y-121509771D02*
X143850115Y-121509771D01*
X142945353Y-122033580D02*
X142278687Y-121033580D01*
X142278687Y-122033580D02*
X142945353Y-121033580D01*
X143297734Y-102138342D02*
X143250115Y-102185961D01*
X143250115Y-102185961D02*
X143154877Y-102233580D01*
X143154877Y-102233580D02*
X142916782Y-102233580D01*
X142916782Y-102233580D02*
X142821544Y-102185961D01*
X142821544Y-102185961D02*
X142773925Y-102138342D01*
X142773925Y-102138342D02*
X142726306Y-102043104D01*
X142726306Y-102043104D02*
X142726306Y-101947866D01*
X142726306Y-101947866D02*
X142773925Y-101805009D01*
X142773925Y-101805009D02*
X143345353Y-101233580D01*
X143345353Y-101233580D02*
X142726306Y-101233580D01*
X161445353Y-117033580D02*
X160826306Y-117033580D01*
X160826306Y-117033580D02*
X161159639Y-116652628D01*
X161159639Y-116652628D02*
X161016782Y-116652628D01*
X161016782Y-116652628D02*
X160921544Y-116605009D01*
X160921544Y-116605009D02*
X160873925Y-116557390D01*
X160873925Y-116557390D02*
X160826306Y-116462152D01*
X160826306Y-116462152D02*
X160826306Y-116224057D01*
X160826306Y-116224057D02*
X160873925Y-116128819D01*
X160873925Y-116128819D02*
X160921544Y-116081200D01*
X160921544Y-116081200D02*
X161016782Y-116033580D01*
X161016782Y-116033580D02*
X161302496Y-116033580D01*
X161302496Y-116033580D02*
X161397734Y-116081200D01*
X161397734Y-116081200D02*
X161445353Y-116128819D01*
X160445353Y-116938342D02*
X160397734Y-116985961D01*
X160397734Y-116985961D02*
X160302496Y-117033580D01*
X160302496Y-117033580D02*
X160064401Y-117033580D01*
X160064401Y-117033580D02*
X159969163Y-116985961D01*
X159969163Y-116985961D02*
X159921544Y-116938342D01*
X159921544Y-116938342D02*
X159873925Y-116843104D01*
X159873925Y-116843104D02*
X159873925Y-116747866D01*
X159873925Y-116747866D02*
X159921544Y-116605009D01*
X159921544Y-116605009D02*
X160492972Y-116033580D01*
X160492972Y-116033580D02*
X159873925Y-116033580D01*
X143426306Y-108133580D02*
X143997734Y-108133580D01*
X143712020Y-108133580D02*
X143712020Y-109133580D01*
X143712020Y-109133580D02*
X143807258Y-108990723D01*
X143807258Y-108990723D02*
X143902496Y-108895485D01*
X143902496Y-108895485D02*
X143997734Y-108847866D01*
X143092972Y-109133580D02*
X142426306Y-109133580D01*
X142426306Y-109133580D02*
X142854877Y-108133580D01*
X162592972Y-124533580D02*
X162259639Y-123533580D01*
X162259639Y-123533580D02*
X161926306Y-124533580D01*
X161592972Y-123533580D02*
X161592972Y-124533580D01*
X161592972Y-124533580D02*
X161021544Y-123533580D01*
X161021544Y-123533580D02*
X161021544Y-124533580D01*
X161026306Y-101233580D02*
X161597734Y-101233580D01*
X161312020Y-101233580D02*
X161312020Y-102233580D01*
X161312020Y-102233580D02*
X161407258Y-102090723D01*
X161407258Y-102090723D02*
X161502496Y-101995485D01*
X161502496Y-101995485D02*
X161597734Y-101947866D01*
X160645353Y-102138342D02*
X160597734Y-102185961D01*
X160597734Y-102185961D02*
X160502496Y-102233580D01*
X160502496Y-102233580D02*
X160264401Y-102233580D01*
X160264401Y-102233580D02*
X160169163Y-102185961D01*
X160169163Y-102185961D02*
X160121544Y-102138342D01*
X160121544Y-102138342D02*
X160073925Y-102043104D01*
X160073925Y-102043104D02*
X160073925Y-101947866D01*
X160073925Y-101947866D02*
X160121544Y-101805009D01*
X160121544Y-101805009D02*
X160692972Y-101233580D01*
X160692972Y-101233580D02*
X160073925Y-101233580D01*
X143526306Y-105633580D02*
X144097734Y-105633580D01*
X143812020Y-105633580D02*
X143812020Y-106633580D01*
X143812020Y-106633580D02*
X143907258Y-106490723D01*
X143907258Y-106490723D02*
X144002496Y-106395485D01*
X144002496Y-106395485D02*
X144097734Y-106347866D01*
X142669163Y-106633580D02*
X142859639Y-106633580D01*
X142859639Y-106633580D02*
X142954877Y-106585961D01*
X142954877Y-106585961D02*
X143002496Y-106538342D01*
X143002496Y-106538342D02*
X143097734Y-106395485D01*
X143097734Y-106395485D02*
X143145353Y-106205009D01*
X143145353Y-106205009D02*
X143145353Y-105824057D01*
X143145353Y-105824057D02*
X143097734Y-105728819D01*
X143097734Y-105728819D02*
X143050115Y-105681200D01*
X143050115Y-105681200D02*
X142954877Y-105633580D01*
X142954877Y-105633580D02*
X142764401Y-105633580D01*
X142764401Y-105633580D02*
X142669163Y-105681200D01*
X142669163Y-105681200D02*
X142621544Y-105728819D01*
X142621544Y-105728819D02*
X142573925Y-105824057D01*
X142573925Y-105824057D02*
X142573925Y-106062152D01*
X142573925Y-106062152D02*
X142621544Y-106157390D01*
X142621544Y-106157390D02*
X142669163Y-106205009D01*
X142669163Y-106205009D02*
X142764401Y-106252628D01*
X142764401Y-106252628D02*
X142954877Y-106252628D01*
X142954877Y-106252628D02*
X143050115Y-106205009D01*
X143050115Y-106205009D02*
X143097734Y-106157390D01*
X143097734Y-106157390D02*
X143145353Y-106062152D01*
X143226306Y-115933580D02*
X143797734Y-115933580D01*
X143512020Y-115933580D02*
X143512020Y-116933580D01*
X143512020Y-116933580D02*
X143607258Y-116790723D01*
X143607258Y-116790723D02*
X143702496Y-116695485D01*
X143702496Y-116695485D02*
X143797734Y-116647866D01*
X142750115Y-115933580D02*
X142559639Y-115933580D01*
X142559639Y-115933580D02*
X142464401Y-115981200D01*
X142464401Y-115981200D02*
X142416782Y-116028819D01*
X142416782Y-116028819D02*
X142321544Y-116171676D01*
X142321544Y-116171676D02*
X142273925Y-116362152D01*
X142273925Y-116362152D02*
X142273925Y-116743104D01*
X142273925Y-116743104D02*
X142321544Y-116838342D01*
X142321544Y-116838342D02*
X142369163Y-116885961D01*
X142369163Y-116885961D02*
X142464401Y-116933580D01*
X142464401Y-116933580D02*
X142654877Y-116933580D01*
X142654877Y-116933580D02*
X142750115Y-116885961D01*
X142750115Y-116885961D02*
X142797734Y-116838342D01*
X142797734Y-116838342D02*
X142845353Y-116743104D01*
X142845353Y-116743104D02*
X142845353Y-116505009D01*
X142845353Y-116505009D02*
X142797734Y-116409771D01*
X142797734Y-116409771D02*
X142750115Y-116362152D01*
X142750115Y-116362152D02*
X142654877Y-116314533D01*
X142654877Y-116314533D02*
X142464401Y-116314533D01*
X142464401Y-116314533D02*
X142369163Y-116362152D01*
X142369163Y-116362152D02*
X142321544Y-116409771D01*
X142321544Y-116409771D02*
X142273925Y-116505009D01*
X161326306Y-103733580D02*
X161897734Y-103733580D01*
X161612020Y-103733580D02*
X161612020Y-104733580D01*
X161612020Y-104733580D02*
X161707258Y-104590723D01*
X161707258Y-104590723D02*
X161802496Y-104495485D01*
X161802496Y-104495485D02*
X161897734Y-104447866D01*
X160469163Y-104400247D02*
X160469163Y-103733580D01*
X160707258Y-104781200D02*
X160945353Y-104066914D01*
X160945353Y-104066914D02*
X160326306Y-104066914D01*
X161597734Y-109738342D02*
X161550115Y-109785961D01*
X161550115Y-109785961D02*
X161454877Y-109833580D01*
X161454877Y-109833580D02*
X161216782Y-109833580D01*
X161216782Y-109833580D02*
X161121544Y-109785961D01*
X161121544Y-109785961D02*
X161073925Y-109738342D01*
X161073925Y-109738342D02*
X161026306Y-109643104D01*
X161026306Y-109643104D02*
X161026306Y-109547866D01*
X161026306Y-109547866D02*
X161073925Y-109405009D01*
X161073925Y-109405009D02*
X161645353Y-108833580D01*
X161645353Y-108833580D02*
X161026306Y-108833580D01*
X160169163Y-109833580D02*
X160359639Y-109833580D01*
X160359639Y-109833580D02*
X160454877Y-109785961D01*
X160454877Y-109785961D02*
X160502496Y-109738342D01*
X160502496Y-109738342D02*
X160597734Y-109595485D01*
X160597734Y-109595485D02*
X160645353Y-109405009D01*
X160645353Y-109405009D02*
X160645353Y-109024057D01*
X160645353Y-109024057D02*
X160597734Y-108928819D01*
X160597734Y-108928819D02*
X160550115Y-108881200D01*
X160550115Y-108881200D02*
X160454877Y-108833580D01*
X160454877Y-108833580D02*
X160264401Y-108833580D01*
X160264401Y-108833580D02*
X160169163Y-108881200D01*
X160169163Y-108881200D02*
X160121544Y-108928819D01*
X160121544Y-108928819D02*
X160073925Y-109024057D01*
X160073925Y-109024057D02*
X160073925Y-109262152D01*
X160073925Y-109262152D02*
X160121544Y-109357390D01*
X160121544Y-109357390D02*
X160169163Y-109405009D01*
X160169163Y-109405009D02*
X160264401Y-109452628D01*
X160264401Y-109452628D02*
X160454877Y-109452628D01*
X160454877Y-109452628D02*
X160550115Y-109405009D01*
X160550115Y-109405009D02*
X160597734Y-109357390D01*
X160597734Y-109357390D02*
X160645353Y-109262152D01*
X162750115Y-129257390D02*
X162416782Y-129257390D01*
X162273925Y-128733580D02*
X162750115Y-128733580D01*
X162750115Y-128733580D02*
X162750115Y-129733580D01*
X162750115Y-129733580D02*
X162273925Y-129733580D01*
X161845353Y-128733580D02*
X161845353Y-129733580D01*
X161845353Y-129733580D02*
X161273925Y-128733580D01*
X161273925Y-128733580D02*
X161273925Y-129733580D01*
X161597734Y-111838342D02*
X161550115Y-111885961D01*
X161550115Y-111885961D02*
X161454877Y-111933580D01*
X161454877Y-111933580D02*
X161216782Y-111933580D01*
X161216782Y-111933580D02*
X161121544Y-111885961D01*
X161121544Y-111885961D02*
X161073925Y-111838342D01*
X161073925Y-111838342D02*
X161026306Y-111743104D01*
X161026306Y-111743104D02*
X161026306Y-111647866D01*
X161026306Y-111647866D02*
X161073925Y-111505009D01*
X161073925Y-111505009D02*
X161645353Y-110933580D01*
X161645353Y-110933580D02*
X161026306Y-110933580D01*
X160121544Y-111933580D02*
X160597734Y-111933580D01*
X160597734Y-111933580D02*
X160645353Y-111457390D01*
X160645353Y-111457390D02*
X160597734Y-111505009D01*
X160597734Y-111505009D02*
X160502496Y-111552628D01*
X160502496Y-111552628D02*
X160264401Y-111552628D01*
X160264401Y-111552628D02*
X160169163Y-111505009D01*
X160169163Y-111505009D02*
X160121544Y-111457390D01*
X160121544Y-111457390D02*
X160073925Y-111362152D01*
X160073925Y-111362152D02*
X160073925Y-111124057D01*
X160073925Y-111124057D02*
X160121544Y-111028819D01*
X160121544Y-111028819D02*
X160169163Y-110981200D01*
X160169163Y-110981200D02*
X160264401Y-110933580D01*
X160264401Y-110933580D02*
X160502496Y-110933580D01*
X160502496Y-110933580D02*
X160597734Y-110981200D01*
X160597734Y-110981200D02*
X160645353Y-111028819D01*
X143526306Y-98333580D02*
X144097734Y-98333580D01*
X143812020Y-98333580D02*
X143812020Y-99333580D01*
X143812020Y-99333580D02*
X143907258Y-99190723D01*
X143907258Y-99190723D02*
X144002496Y-99095485D01*
X144002496Y-99095485D02*
X144097734Y-99047866D01*
X142621544Y-99333580D02*
X143097734Y-99333580D01*
X143097734Y-99333580D02*
X143145353Y-98857390D01*
X143145353Y-98857390D02*
X143097734Y-98905009D01*
X143097734Y-98905009D02*
X143002496Y-98952628D01*
X143002496Y-98952628D02*
X142764401Y-98952628D01*
X142764401Y-98952628D02*
X142669163Y-98905009D01*
X142669163Y-98905009D02*
X142621544Y-98857390D01*
X142621544Y-98857390D02*
X142573925Y-98762152D01*
X142573925Y-98762152D02*
X142573925Y-98524057D01*
X142573925Y-98524057D02*
X142621544Y-98428819D01*
X142621544Y-98428819D02*
X142669163Y-98381200D01*
X142669163Y-98381200D02*
X142764401Y-98333580D01*
X142764401Y-98333580D02*
X143002496Y-98333580D01*
X143002496Y-98333580D02*
X143097734Y-98381200D01*
X143097734Y-98381200D02*
X143145353Y-98428819D01*
X161597734Y-107238342D02*
X161550115Y-107285961D01*
X161550115Y-107285961D02*
X161454877Y-107333580D01*
X161454877Y-107333580D02*
X161216782Y-107333580D01*
X161216782Y-107333580D02*
X161121544Y-107285961D01*
X161121544Y-107285961D02*
X161073925Y-107238342D01*
X161073925Y-107238342D02*
X161026306Y-107143104D01*
X161026306Y-107143104D02*
X161026306Y-107047866D01*
X161026306Y-107047866D02*
X161073925Y-106905009D01*
X161073925Y-106905009D02*
X161645353Y-106333580D01*
X161645353Y-106333580D02*
X161026306Y-106333580D01*
X160692972Y-107333580D02*
X160026306Y-107333580D01*
X160026306Y-107333580D02*
X160454877Y-106333580D01*
X142373925Y-111733580D02*
X142850115Y-111733580D01*
X142850115Y-111733580D02*
X142897734Y-111257390D01*
X142897734Y-111257390D02*
X142850115Y-111305009D01*
X142850115Y-111305009D02*
X142754877Y-111352628D01*
X142754877Y-111352628D02*
X142516782Y-111352628D01*
X142516782Y-111352628D02*
X142421544Y-111305009D01*
X142421544Y-111305009D02*
X142373925Y-111257390D01*
X142373925Y-111257390D02*
X142326306Y-111162152D01*
X142326306Y-111162152D02*
X142326306Y-110924057D01*
X142326306Y-110924057D02*
X142373925Y-110828819D01*
X142373925Y-110828819D02*
X142421544Y-110781200D01*
X142421544Y-110781200D02*
X142516782Y-110733580D01*
X142516782Y-110733580D02*
X142754877Y-110733580D01*
X142754877Y-110733580D02*
X142850115Y-110781200D01*
X142850115Y-110781200D02*
X142897734Y-110828819D01*
X144326306Y-96485961D02*
X144421544Y-96533580D01*
X144421544Y-96533580D02*
X144564401Y-96533580D01*
X144564401Y-96533580D02*
X144707258Y-96485961D01*
X144707258Y-96485961D02*
X144802496Y-96390723D01*
X144802496Y-96390723D02*
X144850115Y-96295485D01*
X144850115Y-96295485D02*
X144897734Y-96105009D01*
X144897734Y-96105009D02*
X144897734Y-95962152D01*
X144897734Y-95962152D02*
X144850115Y-95771676D01*
X144850115Y-95771676D02*
X144802496Y-95676438D01*
X144802496Y-95676438D02*
X144707258Y-95581200D01*
X144707258Y-95581200D02*
X144564401Y-95533580D01*
X144564401Y-95533580D02*
X144469163Y-95533580D01*
X144469163Y-95533580D02*
X144326306Y-95581200D01*
X144326306Y-95581200D02*
X144278687Y-95628819D01*
X144278687Y-95628819D02*
X144278687Y-95962152D01*
X144278687Y-95962152D02*
X144469163Y-95962152D01*
X143850115Y-95533580D02*
X143850115Y-96533580D01*
X143850115Y-96533580D02*
X143278687Y-95533580D01*
X143278687Y-95533580D02*
X143278687Y-96533580D01*
X142802496Y-95533580D02*
X142802496Y-96533580D01*
X142802496Y-96533580D02*
X142564401Y-96533580D01*
X142564401Y-96533580D02*
X142421544Y-96485961D01*
X142421544Y-96485961D02*
X142326306Y-96390723D01*
X142326306Y-96390723D02*
X142278687Y-96295485D01*
X142278687Y-96295485D02*
X142231068Y-96105009D01*
X142231068Y-96105009D02*
X142231068Y-95962152D01*
X142231068Y-95962152D02*
X142278687Y-95771676D01*
X142278687Y-95771676D02*
X142326306Y-95676438D01*
X142326306Y-95676438D02*
X142421544Y-95581200D01*
X142421544Y-95581200D02*
X142564401Y-95533580D01*
X142564401Y-95533580D02*
X142802496Y-95533580D01*
X143697734Y-119238342D02*
X143650115Y-119285961D01*
X143650115Y-119285961D02*
X143554877Y-119333580D01*
X143554877Y-119333580D02*
X143316782Y-119333580D01*
X143316782Y-119333580D02*
X143221544Y-119285961D01*
X143221544Y-119285961D02*
X143173925Y-119238342D01*
X143173925Y-119238342D02*
X143126306Y-119143104D01*
X143126306Y-119143104D02*
X143126306Y-119047866D01*
X143126306Y-119047866D02*
X143173925Y-118905009D01*
X143173925Y-118905009D02*
X143745353Y-118333580D01*
X143745353Y-118333580D02*
X143126306Y-118333580D01*
X142173925Y-118333580D02*
X142745353Y-118333580D01*
X142459639Y-118333580D02*
X142459639Y-119333580D01*
X142459639Y-119333580D02*
X142554877Y-119190723D01*
X142554877Y-119190723D02*
X142650115Y-119095485D01*
X142650115Y-119095485D02*
X142745353Y-119047866D01*
X143792972Y-124533580D02*
X143221544Y-124533580D01*
X143507258Y-123533580D02*
X143507258Y-124533580D01*
X142983448Y-124533580D02*
X142316782Y-123533580D01*
X142316782Y-124533580D02*
X142983448Y-123533580D01*
X144097734Y-129338342D02*
X144050115Y-129385961D01*
X144050115Y-129385961D02*
X143954877Y-129433580D01*
X143954877Y-129433580D02*
X143716782Y-129433580D01*
X143716782Y-129433580D02*
X143621544Y-129385961D01*
X143621544Y-129385961D02*
X143573925Y-129338342D01*
X143573925Y-129338342D02*
X143526306Y-129243104D01*
X143526306Y-129243104D02*
X143526306Y-129147866D01*
X143526306Y-129147866D02*
X143573925Y-129005009D01*
X143573925Y-129005009D02*
X144145353Y-128433580D01*
X144145353Y-128433580D02*
X143526306Y-128433580D01*
X143192972Y-129433580D02*
X142573925Y-129433580D01*
X142573925Y-129433580D02*
X142907258Y-129052628D01*
X142907258Y-129052628D02*
X142764401Y-129052628D01*
X142764401Y-129052628D02*
X142669163Y-129005009D01*
X142669163Y-129005009D02*
X142621544Y-128957390D01*
X142621544Y-128957390D02*
X142573925Y-128862152D01*
X142573925Y-128862152D02*
X142573925Y-128624057D01*
X142573925Y-128624057D02*
X142621544Y-128528819D01*
X142621544Y-128528819D02*
X142669163Y-128481200D01*
X142669163Y-128481200D02*
X142764401Y-128433580D01*
X142764401Y-128433580D02*
X143050115Y-128433580D01*
X143050115Y-128433580D02*
X143145353Y-128481200D01*
X143145353Y-128481200D02*
X143192972Y-128528819D01*
X161645353Y-114433580D02*
X161026306Y-114433580D01*
X161026306Y-114433580D02*
X161359639Y-114052628D01*
X161359639Y-114052628D02*
X161216782Y-114052628D01*
X161216782Y-114052628D02*
X161121544Y-114005009D01*
X161121544Y-114005009D02*
X161073925Y-113957390D01*
X161073925Y-113957390D02*
X161026306Y-113862152D01*
X161026306Y-113862152D02*
X161026306Y-113624057D01*
X161026306Y-113624057D02*
X161073925Y-113528819D01*
X161073925Y-113528819D02*
X161121544Y-113481200D01*
X161121544Y-113481200D02*
X161216782Y-113433580D01*
X161216782Y-113433580D02*
X161502496Y-113433580D01*
X161502496Y-113433580D02*
X161597734Y-113481200D01*
X161597734Y-113481200D02*
X161645353Y-113528819D01*
X160692972Y-114433580D02*
X160073925Y-114433580D01*
X160073925Y-114433580D02*
X160407258Y-114052628D01*
X160407258Y-114052628D02*
X160264401Y-114052628D01*
X160264401Y-114052628D02*
X160169163Y-114005009D01*
X160169163Y-114005009D02*
X160121544Y-113957390D01*
X160121544Y-113957390D02*
X160073925Y-113862152D01*
X160073925Y-113862152D02*
X160073925Y-113624057D01*
X160073925Y-113624057D02*
X160121544Y-113528819D01*
X160121544Y-113528819D02*
X160169163Y-113481200D01*
X160169163Y-113481200D02*
X160264401Y-113433580D01*
X160264401Y-113433580D02*
X160550115Y-113433580D01*
X160550115Y-113433580D02*
X160645353Y-113481200D01*
X160645353Y-113481200D02*
X160692972Y-113528819D01*
D10*
X158199819Y-138763333D02*
X158914104Y-138763333D01*
X158914104Y-138763333D02*
X159056961Y-138810952D01*
X159056961Y-138810952D02*
X159152200Y-138906190D01*
X159152200Y-138906190D02*
X159199819Y-139049047D01*
X159199819Y-139049047D02*
X159199819Y-139144285D01*
X158533152Y-137858571D02*
X159199819Y-137858571D01*
X158152200Y-138096666D02*
X158866485Y-138334761D01*
X158866485Y-138334761D02*
X158866485Y-137715714D01*
X122602666Y-123382819D02*
X122602666Y-124097104D01*
X122602666Y-124097104D02*
X122555047Y-124239961D01*
X122555047Y-124239961D02*
X122459809Y-124335200D01*
X122459809Y-124335200D02*
X122316952Y-124382819D01*
X122316952Y-124382819D02*
X122221714Y-124382819D01*
X122983619Y-123382819D02*
X123602666Y-123382819D01*
X123602666Y-123382819D02*
X123269333Y-123763771D01*
X123269333Y-123763771D02*
X123412190Y-123763771D01*
X123412190Y-123763771D02*
X123507428Y-123811390D01*
X123507428Y-123811390D02*
X123555047Y-123859009D01*
X123555047Y-123859009D02*
X123602666Y-123954247D01*
X123602666Y-123954247D02*
X123602666Y-124192342D01*
X123602666Y-124192342D02*
X123555047Y-124287580D01*
X123555047Y-124287580D02*
X123507428Y-124335200D01*
X123507428Y-124335200D02*
X123412190Y-124382819D01*
X123412190Y-124382819D02*
X123126476Y-124382819D01*
X123126476Y-124382819D02*
X123031238Y-124335200D01*
X123031238Y-124335200D02*
X122983619Y-124287580D01*
X174416819Y-137239333D02*
X175131104Y-137239333D01*
X175131104Y-137239333D02*
X175273961Y-137286952D01*
X175273961Y-137286952D02*
X175369200Y-137382190D01*
X175369200Y-137382190D02*
X175416819Y-137525047D01*
X175416819Y-137525047D02*
X175416819Y-137620285D01*
X174512057Y-136810761D02*
X174464438Y-136763142D01*
X174464438Y-136763142D02*
X174416819Y-136667904D01*
X174416819Y-136667904D02*
X174416819Y-136429809D01*
X174416819Y-136429809D02*
X174464438Y-136334571D01*
X174464438Y-136334571D02*
X174512057Y-136286952D01*
X174512057Y-136286952D02*
X174607295Y-136239333D01*
X174607295Y-136239333D02*
X174702533Y-136239333D01*
X174702533Y-136239333D02*
X174845390Y-136286952D01*
X174845390Y-136286952D02*
X175416819Y-136858380D01*
X175416819Y-136858380D02*
X175416819Y-136239333D01*
X186449200Y-101409332D02*
X186496819Y-101266475D01*
X186496819Y-101266475D02*
X186496819Y-101028380D01*
X186496819Y-101028380D02*
X186449200Y-100933142D01*
X186449200Y-100933142D02*
X186401580Y-100885523D01*
X186401580Y-100885523D02*
X186306342Y-100837904D01*
X186306342Y-100837904D02*
X186211104Y-100837904D01*
X186211104Y-100837904D02*
X186115866Y-100885523D01*
X186115866Y-100885523D02*
X186068247Y-100933142D01*
X186068247Y-100933142D02*
X186020628Y-101028380D01*
X186020628Y-101028380D02*
X185973009Y-101218856D01*
X185973009Y-101218856D02*
X185925390Y-101314094D01*
X185925390Y-101314094D02*
X185877771Y-101361713D01*
X185877771Y-101361713D02*
X185782533Y-101409332D01*
X185782533Y-101409332D02*
X185687295Y-101409332D01*
X185687295Y-101409332D02*
X185592057Y-101361713D01*
X185592057Y-101361713D02*
X185544438Y-101314094D01*
X185544438Y-101314094D02*
X185496819Y-101218856D01*
X185496819Y-101218856D02*
X185496819Y-100980761D01*
X185496819Y-100980761D02*
X185544438Y-100837904D01*
X185496819Y-100504570D02*
X186496819Y-100266475D01*
X186496819Y-100266475D02*
X185782533Y-100075999D01*
X185782533Y-100075999D02*
X186496819Y-99885523D01*
X186496819Y-99885523D02*
X185496819Y-99647428D01*
X186496819Y-98742666D02*
X186496819Y-99314094D01*
X186496819Y-99028380D02*
X185496819Y-99028380D01*
X185496819Y-99028380D02*
X185639676Y-99123618D01*
X185639676Y-99123618D02*
X185734914Y-99218856D01*
X185734914Y-99218856D02*
X185782533Y-99314094D01*
X175508819Y-121272666D02*
X175032628Y-121605999D01*
X175508819Y-121844094D02*
X174508819Y-121844094D01*
X174508819Y-121844094D02*
X174508819Y-121463142D01*
X174508819Y-121463142D02*
X174556438Y-121367904D01*
X174556438Y-121367904D02*
X174604057Y-121320285D01*
X174604057Y-121320285D02*
X174699295Y-121272666D01*
X174699295Y-121272666D02*
X174842152Y-121272666D01*
X174842152Y-121272666D02*
X174937390Y-121320285D01*
X174937390Y-121320285D02*
X174985009Y-121367904D01*
X174985009Y-121367904D02*
X175032628Y-121463142D01*
X175032628Y-121463142D02*
X175032628Y-121844094D01*
X174604057Y-120891713D02*
X174556438Y-120844094D01*
X174556438Y-120844094D02*
X174508819Y-120748856D01*
X174508819Y-120748856D02*
X174508819Y-120510761D01*
X174508819Y-120510761D02*
X174556438Y-120415523D01*
X174556438Y-120415523D02*
X174604057Y-120367904D01*
X174604057Y-120367904D02*
X174699295Y-120320285D01*
X174699295Y-120320285D02*
X174794533Y-120320285D01*
X174794533Y-120320285D02*
X174937390Y-120367904D01*
X174937390Y-120367904D02*
X175508819Y-120939332D01*
X175508819Y-120939332D02*
X175508819Y-120320285D01*
X172271333Y-78675580D02*
X172223714Y-78723200D01*
X172223714Y-78723200D02*
X172080857Y-78770819D01*
X172080857Y-78770819D02*
X171985619Y-78770819D01*
X171985619Y-78770819D02*
X171842762Y-78723200D01*
X171842762Y-78723200D02*
X171747524Y-78627961D01*
X171747524Y-78627961D02*
X171699905Y-78532723D01*
X171699905Y-78532723D02*
X171652286Y-78342247D01*
X171652286Y-78342247D02*
X171652286Y-78199390D01*
X171652286Y-78199390D02*
X171699905Y-78008914D01*
X171699905Y-78008914D02*
X171747524Y-77913676D01*
X171747524Y-77913676D02*
X171842762Y-77818438D01*
X171842762Y-77818438D02*
X171985619Y-77770819D01*
X171985619Y-77770819D02*
X172080857Y-77770819D01*
X172080857Y-77770819D02*
X172223714Y-77818438D01*
X172223714Y-77818438D02*
X172271333Y-77866057D01*
X173223714Y-78770819D02*
X172652286Y-78770819D01*
X172938000Y-78770819D02*
X172938000Y-77770819D01*
X172938000Y-77770819D02*
X172842762Y-77913676D01*
X172842762Y-77913676D02*
X172747524Y-78008914D01*
X172747524Y-78008914D02*
X172652286Y-78056533D01*
X186521200Y-120967332D02*
X186568819Y-120824475D01*
X186568819Y-120824475D02*
X186568819Y-120586380D01*
X186568819Y-120586380D02*
X186521200Y-120491142D01*
X186521200Y-120491142D02*
X186473580Y-120443523D01*
X186473580Y-120443523D02*
X186378342Y-120395904D01*
X186378342Y-120395904D02*
X186283104Y-120395904D01*
X186283104Y-120395904D02*
X186187866Y-120443523D01*
X186187866Y-120443523D02*
X186140247Y-120491142D01*
X186140247Y-120491142D02*
X186092628Y-120586380D01*
X186092628Y-120586380D02*
X186045009Y-120776856D01*
X186045009Y-120776856D02*
X185997390Y-120872094D01*
X185997390Y-120872094D02*
X185949771Y-120919713D01*
X185949771Y-120919713D02*
X185854533Y-120967332D01*
X185854533Y-120967332D02*
X185759295Y-120967332D01*
X185759295Y-120967332D02*
X185664057Y-120919713D01*
X185664057Y-120919713D02*
X185616438Y-120872094D01*
X185616438Y-120872094D02*
X185568819Y-120776856D01*
X185568819Y-120776856D02*
X185568819Y-120538761D01*
X185568819Y-120538761D02*
X185616438Y-120395904D01*
X185568819Y-120062570D02*
X186568819Y-119824475D01*
X186568819Y-119824475D02*
X185854533Y-119633999D01*
X185854533Y-119633999D02*
X186568819Y-119443523D01*
X186568819Y-119443523D02*
X185568819Y-119205428D01*
X185664057Y-118872094D02*
X185616438Y-118824475D01*
X185616438Y-118824475D02*
X185568819Y-118729237D01*
X185568819Y-118729237D02*
X185568819Y-118491142D01*
X185568819Y-118491142D02*
X185616438Y-118395904D01*
X185616438Y-118395904D02*
X185664057Y-118348285D01*
X185664057Y-118348285D02*
X185759295Y-118300666D01*
X185759295Y-118300666D02*
X185854533Y-118300666D01*
X185854533Y-118300666D02*
X185997390Y-118348285D01*
X185997390Y-118348285D02*
X186568819Y-118919713D01*
X186568819Y-118919713D02*
X186568819Y-118300666D01*
X162075905Y-164792819D02*
X162075905Y-163792819D01*
X162075905Y-163792819D02*
X162456857Y-163792819D01*
X162456857Y-163792819D02*
X162552095Y-163840438D01*
X162552095Y-163840438D02*
X162599714Y-163888057D01*
X162599714Y-163888057D02*
X162647333Y-163983295D01*
X162647333Y-163983295D02*
X162647333Y-164126152D01*
X162647333Y-164126152D02*
X162599714Y-164221390D01*
X162599714Y-164221390D02*
X162552095Y-164269009D01*
X162552095Y-164269009D02*
X162456857Y-164316628D01*
X162456857Y-164316628D02*
X162075905Y-164316628D01*
X163599714Y-164792819D02*
X163028286Y-164792819D01*
X163314000Y-164792819D02*
X163314000Y-163792819D01*
X163314000Y-163792819D02*
X163218762Y-163935676D01*
X163218762Y-163935676D02*
X163123524Y-164030914D01*
X163123524Y-164030914D02*
X163028286Y-164078533D01*
D11*
X134900580Y-149628095D02*
X134091057Y-149628095D01*
X134091057Y-149628095D02*
X133995819Y-149675714D01*
X133995819Y-149675714D02*
X133948200Y-149723333D01*
X133948200Y-149723333D02*
X133900580Y-149818571D01*
X133900580Y-149818571D02*
X133900580Y-150009047D01*
X133900580Y-150009047D02*
X133948200Y-150104285D01*
X133948200Y-150104285D02*
X133995819Y-150151904D01*
X133995819Y-150151904D02*
X134091057Y-150199523D01*
X134091057Y-150199523D02*
X134900580Y-150199523D01*
X134805342Y-150628095D02*
X134852961Y-150675714D01*
X134852961Y-150675714D02*
X134900580Y-150770952D01*
X134900580Y-150770952D02*
X134900580Y-151009047D01*
X134900580Y-151009047D02*
X134852961Y-151104285D01*
X134852961Y-151104285D02*
X134805342Y-151151904D01*
X134805342Y-151151904D02*
X134710104Y-151199523D01*
X134710104Y-151199523D02*
X134614866Y-151199523D01*
X134614866Y-151199523D02*
X134472009Y-151151904D01*
X134472009Y-151151904D02*
X133900580Y-150580476D01*
X133900580Y-150580476D02*
X133900580Y-151199523D01*
D10*
X135158819Y-124118666D02*
X134682628Y-124451999D01*
X135158819Y-124690094D02*
X134158819Y-124690094D01*
X134158819Y-124690094D02*
X134158819Y-124309142D01*
X134158819Y-124309142D02*
X134206438Y-124213904D01*
X134206438Y-124213904D02*
X134254057Y-124166285D01*
X134254057Y-124166285D02*
X134349295Y-124118666D01*
X134349295Y-124118666D02*
X134492152Y-124118666D01*
X134492152Y-124118666D02*
X134587390Y-124166285D01*
X134587390Y-124166285D02*
X134635009Y-124213904D01*
X134635009Y-124213904D02*
X134682628Y-124309142D01*
X134682628Y-124309142D02*
X134682628Y-124690094D01*
X134158819Y-123785332D02*
X134158819Y-123166285D01*
X134158819Y-123166285D02*
X134539771Y-123499618D01*
X134539771Y-123499618D02*
X134539771Y-123356761D01*
X134539771Y-123356761D02*
X134587390Y-123261523D01*
X134587390Y-123261523D02*
X134635009Y-123213904D01*
X134635009Y-123213904D02*
X134730247Y-123166285D01*
X134730247Y-123166285D02*
X134968342Y-123166285D01*
X134968342Y-123166285D02*
X135063580Y-123213904D01*
X135063580Y-123213904D02*
X135111200Y-123261523D01*
X135111200Y-123261523D02*
X135158819Y-123356761D01*
X135158819Y-123356761D02*
X135158819Y-123642475D01*
X135158819Y-123642475D02*
X135111200Y-123737713D01*
X135111200Y-123737713D02*
X135063580Y-123785332D01*
X116826819Y-103457333D02*
X117541104Y-103457333D01*
X117541104Y-103457333D02*
X117683961Y-103504952D01*
X117683961Y-103504952D02*
X117779200Y-103600190D01*
X117779200Y-103600190D02*
X117826819Y-103743047D01*
X117826819Y-103743047D02*
X117826819Y-103838285D01*
X117826819Y-102457333D02*
X117826819Y-103028761D01*
X117826819Y-102743047D02*
X116826819Y-102743047D01*
X116826819Y-102743047D02*
X116969676Y-102838285D01*
X116969676Y-102838285D02*
X117064914Y-102933523D01*
X117064914Y-102933523D02*
X117112533Y-103028761D01*
X138451580Y-109358666D02*
X138499200Y-109406285D01*
X138499200Y-109406285D02*
X138546819Y-109549142D01*
X138546819Y-109549142D02*
X138546819Y-109644380D01*
X138546819Y-109644380D02*
X138499200Y-109787237D01*
X138499200Y-109787237D02*
X138403961Y-109882475D01*
X138403961Y-109882475D02*
X138308723Y-109930094D01*
X138308723Y-109930094D02*
X138118247Y-109977713D01*
X138118247Y-109977713D02*
X137975390Y-109977713D01*
X137975390Y-109977713D02*
X137784914Y-109930094D01*
X137784914Y-109930094D02*
X137689676Y-109882475D01*
X137689676Y-109882475D02*
X137594438Y-109787237D01*
X137594438Y-109787237D02*
X137546819Y-109644380D01*
X137546819Y-109644380D02*
X137546819Y-109549142D01*
X137546819Y-109549142D02*
X137594438Y-109406285D01*
X137594438Y-109406285D02*
X137642057Y-109358666D01*
X137642057Y-108977713D02*
X137594438Y-108930094D01*
X137594438Y-108930094D02*
X137546819Y-108834856D01*
X137546819Y-108834856D02*
X137546819Y-108596761D01*
X137546819Y-108596761D02*
X137594438Y-108501523D01*
X137594438Y-108501523D02*
X137642057Y-108453904D01*
X137642057Y-108453904D02*
X137737295Y-108406285D01*
X137737295Y-108406285D02*
X137832533Y-108406285D01*
X137832533Y-108406285D02*
X137975390Y-108453904D01*
X137975390Y-108453904D02*
X138546819Y-109025332D01*
X138546819Y-109025332D02*
X138546819Y-108406285D01*
D12*
%TO.C,R1*%
X171350000Y-100870000D02*
X171350000Y-107410000D01*
X171350000Y-107410000D02*
X174090000Y-107410000D01*
X172720000Y-100100000D02*
X172720000Y-100870000D01*
X172720000Y-108180000D02*
X172720000Y-107410000D01*
X174090000Y-100870000D02*
X171350000Y-100870000D01*
X174090000Y-107410000D02*
X174090000Y-100870000D01*
%TO.C,U1*%
D11*
X166844000Y-135386000D02*
X138674000Y-135386000D01*
X138674000Y-84076000D01*
X166844000Y-84076000D01*
X166844000Y-135386000D01*
D12*
%TO.C,J4*%
X157415000Y-139760000D02*
X157415000Y-138430000D01*
X158745000Y-139760000D02*
X157415000Y-139760000D01*
X160015000Y-137100000D02*
X162615000Y-137100000D01*
X160015000Y-139760000D02*
X160015000Y-137100000D01*
X160015000Y-139760000D02*
X162615000Y-139760000D01*
X162615000Y-139760000D02*
X162615000Y-137100000D01*
%TO.C,J3*%
X121606000Y-119888000D02*
X121606000Y-112208000D01*
X121606000Y-122488000D02*
X121606000Y-121158000D01*
X122936000Y-122488000D02*
X121606000Y-122488000D01*
X124266000Y-112208000D02*
X121606000Y-112208000D01*
X124266000Y-119888000D02*
X121606000Y-119888000D01*
X124266000Y-119888000D02*
X124266000Y-112208000D01*
%TO.C,J2*%
X175962000Y-138236000D02*
X175962000Y-136906000D01*
X177292000Y-138236000D02*
X175962000Y-138236000D01*
X178562000Y-135576000D02*
X181162000Y-135576000D01*
X178562000Y-138236000D02*
X178562000Y-135576000D01*
X178562000Y-138236000D02*
X181162000Y-138236000D01*
X181162000Y-138236000D02*
X181162000Y-135576000D01*
%TO.C,SW1*%
X178542000Y-97826000D02*
X178542000Y-102326000D01*
X181042000Y-103576000D02*
X182542000Y-103576000D01*
X182542000Y-96576000D02*
X181042000Y-96576000D01*
X185042000Y-102326000D02*
X185042000Y-97826000D01*
%TO.C,R2*%
X171314000Y-117836000D02*
X171314000Y-124376000D01*
X171314000Y-124376000D02*
X174054000Y-124376000D01*
X172684000Y-117066000D02*
X172684000Y-117836000D01*
X172684000Y-125146000D02*
X172684000Y-124376000D01*
X174054000Y-117836000D02*
X171314000Y-117836000D01*
X174054000Y-124376000D02*
X174054000Y-117836000D01*
%TO.C,C1*%
X168028302Y-81251000D02*
X168828302Y-81251000D01*
X168428302Y-80851000D02*
X168428302Y-81651000D01*
X172438000Y-79486000D02*
X172438000Y-87646000D01*
X172478000Y-79486000D02*
X172478000Y-87646000D01*
X172518000Y-79486000D02*
X172518000Y-87646000D01*
X172558000Y-79487000D02*
X172558000Y-87645000D01*
X172598000Y-79489000D02*
X172598000Y-87643000D01*
X172638000Y-79490000D02*
X172638000Y-87642000D01*
X172678000Y-79492000D02*
X172678000Y-87640000D01*
X172718000Y-79495000D02*
X172718000Y-87637000D01*
X172758000Y-79498000D02*
X172758000Y-87634000D01*
X172798000Y-79501000D02*
X172798000Y-87631000D01*
X172838000Y-79505000D02*
X172838000Y-87627000D01*
X172878000Y-79509000D02*
X172878000Y-87623000D01*
X172918000Y-79514000D02*
X172918000Y-87618000D01*
X172958000Y-79518000D02*
X172958000Y-87614000D01*
X172998000Y-79524000D02*
X172998000Y-87608000D01*
X173038000Y-79529000D02*
X173038000Y-87603000D01*
X173078000Y-79536000D02*
X173078000Y-87596000D01*
X173118000Y-79542000D02*
X173118000Y-87590000D01*
X173159000Y-79549000D02*
X173159000Y-82526000D01*
X173159000Y-84606000D02*
X173159000Y-87583000D01*
X173199000Y-79556000D02*
X173199000Y-82526000D01*
X173199000Y-84606000D02*
X173199000Y-87576000D01*
X173239000Y-79564000D02*
X173239000Y-82526000D01*
X173239000Y-84606000D02*
X173239000Y-87568000D01*
X173279000Y-79572000D02*
X173279000Y-82526000D01*
X173279000Y-84606000D02*
X173279000Y-87560000D01*
X173319000Y-79581000D02*
X173319000Y-82526000D01*
X173319000Y-84606000D02*
X173319000Y-87551000D01*
X173359000Y-79590000D02*
X173359000Y-82526000D01*
X173359000Y-84606000D02*
X173359000Y-87542000D01*
X173399000Y-79599000D02*
X173399000Y-82526000D01*
X173399000Y-84606000D02*
X173399000Y-87533000D01*
X173439000Y-79609000D02*
X173439000Y-82526000D01*
X173439000Y-84606000D02*
X173439000Y-87523000D01*
X173479000Y-79619000D02*
X173479000Y-82526000D01*
X173479000Y-84606000D02*
X173479000Y-87513000D01*
X173519000Y-79630000D02*
X173519000Y-82526000D01*
X173519000Y-84606000D02*
X173519000Y-87502000D01*
X173559000Y-79641000D02*
X173559000Y-82526000D01*
X173559000Y-84606000D02*
X173559000Y-87491000D01*
X173599000Y-79652000D02*
X173599000Y-82526000D01*
X173599000Y-84606000D02*
X173599000Y-87480000D01*
X173639000Y-79664000D02*
X173639000Y-82526000D01*
X173639000Y-84606000D02*
X173639000Y-87468000D01*
X173679000Y-79677000D02*
X173679000Y-82526000D01*
X173679000Y-84606000D02*
X173679000Y-87455000D01*
X173719000Y-79689000D02*
X173719000Y-82526000D01*
X173719000Y-84606000D02*
X173719000Y-87443000D01*
X173759000Y-79703000D02*
X173759000Y-82526000D01*
X173759000Y-84606000D02*
X173759000Y-87429000D01*
X173799000Y-79716000D02*
X173799000Y-82526000D01*
X173799000Y-84606000D02*
X173799000Y-87416000D01*
X173839000Y-79731000D02*
X173839000Y-82526000D01*
X173839000Y-84606000D02*
X173839000Y-87401000D01*
X173879000Y-79745000D02*
X173879000Y-82526000D01*
X173879000Y-84606000D02*
X173879000Y-87387000D01*
X173919000Y-79761000D02*
X173919000Y-82526000D01*
X173919000Y-84606000D02*
X173919000Y-87371000D01*
X173959000Y-79776000D02*
X173959000Y-82526000D01*
X173959000Y-84606000D02*
X173959000Y-87356000D01*
X173999000Y-79792000D02*
X173999000Y-82526000D01*
X173999000Y-84606000D02*
X173999000Y-87340000D01*
X174039000Y-79809000D02*
X174039000Y-82526000D01*
X174039000Y-84606000D02*
X174039000Y-87323000D01*
X174079000Y-79826000D02*
X174079000Y-82526000D01*
X174079000Y-84606000D02*
X174079000Y-87306000D01*
X174119000Y-79844000D02*
X174119000Y-82526000D01*
X174119000Y-84606000D02*
X174119000Y-87288000D01*
X174159000Y-79862000D02*
X174159000Y-82526000D01*
X174159000Y-84606000D02*
X174159000Y-87270000D01*
X174199000Y-79880000D02*
X174199000Y-82526000D01*
X174199000Y-84606000D02*
X174199000Y-87252000D01*
X174239000Y-79900000D02*
X174239000Y-82526000D01*
X174239000Y-84606000D02*
X174239000Y-87232000D01*
X174279000Y-79919000D02*
X174279000Y-82526000D01*
X174279000Y-84606000D02*
X174279000Y-87213000D01*
X174319000Y-79939000D02*
X174319000Y-82526000D01*
X174319000Y-84606000D02*
X174319000Y-87193000D01*
X174359000Y-79960000D02*
X174359000Y-82526000D01*
X174359000Y-84606000D02*
X174359000Y-87172000D01*
X174399000Y-79982000D02*
X174399000Y-82526000D01*
X174399000Y-84606000D02*
X174399000Y-87150000D01*
X174439000Y-80004000D02*
X174439000Y-82526000D01*
X174439000Y-84606000D02*
X174439000Y-87128000D01*
X174479000Y-80026000D02*
X174479000Y-82526000D01*
X174479000Y-84606000D02*
X174479000Y-87106000D01*
X174519000Y-80049000D02*
X174519000Y-82526000D01*
X174519000Y-84606000D02*
X174519000Y-87083000D01*
X174559000Y-80073000D02*
X174559000Y-82526000D01*
X174559000Y-84606000D02*
X174559000Y-87059000D01*
X174599000Y-80097000D02*
X174599000Y-82526000D01*
X174599000Y-84606000D02*
X174599000Y-87035000D01*
X174639000Y-80122000D02*
X174639000Y-82526000D01*
X174639000Y-84606000D02*
X174639000Y-87010000D01*
X174679000Y-80148000D02*
X174679000Y-82526000D01*
X174679000Y-84606000D02*
X174679000Y-86984000D01*
X174719000Y-80174000D02*
X174719000Y-82526000D01*
X174719000Y-84606000D02*
X174719000Y-86958000D01*
X174759000Y-80201000D02*
X174759000Y-82526000D01*
X174759000Y-84606000D02*
X174759000Y-86931000D01*
X174799000Y-80228000D02*
X174799000Y-82526000D01*
X174799000Y-84606000D02*
X174799000Y-86904000D01*
X174839000Y-80257000D02*
X174839000Y-82526000D01*
X174839000Y-84606000D02*
X174839000Y-86875000D01*
X174879000Y-80286000D02*
X174879000Y-82526000D01*
X174879000Y-84606000D02*
X174879000Y-86846000D01*
X174919000Y-80316000D02*
X174919000Y-82526000D01*
X174919000Y-84606000D02*
X174919000Y-86816000D01*
X174959000Y-80346000D02*
X174959000Y-82526000D01*
X174959000Y-84606000D02*
X174959000Y-86786000D01*
X174999000Y-80377000D02*
X174999000Y-82526000D01*
X174999000Y-84606000D02*
X174999000Y-86755000D01*
X175039000Y-80410000D02*
X175039000Y-82526000D01*
X175039000Y-84606000D02*
X175039000Y-86722000D01*
X175079000Y-80442000D02*
X175079000Y-82526000D01*
X175079000Y-84606000D02*
X175079000Y-86690000D01*
X175119000Y-80476000D02*
X175119000Y-82526000D01*
X175119000Y-84606000D02*
X175119000Y-86656000D01*
X175159000Y-80511000D02*
X175159000Y-82526000D01*
X175159000Y-84606000D02*
X175159000Y-86621000D01*
X175199000Y-80547000D02*
X175199000Y-82526000D01*
X175199000Y-84606000D02*
X175199000Y-86585000D01*
X175239000Y-80583000D02*
X175239000Y-86549000D01*
X175279000Y-80621000D02*
X175279000Y-86511000D01*
X175319000Y-80659000D02*
X175319000Y-86473000D01*
X175359000Y-80699000D02*
X175359000Y-86433000D01*
X175399000Y-80740000D02*
X175399000Y-86392000D01*
X175439000Y-80782000D02*
X175439000Y-86350000D01*
X175479000Y-80825000D02*
X175479000Y-86307000D01*
X175519000Y-80869000D02*
X175519000Y-86263000D01*
X175559000Y-80915000D02*
X175559000Y-86217000D01*
X175599000Y-80962000D02*
X175599000Y-86170000D01*
X175639000Y-81010000D02*
X175639000Y-86122000D01*
X175679000Y-81061000D02*
X175679000Y-86071000D01*
X175719000Y-81112000D02*
X175719000Y-86020000D01*
X175759000Y-81166000D02*
X175759000Y-85966000D01*
X175799000Y-81221000D02*
X175799000Y-85911000D01*
X175839000Y-81279000D02*
X175839000Y-85853000D01*
X175879000Y-81338000D02*
X175879000Y-85794000D01*
X175919000Y-81400000D02*
X175919000Y-85732000D01*
X175959000Y-81464000D02*
X175959000Y-85668000D01*
X175999000Y-81532000D02*
X175999000Y-85600000D01*
X176039000Y-81602000D02*
X176039000Y-85530000D01*
X176079000Y-81676000D02*
X176079000Y-85456000D01*
X176119000Y-81753000D02*
X176119000Y-85379000D01*
X176159000Y-81835000D02*
X176159000Y-85297000D01*
X176199000Y-81921000D02*
X176199000Y-85211000D01*
X176239000Y-82014000D02*
X176239000Y-85118000D01*
X176279000Y-82113000D02*
X176279000Y-85019000D01*
X176319000Y-82220000D02*
X176319000Y-84912000D01*
X176359000Y-82337000D02*
X176359000Y-84795000D01*
X176399000Y-82468000D02*
X176399000Y-84664000D01*
X176439000Y-82618000D02*
X176439000Y-84514000D01*
X176479000Y-82798000D02*
X176479000Y-84334000D01*
X176519000Y-83033000D02*
X176519000Y-84099000D01*
X176558000Y-83566000D02*
G75*
G02*
X168318000Y-83566000I-4120000J0D01*
G01*
X168318000Y-83566000D02*
G75*
G02*
X176558000Y-83566000I4120000J0D01*
G01*
%TO.C,SW2*%
X178614000Y-117384000D02*
X178614000Y-121884000D01*
X181114000Y-123134000D02*
X182614000Y-123134000D01*
X182614000Y-116134000D02*
X181114000Y-116134000D01*
X185114000Y-121884000D02*
X185114000Y-117384000D01*
%TO.C,P1*%
X142209000Y-140913000D02*
X142209000Y-162363000D01*
X142209000Y-162363000D02*
X185959000Y-162363000D01*
X145344000Y-141168000D02*
X142229000Y-141168000D01*
X145344000Y-141168000D02*
X145344000Y-144328000D01*
X145344000Y-144328000D02*
X142229000Y-144328000D01*
X145344000Y-158948000D02*
X142184000Y-158948000D01*
X145344000Y-158948000D02*
X145344000Y-162108000D01*
X145344000Y-162108000D02*
X142229000Y-162108000D01*
X146955319Y-159547705D02*
X147755319Y-159547705D01*
X146955319Y-159867705D02*
X147755319Y-159867705D01*
X146955319Y-161147704D02*
X146955319Y-159547705D01*
X146955319Y-161147704D02*
X147755319Y-161147704D01*
X147755319Y-159547705D02*
X147755319Y-161147704D01*
X147755319Y-160827704D02*
X146955319Y-160827704D01*
X151104217Y-161845705D02*
X151104217Y-156945706D01*
X151154217Y-156895706D02*
X161054217Y-156895706D01*
X151236603Y-143242204D02*
X151236603Y-152942204D01*
X152461688Y-161896705D02*
X152495643Y-161896705D01*
X152545022Y-161896705D02*
X152589894Y-161896705D01*
X152736603Y-154442204D02*
X162436603Y-154442204D01*
X157964986Y-160545705D02*
X160043447Y-160545705D01*
X160043447Y-160045706D02*
X157964986Y-160045706D01*
X160055406Y-160520706D02*
X160043447Y-160545705D01*
X160055406Y-160520706D02*
X160048236Y-160551925D01*
X160055406Y-160520706D02*
X160079853Y-160525938D01*
X160067615Y-160577100D02*
X160043447Y-160545705D01*
X161054217Y-161895705D02*
X151154217Y-161895705D01*
X161104217Y-156945706D02*
X161104217Y-161845705D01*
X162436603Y-141742204D02*
X152736603Y-141742204D01*
X163936603Y-152942204D02*
X163936603Y-143242204D01*
X165493767Y-151538894D02*
X165493767Y-160890390D01*
X165493767Y-160101330D02*
X175653767Y-160101330D01*
X165571330Y-151461330D02*
X165493767Y-151538894D01*
X166753767Y-146831330D02*
X166753767Y-151461330D01*
X167143767Y-161181329D02*
X165493767Y-160890390D01*
X167593767Y-146831330D02*
X166753767Y-146831330D01*
X167593767Y-146831330D02*
X167593767Y-151461330D01*
X168453767Y-146831330D02*
X168453767Y-151461330D01*
X169293767Y-146831330D02*
X168453767Y-146831330D01*
X169293767Y-146831330D02*
X169293767Y-151461330D01*
X170153767Y-146831330D02*
X170153767Y-151461330D01*
X170672364Y-142219783D02*
X171122364Y-142219783D01*
X170672364Y-143969783D02*
X170672364Y-142219783D01*
X170993767Y-146831330D02*
X170153767Y-146831330D01*
X170993767Y-146831330D02*
X170993767Y-151461330D01*
X171121364Y-143733304D02*
X171121364Y-143827856D01*
X171122364Y-143969783D02*
X170672364Y-143969783D01*
X171122364Y-144244783D02*
X171122364Y-141944783D01*
X171222364Y-141844783D02*
X174822364Y-141844783D01*
X171853767Y-146831330D02*
X171853767Y-151461330D01*
X171992642Y-144244783D02*
X171992642Y-141944783D01*
X172693767Y-146831330D02*
X171853767Y-146831330D01*
X172693767Y-146831330D02*
X172693767Y-151461330D01*
X173553767Y-146831330D02*
X173553767Y-151461330D01*
X174003767Y-161181329D02*
X167143767Y-161181329D01*
X174393767Y-146831330D02*
X173553767Y-146831330D01*
X174393767Y-146831330D02*
X174393767Y-151461330D01*
X174822364Y-144344783D02*
X171222364Y-144344783D01*
X174922364Y-141944783D02*
X174922364Y-144244783D01*
X174922364Y-142219783D02*
X175372364Y-142219783D01*
X175372364Y-142219783D02*
X175372364Y-143969783D01*
X175372364Y-143969783D02*
X174922364Y-143969783D01*
X175576203Y-151461330D02*
X165571330Y-151461330D01*
X175653767Y-151538894D02*
X175576203Y-151461330D01*
X175653767Y-151538894D02*
X175653767Y-160890390D01*
X175653767Y-160890390D02*
X174003767Y-161181329D01*
X175654767Y-159523851D02*
X175654767Y-159362313D01*
X182824000Y-144328000D02*
X182824000Y-141168000D01*
X182824000Y-159258000D02*
X182824000Y-158948000D01*
X185954000Y-141168000D02*
X182824000Y-141168000D01*
X185954000Y-144328000D02*
X182824000Y-144328000D01*
X185954000Y-158953000D02*
X182824000Y-158948000D01*
X185954000Y-162108000D02*
X184654000Y-162108000D01*
X185959000Y-140913000D02*
X142209000Y-140913000D01*
X185959000Y-162363000D02*
X185959000Y-140913000D01*
X151104217Y-156945706D02*
G75*
G02*
X151154217Y-156895717I49983J6D01*
G01*
X151154217Y-161895705D02*
G75*
G02*
X151104195Y-161845705I-17J50005D01*
G01*
X151236603Y-143242204D02*
G75*
G02*
X152736603Y-141742203I1499997J4D01*
G01*
X152550337Y-145122417D02*
G75*
G02*
X152584445Y-145256602I-52937J-84883D01*
G01*
X152550338Y-145122418D02*
G75*
G02*
X154616818Y-143055938I793622J1272858D01*
G01*
X152584423Y-150927816D02*
G75*
G02*
X152550320Y-151061961I-87023J-49284D01*
G01*
X152584424Y-150927817D02*
G75*
G02*
X152584421Y-145256588I5002176J2835617D01*
G01*
X152736603Y-154442204D02*
G75*
G02*
X151236596Y-152942204I-3J1500004D01*
G01*
X154616817Y-153128469D02*
G75*
G02*
X152550333Y-151061982I-1272817J793669D01*
G01*
X154616817Y-153128469D02*
G75*
G02*
X154751002Y-153094359I84883J-52931D01*
G01*
X154750989Y-143090024D02*
G75*
G02*
X154616838Y-143055925I-49289J87024D01*
G01*
X154750989Y-143090024D02*
G75*
G02*
X160422217Y-143090024I2835614J-5002180D01*
G01*
X160079852Y-160065473D02*
G75*
G02*
X160067615Y-160014310I-1075652J-230227D01*
G01*
X160422216Y-153094383D02*
G75*
G02*
X154750989Y-153094383I-2835614J5002178D01*
G01*
X160422217Y-153094383D02*
G75*
G02*
X160556359Y-153128488I49283J-87017D01*
G01*
X160556389Y-143055938D02*
G75*
G02*
X160422201Y-143090053I-84889J52938D01*
G01*
X160556389Y-143055938D02*
G75*
G02*
X162622863Y-145122410I1272811J-793662D01*
G01*
X161054217Y-156895706D02*
G75*
G02*
X161104194Y-156945706I-17J-49994D01*
G01*
X161104217Y-161845705D02*
G75*
G02*
X161054217Y-161895717I-50017J5D01*
G01*
X162436603Y-141742204D02*
G75*
G02*
X163936596Y-143242204I-3J-1499996D01*
G01*
X162588782Y-145256590D02*
G75*
G02*
X162588779Y-150927815I-5002182J-2835610D01*
G01*
X162588783Y-145256591D02*
G75*
G02*
X162622882Y-145122440I87017J49291D01*
G01*
X162622868Y-151061989D02*
G75*
G02*
X160556389Y-153128469I-793628J-1272851D01*
G01*
X162622869Y-151061990D02*
G75*
G02*
X162588751Y-150927800I52931J84890D01*
G01*
X163936603Y-152942204D02*
G75*
G02*
X162436603Y-154442203I-1500003J4D01*
G01*
X171122364Y-141944783D02*
G75*
G02*
X171222364Y-141844764I100036J-17D01*
G01*
X171222364Y-144344783D02*
G75*
G02*
X171122417Y-144244783I36J99983D01*
G01*
X174822364Y-141844783D02*
G75*
G02*
X174922417Y-141944783I36J-100017D01*
G01*
X174922364Y-144244783D02*
G75*
G02*
X174822364Y-144344764I-99964J-17D01*
G01*
X150374693Y-151072794D02*
G75*
G02*
X142374693Y-151072794I-4000000J0D01*
G01*
X142374693Y-151072794D02*
G75*
G02*
X150374693Y-151072794I4000000J0D01*
G01*
X150443000Y-143383000D02*
G75*
G02*
X147245000Y-143383000I-1599000J0D01*
G01*
X147245000Y-143383000D02*
G75*
G02*
X150443000Y-143383000I1599000J0D01*
G01*
X162836603Y-148092204D02*
G75*
G02*
X152336603Y-148092204I-5250000J0D01*
G01*
X152336603Y-148092204D02*
G75*
G02*
X162836603Y-148092204I5250000J0D01*
G01*
X175105821Y-152373406D02*
G75*
G02*
X174355821Y-152373406I-375000J0D01*
G01*
X174355821Y-152373406D02*
G75*
G02*
X175105821Y-152373406I375000J0D01*
G01*
X180922999Y-159893000D02*
G75*
G02*
X177725001Y-159893000I-1598999J0D01*
G01*
X177725001Y-159893000D02*
G75*
G02*
X180922999Y-159893000I1598999J0D01*
G01*
X185757334Y-151570582D02*
G75*
G02*
X177757334Y-151570582I-4000000J0D01*
G01*
X177757334Y-151570582D02*
G75*
G02*
X185757334Y-151570582I4000000J0D01*
G01*
%TO.C,U2*%
D11*
X141478000Y-136390000D02*
X116478000Y-136390000D01*
X116478000Y-162690000D01*
X141478000Y-162690000D01*
X141478000Y-136390000D01*
D12*
%TO.C,R3*%
X130964000Y-120682000D02*
X130964000Y-127222000D01*
X130964000Y-127222000D02*
X133704000Y-127222000D01*
X132334000Y-119912000D02*
X132334000Y-120682000D01*
X132334000Y-127992000D02*
X132334000Y-127222000D01*
X133704000Y-120682000D02*
X130964000Y-120682000D01*
X133704000Y-127222000D02*
X133704000Y-120682000D01*
%TO.C,J1*%
X118812000Y-101794000D02*
X120142000Y-101794000D01*
X118812000Y-103124000D02*
X118812000Y-101794000D01*
X121412000Y-101794000D02*
X129092000Y-101794000D01*
X121412000Y-104454000D02*
X121412000Y-101794000D01*
X121412000Y-104454000D02*
X129092000Y-104454000D01*
X129092000Y-104454000D02*
X129092000Y-101794000D01*
%TO.C,C2*%
X131802000Y-109913000D02*
X128825000Y-109913000D01*
X131802000Y-109953000D02*
X128832000Y-109953000D01*
X131802000Y-109993000D02*
X128840000Y-109993000D01*
X131802000Y-110033000D02*
X128848000Y-110033000D01*
X131802000Y-110073000D02*
X128857000Y-110073000D01*
X131802000Y-110113000D02*
X128866000Y-110113000D01*
X131802000Y-110153000D02*
X128875000Y-110153000D01*
X131802000Y-110193000D02*
X128885000Y-110193000D01*
X131802000Y-110233000D02*
X128895000Y-110233000D01*
X131802000Y-110273000D02*
X128906000Y-110273000D01*
X131802000Y-110313000D02*
X128917000Y-110313000D01*
X131802000Y-110353000D02*
X128928000Y-110353000D01*
X131802000Y-110393000D02*
X128940000Y-110393000D01*
X131802000Y-110433000D02*
X128953000Y-110433000D01*
X131802000Y-110473000D02*
X128965000Y-110473000D01*
X131802000Y-110513000D02*
X128979000Y-110513000D01*
X131802000Y-110553000D02*
X128992000Y-110553000D01*
X131802000Y-110593000D02*
X129007000Y-110593000D01*
X131802000Y-110633000D02*
X129021000Y-110633000D01*
X131802000Y-110673000D02*
X129037000Y-110673000D01*
X131802000Y-110713000D02*
X129052000Y-110713000D01*
X131802000Y-110753000D02*
X129068000Y-110753000D01*
X131802000Y-110793000D02*
X129085000Y-110793000D01*
X131802000Y-110833000D02*
X129102000Y-110833000D01*
X131802000Y-110873000D02*
X129120000Y-110873000D01*
X131802000Y-110913000D02*
X129138000Y-110913000D01*
X131802000Y-110953000D02*
X129156000Y-110953000D01*
X131802000Y-110993000D02*
X129176000Y-110993000D01*
X131802000Y-111033000D02*
X129195000Y-111033000D01*
X131802000Y-111073000D02*
X129215000Y-111073000D01*
X131802000Y-111113000D02*
X129236000Y-111113000D01*
X131802000Y-111153000D02*
X129258000Y-111153000D01*
X131802000Y-111193000D02*
X129280000Y-111193000D01*
X131802000Y-111233000D02*
X129302000Y-111233000D01*
X131802000Y-111273000D02*
X129325000Y-111273000D01*
X131802000Y-111313000D02*
X129349000Y-111313000D01*
X131802000Y-111353000D02*
X129373000Y-111353000D01*
X131802000Y-111393000D02*
X129398000Y-111393000D01*
X131802000Y-111433000D02*
X129424000Y-111433000D01*
X131802000Y-111473000D02*
X129450000Y-111473000D01*
X131802000Y-111513000D02*
X129477000Y-111513000D01*
X131802000Y-111553000D02*
X129504000Y-111553000D01*
X131802000Y-111593000D02*
X129533000Y-111593000D01*
X131802000Y-111633000D02*
X129562000Y-111633000D01*
X131802000Y-111673000D02*
X129592000Y-111673000D01*
X131802000Y-111713000D02*
X129622000Y-111713000D01*
X131802000Y-111753000D02*
X129653000Y-111753000D01*
X131802000Y-111793000D02*
X129686000Y-111793000D01*
X131802000Y-111833000D02*
X129718000Y-111833000D01*
X131802000Y-111873000D02*
X129752000Y-111873000D01*
X131802000Y-111913000D02*
X129787000Y-111913000D01*
X131802000Y-111953000D02*
X129823000Y-111953000D01*
X133375000Y-113273000D02*
X132309000Y-113273000D01*
X133610000Y-113233000D02*
X132074000Y-113233000D01*
X133790000Y-113193000D02*
X131894000Y-113193000D01*
X133940000Y-113153000D02*
X131744000Y-113153000D01*
X134071000Y-113113000D02*
X131613000Y-113113000D01*
X134188000Y-113073000D02*
X131496000Y-113073000D01*
X134295000Y-113033000D02*
X131389000Y-113033000D01*
X134394000Y-112993000D02*
X131290000Y-112993000D01*
X134487000Y-112953000D02*
X131197000Y-112953000D01*
X134573000Y-112913000D02*
X131111000Y-112913000D01*
X134655000Y-112873000D02*
X131029000Y-112873000D01*
X134732000Y-112833000D02*
X130952000Y-112833000D01*
X134806000Y-112793000D02*
X130878000Y-112793000D01*
X134876000Y-112753000D02*
X130808000Y-112753000D01*
X134944000Y-112713000D02*
X130740000Y-112713000D01*
X135008000Y-112673000D02*
X130676000Y-112673000D01*
X135070000Y-112633000D02*
X130614000Y-112633000D01*
X135129000Y-112593000D02*
X130555000Y-112593000D01*
X135157000Y-104782302D02*
X135157000Y-105582302D01*
X135187000Y-112553000D02*
X130497000Y-112553000D01*
X135242000Y-112513000D02*
X130442000Y-112513000D01*
X135296000Y-112473000D02*
X130388000Y-112473000D01*
X135347000Y-112433000D02*
X130337000Y-112433000D01*
X135398000Y-112393000D02*
X130286000Y-112393000D01*
X135446000Y-112353000D02*
X130238000Y-112353000D01*
X135493000Y-112313000D02*
X130191000Y-112313000D01*
X135539000Y-112273000D02*
X130145000Y-112273000D01*
X135557000Y-105182302D02*
X134757000Y-105182302D01*
X135583000Y-112233000D02*
X130101000Y-112233000D01*
X135626000Y-112193000D02*
X130058000Y-112193000D01*
X135668000Y-112153000D02*
X130016000Y-112153000D01*
X135709000Y-112113000D02*
X129975000Y-112113000D01*
X135749000Y-112073000D02*
X129935000Y-112073000D01*
X135787000Y-112033000D02*
X129897000Y-112033000D01*
X135825000Y-111993000D02*
X129859000Y-111993000D01*
X135861000Y-111953000D02*
X133882000Y-111953000D01*
X135897000Y-111913000D02*
X133882000Y-111913000D01*
X135932000Y-111873000D02*
X133882000Y-111873000D01*
X135966000Y-111833000D02*
X133882000Y-111833000D01*
X135998000Y-111793000D02*
X133882000Y-111793000D01*
X136031000Y-111753000D02*
X133882000Y-111753000D01*
X136062000Y-111713000D02*
X133882000Y-111713000D01*
X136092000Y-111673000D02*
X133882000Y-111673000D01*
X136122000Y-111633000D02*
X133882000Y-111633000D01*
X136151000Y-111593000D02*
X133882000Y-111593000D01*
X136180000Y-111553000D02*
X133882000Y-111553000D01*
X136207000Y-111513000D02*
X133882000Y-111513000D01*
X136234000Y-111473000D02*
X133882000Y-111473000D01*
X136260000Y-111433000D02*
X133882000Y-111433000D01*
X136286000Y-111393000D02*
X133882000Y-111393000D01*
X136311000Y-111353000D02*
X133882000Y-111353000D01*
X136335000Y-111313000D02*
X133882000Y-111313000D01*
X136359000Y-111273000D02*
X133882000Y-111273000D01*
X136382000Y-111233000D02*
X133882000Y-111233000D01*
X136404000Y-111193000D02*
X133882000Y-111193000D01*
X136426000Y-111153000D02*
X133882000Y-111153000D01*
X136448000Y-111113000D02*
X133882000Y-111113000D01*
X136469000Y-111073000D02*
X133882000Y-111073000D01*
X136489000Y-111033000D02*
X133882000Y-111033000D01*
X136508000Y-110993000D02*
X133882000Y-110993000D01*
X136528000Y-110953000D02*
X133882000Y-110953000D01*
X136546000Y-110913000D02*
X133882000Y-110913000D01*
X136564000Y-110873000D02*
X133882000Y-110873000D01*
X136582000Y-110833000D02*
X133882000Y-110833000D01*
X136599000Y-110793000D02*
X133882000Y-110793000D01*
X136616000Y-110753000D02*
X133882000Y-110753000D01*
X136632000Y-110713000D02*
X133882000Y-110713000D01*
X136647000Y-110673000D02*
X133882000Y-110673000D01*
X136663000Y-110633000D02*
X133882000Y-110633000D01*
X136677000Y-110593000D02*
X133882000Y-110593000D01*
X136692000Y-110553000D02*
X133882000Y-110553000D01*
X136705000Y-110513000D02*
X133882000Y-110513000D01*
X136719000Y-110473000D02*
X133882000Y-110473000D01*
X136731000Y-110433000D02*
X133882000Y-110433000D01*
X136744000Y-110393000D02*
X133882000Y-110393000D01*
X136756000Y-110353000D02*
X133882000Y-110353000D01*
X136767000Y-110313000D02*
X133882000Y-110313000D01*
X136778000Y-110273000D02*
X133882000Y-110273000D01*
X136789000Y-110233000D02*
X133882000Y-110233000D01*
X136799000Y-110193000D02*
X133882000Y-110193000D01*
X136809000Y-110153000D02*
X133882000Y-110153000D01*
X136818000Y-110113000D02*
X133882000Y-110113000D01*
X136827000Y-110073000D02*
X133882000Y-110073000D01*
X136836000Y-110033000D02*
X133882000Y-110033000D01*
X136844000Y-109993000D02*
X133882000Y-109993000D01*
X136852000Y-109953000D02*
X133882000Y-109953000D01*
X136859000Y-109913000D02*
X133882000Y-109913000D01*
X136866000Y-109872000D02*
X128818000Y-109872000D01*
X136872000Y-109832000D02*
X128812000Y-109832000D01*
X136879000Y-109792000D02*
X128805000Y-109792000D01*
X136884000Y-109752000D02*
X128800000Y-109752000D01*
X136890000Y-109712000D02*
X128794000Y-109712000D01*
X136894000Y-109672000D02*
X128790000Y-109672000D01*
X136899000Y-109632000D02*
X128785000Y-109632000D01*
X136903000Y-109592000D02*
X128781000Y-109592000D01*
X136907000Y-109552000D02*
X128777000Y-109552000D01*
X136910000Y-109512000D02*
X128774000Y-109512000D01*
X136913000Y-109472000D02*
X128771000Y-109472000D01*
X136916000Y-109432000D02*
X128768000Y-109432000D01*
X136918000Y-109392000D02*
X128766000Y-109392000D01*
X136919000Y-109352000D02*
X128765000Y-109352000D01*
X136921000Y-109312000D02*
X128763000Y-109312000D01*
X136922000Y-109192000D02*
X128762000Y-109192000D01*
X136922000Y-109232000D02*
X128762000Y-109232000D01*
X136922000Y-109272000D02*
X128762000Y-109272000D01*
X136962000Y-109192000D02*
G75*
G02*
X128722000Y-109192000I-4120000J0D01*
G01*
X128722000Y-109192000D02*
G75*
G02*
X136962000Y-109192000I4120000J0D01*
G01*
%TD*%
M02*
