%TF.GenerationSoftware,KiCad,Pcbnew,8.0.9-8.0.9-0~ubuntu22.04.1*%
%TF.CreationDate,2025-05-12T13:18:15+05:45*%
%TF.ProjectId,minor_hardware_pcb,6d696e6f-725f-4686-9172-64776172655f,rev?*%
%TF.SameCoordinates,Original*%
%TF.FileFunction,Copper,L1,Top*%
%TF.FilePolarity,Positive*%
%FSLAX46Y46*%
G04 Gerber Fmt 4.6, Leading zero omitted, Abs format (unit mm)*
G04 Created by KiCad (PCBNEW 8.0.9-8.0.9-0~ubuntu22.04.1) date 2025-05-12 13:18:15*
%MOMM*%
%LPD*%
G01*
G04 APERTURE LIST*
%TA.AperFunction,ComponentPad*%
%ADD10O,1.524000X2.000000*%
%TD*%
%TA.AperFunction,ComponentPad*%
%ADD11O,2.500000X1.524000*%
%TD*%
%TA.AperFunction,ComponentPad*%
%ADD12O,1.700000X2.200000*%
%TD*%
%TA.AperFunction,ComponentPad*%
%ADD13R,1.700000X1.700000*%
%TD*%
%TA.AperFunction,ComponentPad*%
%ADD14O,2.200000X1.700000*%
%TD*%
%TA.AperFunction,ComponentPad*%
%ADD15C,2.000000*%
%TD*%
%TA.AperFunction,ComponentPad*%
%ADD16R,1.600000X1.600000*%
%TD*%
%TA.AperFunction,ComponentPad*%
%ADD17C,1.600000*%
%TD*%
%TA.AperFunction,ComponentPad*%
%ADD18R,2.540000X2.540000*%
%TD*%
%TA.AperFunction,ComponentPad*%
%ADD19C,2.540000*%
%TD*%
%TA.AperFunction,ComponentPad*%
%ADD20O,1.600000X1.600000*%
%TD*%
%TA.AperFunction,ViaPad*%
%ADD21C,1.500000*%
%TD*%
%TA.AperFunction,Conductor*%
%ADD22C,0.700000*%
%TD*%
%TA.AperFunction,Conductor*%
%ADD23C,0.500000*%
%TD*%
%TA.AperFunction,Conductor*%
%ADD24C,0.300000*%
%TD*%
G04 APERTURE END LIST*
D10*
%TO.P,R1,1*%
%TO.N,/PANIC*%
X172720000Y-109220000D03*
%TO.P,R1,2*%
%TO.N,GND*%
X172720000Y-99060000D03*
%TD*%
D11*
%TO.P,U1,1,EN*%
%TO.N,unconnected-(U1-EN-Pad1)*%
X165279000Y-129286000D03*
%TO.P,U1,2,SENSOR_VP*%
%TO.N,unconnected-(U1-SENSOR_VP-Pad2)*%
X165354000Y-126746000D03*
%TO.P,U1,3,SENSOR_VN*%
%TO.N,unconnected-(U1-SENSOR_VN-Pad3)*%
X165354000Y-124206000D03*
%TO.P,U1,4,IO34*%
%TO.N,/TERMINATE*%
X165354000Y-121666000D03*
%TO.P,U1,5,IO35*%
%TO.N,/PANIC*%
X165354000Y-119126000D03*
%TO.P,U1,6,IO32*%
%TO.N,unconnected-(U1-IO32-Pad6)*%
X165354000Y-116586000D03*
%TO.P,U1,7,IO33*%
%TO.N,unconnected-(U1-IO33-Pad7)*%
X165354000Y-114046000D03*
%TO.P,U1,8,IO25*%
%TO.N,unconnected-(U1-IO25-Pad8)*%
X165354000Y-111506000D03*
%TO.P,U1,9,IO26*%
%TO.N,/TXGSM*%
X165354000Y-108966000D03*
%TO.P,U1,10,IO27*%
%TO.N,unconnected-(U1-IO27-Pad10)*%
X165354000Y-106426000D03*
%TO.P,U1,11,IO14*%
%TO.N,unconnected-(U1-IO14-Pad11)*%
X165354000Y-103886000D03*
%TO.P,U1,12,IO12*%
%TO.N,unconnected-(U1-IO12-Pad12)*%
X165354000Y-101346000D03*
%TO.P,U1,13,IO13*%
%TO.N,unconnected-(U1-IO13-Pad13)*%
X165354000Y-98806000D03*
%TO.P,U1,14,GND*%
%TO.N,GND*%
X165354000Y-96266000D03*
%TO.P,U1,15,VIN*%
%TO.N,/POWER*%
X165354000Y-93726000D03*
%TO.P,U1,16,3V3*%
%TO.N,+3V3*%
X140029000Y-93726000D03*
%TO.P,U1,17,GND*%
%TO.N,GND*%
X139954000Y-96266000D03*
%TO.P,U1,18,IO15*%
%TO.N,/RXGSM*%
X139954000Y-98806000D03*
%TO.P,U1,19,IO2*%
%TO.N,unconnected-(U1-IO2-Pad19)*%
X139954000Y-101346000D03*
%TO.P,U1,20,IO4*%
%TO.N,unconnected-(U1-IO4-Pad20)*%
X139954000Y-103886000D03*
%TO.P,U1,21,IO16*%
%TO.N,/TXGPS*%
X139954000Y-106426000D03*
%TO.P,U1,22,IO17*%
%TO.N,/RXGPS*%
X139954000Y-108966000D03*
%TO.P,U1,23,IO5*%
%TO.N,unconnected-(U1-IO5-Pad23)*%
X139954000Y-111506000D03*
%TO.P,U1,24,IO18*%
%TO.N,/BLUE*%
X139954000Y-114046000D03*
%TO.P,U1,25,IO19*%
%TO.N,/GREEN*%
X139954000Y-116586000D03*
%TO.P,U1,26,IO21*%
%TO.N,/DISP_SCL*%
X139954000Y-119126000D03*
%TO.P,U1,27,RXD0*%
%TO.N,unconnected-(U1-RXD0-Pad27)*%
X139954000Y-121666000D03*
%TO.P,U1,28,TXD0*%
%TO.N,unconnected-(U1-TXD0-Pad28)*%
X139954000Y-124206000D03*
%TO.P,U1,29,IO22*%
%TO.N,/DISP_SDA*%
X139954000Y-126746000D03*
%TO.P,U1,30,IO23*%
%TO.N,/RED*%
X139954000Y-129286000D03*
%TD*%
D12*
%TO.P,J4,1,Pin_1*%
%TO.N,/POWER*%
X158745000Y-138430000D03*
%TO.P,J4,2,Pin_2*%
%TO.N,+7.5V*%
X161285000Y-138430000D03*
%TD*%
D13*
%TO.P,J3,1,Pin_1*%
%TO.N,/RED*%
X122936000Y-121158000D03*
D14*
%TO.P,J3,2,Pin_2*%
%TO.N,Net-(J3-Pin_2)*%
X122936000Y-118618000D03*
%TO.P,J3,3,Pin_3*%
%TO.N,/GREEN*%
X122936000Y-116078000D03*
%TO.P,J3,4,Pin_4*%
%TO.N,/BLUE*%
X122936000Y-113538000D03*
%TD*%
D12*
%TO.P,J2,1,Pin_1*%
%TO.N,+7.5V*%
X177292000Y-136906000D03*
%TO.P,J2,2,Pin_2*%
%TO.N,GND*%
X179832000Y-136906000D03*
%TD*%
D15*
%TO.P,SW1,1,1*%
%TO.N,+3V3*%
X184042000Y-96826000D03*
X184042000Y-103326000D03*
%TO.P,SW1,2,2*%
%TO.N,/PANIC*%
X179542000Y-96826000D03*
X179542000Y-103326000D03*
%TD*%
D10*
%TO.P,R2,1*%
%TO.N,/TERMINATE*%
X172684000Y-116026000D03*
%TO.P,R2,2*%
%TO.N,GND*%
X172684000Y-126186000D03*
%TD*%
D16*
%TO.P,C1,1*%
%TO.N,/POWER*%
X170688000Y-83566000D03*
D17*
%TO.P,C1,2*%
%TO.N,GND*%
X174188000Y-83566000D03*
%TD*%
D15*
%TO.P,SW2,1,1*%
%TO.N,+3V3*%
X184114000Y-116384000D03*
X184114000Y-122884000D03*
%TO.P,SW2,2,2*%
%TO.N,/TERMINATE*%
X179614000Y-116384000D03*
X179614000Y-122884000D03*
%TD*%
D18*
%TO.P,P1,1,input*%
%TO.N,+7.5V*%
X184404000Y-160528000D03*
D19*
%TO.P,P1,2,GND*%
%TO.N,GND*%
X184404000Y-142748000D03*
%TO.P,P1,3,output*%
%TO.N,+4V*%
X143764000Y-160528000D03*
%TO.P,P1,4,GND*%
%TO.N,GND*%
X143764000Y-142748000D03*
%TD*%
D12*
%TO.P,U2,1,VCC*%
%TO.N,+4V*%
X133858000Y-138430000D03*
%TO.P,U2,2,RST*%
%TO.N,unconnected-(U2-RST-Pad2)*%
X131318000Y-138430000D03*
%TO.P,U2,3,RXD*%
%TO.N,/RXGSM*%
X128778000Y-138430000D03*
%TO.P,U2,4,TXD*%
%TO.N,/TXGSM*%
X126238000Y-138430000D03*
%TO.P,U2,5,GND*%
%TO.N,GND*%
X123698000Y-138430000D03*
%TO.P,U2,6,SPKN*%
%TO.N,unconnected-(U2-SPKN-Pad6)*%
X121158000Y-160350000D03*
%TO.P,U2,7,SPKP*%
%TO.N,unconnected-(U2-SPKP-Pad7)*%
X123698000Y-160350000D03*
%TO.P,U2,8,MICN*%
%TO.N,unconnected-(U2-MICN-Pad8)*%
X126238000Y-160350000D03*
%TO.P,U2,9,MICP*%
%TO.N,unconnected-(U2-MICP-Pad9)*%
X128778000Y-160350000D03*
%TO.P,U2,10,DTR*%
%TO.N,unconnected-(U2-DTR-Pad10)*%
X131318000Y-160350000D03*
%TO.P,U2,11,RING*%
%TO.N,unconnected-(U2-RING-Pad11)*%
X133858000Y-160350000D03*
%TD*%
D10*
%TO.P,R3,1*%
%TO.N,Net-(J3-Pin_2)*%
X132334000Y-118872000D03*
D20*
%TO.P,R3,2*%
%TO.N,GND*%
X132334000Y-129032000D03*
%TD*%
D13*
%TO.P,J1,1,Pin_1*%
%TO.N,GND*%
X120142000Y-103124000D03*
D12*
%TO.P,J1,2,Pin_2*%
%TO.N,/TXGPS*%
X122682000Y-103124000D03*
%TO.P,J1,3,Pin_3*%
%TO.N,/RXGPS*%
X125222000Y-103124000D03*
%TO.P,J1,4,Pin_4*%
%TO.N,+3V3*%
X127762000Y-103124000D03*
%TD*%
D16*
%TO.P,C2,1*%
%TO.N,+3V3*%
X132842000Y-107442000D03*
D12*
%TO.P,C2,2*%
%TO.N,GND*%
X132842000Y-110942000D03*
%TD*%
%TO.P,J5,1,Pin_1*%
%TO.N,/POWER*%
X102860000Y-149803000D03*
%TO.P,J5,2,Pin_2*%
%TO.N,/DISP_SCL*%
X105400000Y-149803000D03*
%TO.P,J5,3,Pin_3*%
%TO.N,/DISP_SDA*%
X107940000Y-149803000D03*
D13*
%TO.P,J5,4,Pin_4*%
%TO.N,GND*%
X110480000Y-149803000D03*
%TD*%
D21*
%TO.N,/POWER*%
X149098000Y-146304000D03*
X102870000Y-146304000D03*
%TO.N,+3V3*%
X128270000Y-100076000D03*
X131064000Y-97282000D03*
%TO.N,/RED*%
X136398000Y-129286000D03*
X128016000Y-121158000D03*
%TO.N,/TXGSM*%
X161544000Y-108966000D03*
X145542000Y-108966000D03*
%TD*%
D22*
%TO.N,/POWER*%
X149098000Y-146304000D02*
X102870000Y-146304000D01*
D23*
%TO.N,+3V3*%
X128270000Y-100076000D02*
X131064000Y-97282000D01*
D24*
%TO.N,/RED*%
X128016000Y-121158000D02*
X128270000Y-121158000D01*
X128270000Y-121158000D02*
X136398000Y-129286000D01*
%TO.N,/TXGSM*%
X145542000Y-108966000D02*
X161544000Y-108966000D01*
%TD*%
M02*
