%TF.GenerationSoftware,KiCad,Pcbnew,8.0.9-8.0.9-0~ubuntu22.04.1*%
%TF.CreationDate,2025-05-12T13:18:15+05:45*%
%TF.ProjectId,minor_hardware_pcb,6d696e6f-725f-4686-9172-64776172655f,rev?*%
%TF.SameCoordinates,Original*%
%TF.FileFunction,Legend,Bot*%
%TF.FilePolarity,Positive*%
%FSLAX46Y46*%
G04 Gerber Fmt 4.6, Leading zero omitted, Abs format (unit mm)*
G04 Created by KiCad (PCBNEW 8.0.9-8.0.9-0~ubuntu22.04.1) date 2025-05-12 13:18:15*
%MOMM*%
%LPD*%
G01*
G04 APERTURE LIST*
%ADD10C,0.150000*%
%ADD11C,0.120000*%
G04 APERTURE END LIST*
D10*
X112204819Y-153854666D02*
X112919104Y-153854666D01*
X112919104Y-153854666D02*
X113061961Y-153807047D01*
X113061961Y-153807047D02*
X113157200Y-153711809D01*
X113157200Y-153711809D02*
X113204819Y-153568952D01*
X113204819Y-153568952D02*
X113204819Y-153473714D01*
X112204819Y-154807047D02*
X112204819Y-154330857D01*
X112204819Y-154330857D02*
X112681009Y-154283238D01*
X112681009Y-154283238D02*
X112633390Y-154330857D01*
X112633390Y-154330857D02*
X112585771Y-154426095D01*
X112585771Y-154426095D02*
X112585771Y-154664190D01*
X112585771Y-154664190D02*
X112633390Y-154759428D01*
X112633390Y-154759428D02*
X112681009Y-154807047D01*
X112681009Y-154807047D02*
X112776247Y-154854666D01*
X112776247Y-154854666D02*
X113014342Y-154854666D01*
X113014342Y-154854666D02*
X113109580Y-154807047D01*
X113109580Y-154807047D02*
X113157200Y-154759428D01*
X113157200Y-154759428D02*
X113204819Y-154664190D01*
X113204819Y-154664190D02*
X113204819Y-154426095D01*
X113204819Y-154426095D02*
X113157200Y-154330857D01*
X113157200Y-154330857D02*
X113109580Y-154283238D01*
D11*
%TO.C,J5*%
X101530000Y-151243000D02*
X111810000Y-151243000D01*
X101530000Y-153903000D02*
X101530000Y-151243000D01*
X102480000Y-151243000D02*
X102480000Y-150845929D01*
X102480000Y-153903000D02*
X102480000Y-159903000D01*
X102480000Y-159903000D02*
X103240000Y-159903000D01*
X103240000Y-151243000D02*
X103240000Y-150845929D01*
X103240000Y-159903000D02*
X103240000Y-153903000D01*
X104130000Y-153903000D02*
X104130000Y-151243000D01*
X105020000Y-151243000D02*
X105020000Y-150845929D01*
X105020000Y-153903000D02*
X105020000Y-159903000D01*
X105020000Y-159903000D02*
X105780000Y-159903000D01*
X105780000Y-151243000D02*
X105780000Y-150845929D01*
X105780000Y-159903000D02*
X105780000Y-153903000D01*
X106670000Y-153903000D02*
X106670000Y-151243000D01*
X107560000Y-151243000D02*
X107560000Y-150845929D01*
X107560000Y-153903000D02*
X107560000Y-159903000D01*
X107560000Y-159903000D02*
X108320000Y-159903000D01*
X108320000Y-151243000D02*
X108320000Y-150845929D01*
X108320000Y-159903000D02*
X108320000Y-153903000D01*
X109210000Y-153903000D02*
X109210000Y-151243000D01*
X110100000Y-151243000D02*
X110100000Y-150913000D01*
X110100000Y-153903000D02*
X110100000Y-159903000D01*
X110100000Y-159903000D02*
X110860000Y-159903000D01*
X110200000Y-159903000D02*
X110200000Y-153903000D01*
X110320000Y-159903000D02*
X110320000Y-153903000D01*
X110440000Y-159903000D02*
X110440000Y-153903000D01*
X110560000Y-159903000D02*
X110560000Y-153903000D01*
X110680000Y-159903000D02*
X110680000Y-153903000D01*
X110800000Y-159903000D02*
X110800000Y-153903000D01*
X110860000Y-151243000D02*
X110860000Y-150913000D01*
X110860000Y-159903000D02*
X110860000Y-153903000D01*
X111750000Y-148533000D02*
X110480000Y-148533000D01*
X111750000Y-149803000D02*
X111750000Y-148533000D01*
X111810000Y-151243000D02*
X111810000Y-153903000D01*
X111810000Y-153903000D02*
X101530000Y-153903000D01*
%TD*%
M02*
