%TF.GenerationSoftware,KiCad,Pcbnew,8.0.9-8.0.9-0~ubuntu22.04.1*%
%TF.CreationDate,2025-05-12T13:18:15+05:45*%
%TF.ProjectId,minor_hardware_pcb,6d696e6f-725f-4686-9172-64776172655f,rev?*%
%TF.SameCoordinates,Original*%
%TF.FileFunction,Copper,L2,Bot*%
%TF.FilePolarity,Positive*%
%FSLAX46Y46*%
G04 Gerber Fmt 4.6, Leading zero omitted, Abs format (unit mm)*
G04 Created by KiCad (PCBNEW 8.0.9-8.0.9-0~ubuntu22.04.1) date 2025-05-12 13:18:15*
%MOMM*%
%LPD*%
G01*
G04 APERTURE LIST*
%TA.AperFunction,ComponentPad*%
%ADD10O,1.524000X2.000000*%
%TD*%
%TA.AperFunction,ComponentPad*%
%ADD11O,2.500000X1.524000*%
%TD*%
%TA.AperFunction,ComponentPad*%
%ADD12O,1.700000X2.200000*%
%TD*%
%TA.AperFunction,ComponentPad*%
%ADD13R,1.700000X1.700000*%
%TD*%
%TA.AperFunction,ComponentPad*%
%ADD14O,2.200000X1.700000*%
%TD*%
%TA.AperFunction,ComponentPad*%
%ADD15C,2.000000*%
%TD*%
%TA.AperFunction,ComponentPad*%
%ADD16R,1.600000X1.600000*%
%TD*%
%TA.AperFunction,ComponentPad*%
%ADD17C,1.600000*%
%TD*%
%TA.AperFunction,ComponentPad*%
%ADD18R,2.540000X2.540000*%
%TD*%
%TA.AperFunction,ComponentPad*%
%ADD19C,2.540000*%
%TD*%
%TA.AperFunction,ComponentPad*%
%ADD20O,1.600000X1.600000*%
%TD*%
%TA.AperFunction,ViaPad*%
%ADD21C,1.500000*%
%TD*%
%TA.AperFunction,Conductor*%
%ADD22C,0.700000*%
%TD*%
%TA.AperFunction,Conductor*%
%ADD23C,0.500000*%
%TD*%
%TA.AperFunction,Conductor*%
%ADD24C,0.300000*%
%TD*%
G04 APERTURE END LIST*
D10*
%TO.P,R1,1*%
%TO.N,/PANIC*%
X172720000Y-109220000D03*
%TO.P,R1,2*%
%TO.N,GND*%
X172720000Y-99060000D03*
%TD*%
D11*
%TO.P,U1,1,EN*%
%TO.N,unconnected-(U1-EN-Pad1)*%
X165279000Y-129286000D03*
%TO.P,U1,2,SENSOR_VP*%
%TO.N,unconnected-(U1-SENSOR_VP-Pad2)*%
X165354000Y-126746000D03*
%TO.P,U1,3,SENSOR_VN*%
%TO.N,unconnected-(U1-SENSOR_VN-Pad3)*%
X165354000Y-124206000D03*
%TO.P,U1,4,IO34*%
%TO.N,/TERMINATE*%
X165354000Y-121666000D03*
%TO.P,U1,5,IO35*%
%TO.N,/PANIC*%
X165354000Y-119126000D03*
%TO.P,U1,6,IO32*%
%TO.N,unconnected-(U1-IO32-Pad6)*%
X165354000Y-116586000D03*
%TO.P,U1,7,IO33*%
%TO.N,unconnected-(U1-IO33-Pad7)*%
X165354000Y-114046000D03*
%TO.P,U1,8,IO25*%
%TO.N,unconnected-(U1-IO25-Pad8)*%
X165354000Y-111506000D03*
%TO.P,U1,9,IO26*%
%TO.N,/TXGSM*%
X165354000Y-108966000D03*
%TO.P,U1,10,IO27*%
%TO.N,unconnected-(U1-IO27-Pad10)*%
X165354000Y-106426000D03*
%TO.P,U1,11,IO14*%
%TO.N,unconnected-(U1-IO14-Pad11)*%
X165354000Y-103886000D03*
%TO.P,U1,12,IO12*%
%TO.N,unconnected-(U1-IO12-Pad12)*%
X165354000Y-101346000D03*
%TO.P,U1,13,IO13*%
%TO.N,unconnected-(U1-IO13-Pad13)*%
X165354000Y-98806000D03*
%TO.P,U1,14,GND*%
%TO.N,GND*%
X165354000Y-96266000D03*
%TO.P,U1,15,VIN*%
%TO.N,/POWER*%
X165354000Y-93726000D03*
%TO.P,U1,16,3V3*%
%TO.N,+3V3*%
X140029000Y-93726000D03*
%TO.P,U1,17,GND*%
%TO.N,GND*%
X139954000Y-96266000D03*
%TO.P,U1,18,IO15*%
%TO.N,/RXGSM*%
X139954000Y-98806000D03*
%TO.P,U1,19,IO2*%
%TO.N,unconnected-(U1-IO2-Pad19)*%
X139954000Y-101346000D03*
%TO.P,U1,20,IO4*%
%TO.N,unconnected-(U1-IO4-Pad20)*%
X139954000Y-103886000D03*
%TO.P,U1,21,IO16*%
%TO.N,/TXGPS*%
X139954000Y-106426000D03*
%TO.P,U1,22,IO17*%
%TO.N,/RXGPS*%
X139954000Y-108966000D03*
%TO.P,U1,23,IO5*%
%TO.N,unconnected-(U1-IO5-Pad23)*%
X139954000Y-111506000D03*
%TO.P,U1,24,IO18*%
%TO.N,/BLUE*%
X139954000Y-114046000D03*
%TO.P,U1,25,IO19*%
%TO.N,/GREEN*%
X139954000Y-116586000D03*
%TO.P,U1,26,IO21*%
%TO.N,/DISP_SCL*%
X139954000Y-119126000D03*
%TO.P,U1,27,RXD0*%
%TO.N,unconnected-(U1-RXD0-Pad27)*%
X139954000Y-121666000D03*
%TO.P,U1,28,TXD0*%
%TO.N,unconnected-(U1-TXD0-Pad28)*%
X139954000Y-124206000D03*
%TO.P,U1,29,IO22*%
%TO.N,/DISP_SDA*%
X139954000Y-126746000D03*
%TO.P,U1,30,IO23*%
%TO.N,/RED*%
X139954000Y-129286000D03*
%TD*%
D12*
%TO.P,J4,1,Pin_1*%
%TO.N,/POWER*%
X158745000Y-138430000D03*
%TO.P,J4,2,Pin_2*%
%TO.N,+7.5V*%
X161285000Y-138430000D03*
%TD*%
D13*
%TO.P,J3,1,Pin_1*%
%TO.N,/RED*%
X122936000Y-121158000D03*
D14*
%TO.P,J3,2,Pin_2*%
%TO.N,Net-(J3-Pin_2)*%
X122936000Y-118618000D03*
%TO.P,J3,3,Pin_3*%
%TO.N,/GREEN*%
X122936000Y-116078000D03*
%TO.P,J3,4,Pin_4*%
%TO.N,/BLUE*%
X122936000Y-113538000D03*
%TD*%
D12*
%TO.P,J2,1,Pin_1*%
%TO.N,+7.5V*%
X177292000Y-136906000D03*
%TO.P,J2,2,Pin_2*%
%TO.N,GND*%
X179832000Y-136906000D03*
%TD*%
D15*
%TO.P,SW1,1,1*%
%TO.N,+3V3*%
X184042000Y-96826000D03*
X184042000Y-103326000D03*
%TO.P,SW1,2,2*%
%TO.N,/PANIC*%
X179542000Y-96826000D03*
X179542000Y-103326000D03*
%TD*%
D10*
%TO.P,R2,1*%
%TO.N,/TERMINATE*%
X172684000Y-116026000D03*
%TO.P,R2,2*%
%TO.N,GND*%
X172684000Y-126186000D03*
%TD*%
D16*
%TO.P,C1,1*%
%TO.N,/POWER*%
X170688000Y-83566000D03*
D17*
%TO.P,C1,2*%
%TO.N,GND*%
X174188000Y-83566000D03*
%TD*%
D15*
%TO.P,SW2,1,1*%
%TO.N,+3V3*%
X184114000Y-116384000D03*
X184114000Y-122884000D03*
%TO.P,SW2,2,2*%
%TO.N,/TERMINATE*%
X179614000Y-116384000D03*
X179614000Y-122884000D03*
%TD*%
D18*
%TO.P,P1,1,input*%
%TO.N,+7.5V*%
X184404000Y-160528000D03*
D19*
%TO.P,P1,2,GND*%
%TO.N,GND*%
X184404000Y-142748000D03*
%TO.P,P1,3,output*%
%TO.N,+4V*%
X143764000Y-160528000D03*
%TO.P,P1,4,GND*%
%TO.N,GND*%
X143764000Y-142748000D03*
%TD*%
D12*
%TO.P,U2,1,VCC*%
%TO.N,+4V*%
X133858000Y-138430000D03*
%TO.P,U2,2,RST*%
%TO.N,unconnected-(U2-RST-Pad2)*%
X131318000Y-138430000D03*
%TO.P,U2,3,RXD*%
%TO.N,/RXGSM*%
X128778000Y-138430000D03*
%TO.P,U2,4,TXD*%
%TO.N,/TXGSM*%
X126238000Y-138430000D03*
%TO.P,U2,5,GND*%
%TO.N,GND*%
X123698000Y-138430000D03*
%TO.P,U2,6,SPKN*%
%TO.N,unconnected-(U2-SPKN-Pad6)*%
X121158000Y-160350000D03*
%TO.P,U2,7,SPKP*%
%TO.N,unconnected-(U2-SPKP-Pad7)*%
X123698000Y-160350000D03*
%TO.P,U2,8,MICN*%
%TO.N,unconnected-(U2-MICN-Pad8)*%
X126238000Y-160350000D03*
%TO.P,U2,9,MICP*%
%TO.N,unconnected-(U2-MICP-Pad9)*%
X128778000Y-160350000D03*
%TO.P,U2,10,DTR*%
%TO.N,unconnected-(U2-DTR-Pad10)*%
X131318000Y-160350000D03*
%TO.P,U2,11,RING*%
%TO.N,unconnected-(U2-RING-Pad11)*%
X133858000Y-160350000D03*
%TD*%
D10*
%TO.P,R3,1*%
%TO.N,Net-(J3-Pin_2)*%
X132334000Y-118872000D03*
D20*
%TO.P,R3,2*%
%TO.N,GND*%
X132334000Y-129032000D03*
%TD*%
D13*
%TO.P,J1,1,Pin_1*%
%TO.N,GND*%
X120142000Y-103124000D03*
D12*
%TO.P,J1,2,Pin_2*%
%TO.N,/TXGPS*%
X122682000Y-103124000D03*
%TO.P,J1,3,Pin_3*%
%TO.N,/RXGPS*%
X125222000Y-103124000D03*
%TO.P,J1,4,Pin_4*%
%TO.N,+3V3*%
X127762000Y-103124000D03*
%TD*%
D16*
%TO.P,C2,1*%
%TO.N,+3V3*%
X132842000Y-107442000D03*
D12*
%TO.P,C2,2*%
%TO.N,GND*%
X132842000Y-110942000D03*
%TD*%
%TO.P,J5,1,Pin_1*%
%TO.N,/POWER*%
X102860000Y-149803000D03*
%TO.P,J5,2,Pin_2*%
%TO.N,/DISP_SCL*%
X105400000Y-149803000D03*
%TO.P,J5,3,Pin_3*%
%TO.N,/DISP_SDA*%
X107940000Y-149803000D03*
D13*
%TO.P,J5,4,Pin_4*%
%TO.N,GND*%
X110480000Y-149803000D03*
%TD*%
D21*
%TO.N,/POWER*%
X149098000Y-146304000D03*
X102870000Y-146304000D03*
%TO.N,+3V3*%
X128270000Y-100076000D03*
X131064000Y-97282000D03*
%TO.N,/RED*%
X136398000Y-129286000D03*
X128016000Y-121158000D03*
%TO.N,/TXGSM*%
X161544000Y-108966000D03*
X145542000Y-108966000D03*
%TD*%
D22*
%TO.N,/POWER*%
X102870000Y-146304000D02*
X102870000Y-149793000D01*
X158745000Y-138689000D02*
X158745000Y-138430000D01*
X158745000Y-138430000D02*
X158745000Y-95763000D01*
X102870000Y-149793000D02*
X102860000Y-149803000D01*
X158745000Y-95763000D02*
X160782000Y-93726000D01*
X149098000Y-146304000D02*
X151130000Y-146304000D01*
X160782000Y-93726000D02*
X165354000Y-93726000D01*
X165354000Y-91694000D02*
X170688000Y-86360000D01*
X170688000Y-86360000D02*
X170688000Y-83566000D01*
X151130000Y-146304000D02*
X158745000Y-138689000D01*
X165354000Y-93726000D02*
X165354000Y-91694000D01*
D23*
%TO.N,+3V3*%
X169672000Y-80264000D02*
X176022000Y-80264000D01*
X184042000Y-116312000D02*
X184114000Y-116384000D01*
X184042000Y-88284000D02*
X184042000Y-96826000D01*
X127762000Y-103124000D02*
X131800386Y-107162386D01*
X184042000Y-103326000D02*
X184042000Y-116312000D01*
X127762000Y-100584000D02*
X128270000Y-100076000D01*
X127762000Y-103124000D02*
X127762000Y-100584000D01*
X131064000Y-97282000D02*
X134620000Y-93726000D01*
X134620000Y-93726000D02*
X140029000Y-93726000D01*
X131800386Y-107162386D02*
X132675470Y-107162386D01*
X140029000Y-93726000D02*
X146125000Y-87630000D01*
X184114000Y-116384000D02*
X184114000Y-122884000D01*
X146125000Y-87630000D02*
X162306000Y-87630000D01*
X162306000Y-87630000D02*
X169672000Y-80264000D01*
X184042000Y-96826000D02*
X184042000Y-103326000D01*
X176022000Y-80264000D02*
X184042000Y-88284000D01*
D24*
%TO.N,/TXGPS*%
X137160000Y-106426000D02*
X139954000Y-106426000D01*
X122682000Y-100584000D02*
X124714000Y-98552000D01*
X122682000Y-103124000D02*
X122682000Y-100584000D01*
X129286000Y-98552000D02*
X137160000Y-106426000D01*
X124714000Y-98552000D02*
X129286000Y-98552000D01*
%TO.N,/RXGPS*%
X125222000Y-103124000D02*
X131064000Y-108966000D01*
X131064000Y-108966000D02*
X139954000Y-108966000D01*
D22*
%TO.N,+7.5V*%
X177292000Y-154178000D02*
X183642000Y-160528000D01*
X177292000Y-136906000D02*
X177292000Y-154178000D01*
X183642000Y-160528000D02*
X184404000Y-160528000D01*
X177292000Y-136906000D02*
X162809000Y-136906000D01*
X184277000Y-160401000D02*
X183642000Y-160401000D01*
X184404000Y-160528000D02*
X184277000Y-160401000D01*
X162809000Y-136906000D02*
X161285000Y-138430000D01*
D24*
%TO.N,Net-(J3-Pin_2)*%
X123698000Y-117856000D02*
X131318000Y-117856000D01*
X122936000Y-118618000D02*
X123698000Y-117856000D01*
X131318000Y-117856000D02*
X132334000Y-118872000D01*
%TO.N,/BLUE*%
X122936000Y-113538000D02*
X125984000Y-113538000D01*
X125984000Y-113538000D02*
X126492000Y-114046000D01*
X126492000Y-114046000D02*
X139954000Y-114046000D01*
%TO.N,/RED*%
X136398000Y-129286000D02*
X139954000Y-129286000D01*
X122936000Y-121158000D02*
X128016000Y-121158000D01*
%TO.N,/GREEN*%
X126238000Y-115062000D02*
X135128000Y-115062000D01*
X136652000Y-116586000D02*
X139954000Y-116586000D01*
X135128000Y-115062000D02*
X136652000Y-116586000D01*
X122936000Y-116078000D02*
X125222000Y-116078000D01*
X125222000Y-116078000D02*
X126238000Y-115062000D01*
%TO.N,/DISP_SDA*%
X136906000Y-125984000D02*
X137668000Y-126746000D01*
X107940000Y-149803000D02*
X107940000Y-148600000D01*
X107940000Y-148600000D02*
X130556000Y-125984000D01*
X137668000Y-126746000D02*
X139954000Y-126746000D01*
X130556000Y-125984000D02*
X136906000Y-125984000D01*
%TO.N,/DISP_SCL*%
X129794000Y-123698000D02*
X132588000Y-123698000D01*
X105400000Y-148092000D02*
X129794000Y-123698000D01*
X105400000Y-149803000D02*
X105400000Y-148092000D01*
X132588000Y-123698000D02*
X137160000Y-119126000D01*
X137160000Y-119126000D02*
X139954000Y-119126000D01*
D22*
%TO.N,+4V*%
X143764000Y-151130000D02*
X139446000Y-146812000D01*
X135128000Y-138430000D02*
X133858000Y-138430000D01*
X139446000Y-146812000D02*
X139446000Y-142748000D01*
X143764000Y-160528000D02*
X143764000Y-151130000D01*
X139446000Y-142748000D02*
X135128000Y-138430000D01*
D24*
%TO.N,/PANIC*%
X172720000Y-109220000D02*
X169672000Y-112268000D01*
X179542000Y-103326000D02*
X173648000Y-109220000D01*
X173648000Y-109220000D02*
X172720000Y-109220000D01*
X179542000Y-96826000D02*
X179542000Y-103326000D01*
X169672000Y-116840000D02*
X167386000Y-119126000D01*
X167386000Y-119126000D02*
X165354000Y-119126000D01*
X169672000Y-112268000D02*
X169672000Y-116840000D01*
%TO.N,/TERMINATE*%
X173042000Y-116384000D02*
X172684000Y-116026000D01*
X169164000Y-121666000D02*
X165354000Y-121666000D01*
X179614000Y-122884000D02*
X179614000Y-116384000D01*
X172684000Y-116026000D02*
X171450000Y-117260000D01*
X171450000Y-117260000D02*
X171450000Y-119380000D01*
X171450000Y-119380000D02*
X169164000Y-121666000D01*
X179614000Y-116384000D02*
X173042000Y-116384000D01*
%TO.N,/RXGSM*%
X141732000Y-135636000D02*
X147828000Y-129540000D01*
X147828000Y-104648000D02*
X141986000Y-98806000D01*
X130048000Y-135636000D02*
X141732000Y-135636000D01*
X141986000Y-98806000D02*
X139954000Y-98806000D01*
X147828000Y-129540000D02*
X147828000Y-104648000D01*
X128778000Y-136906000D02*
X130048000Y-135636000D01*
X128778000Y-138430000D02*
X128778000Y-136906000D01*
%TO.N,/TXGSM*%
X140208000Y-133604000D02*
X145542000Y-128270000D01*
X145542000Y-128270000D02*
X145542000Y-108966000D01*
X161544000Y-108966000D02*
X165354000Y-108966000D01*
X126238000Y-138430000D02*
X126238000Y-136398000D01*
X126238000Y-136398000D02*
X129032000Y-133604000D01*
X129032000Y-133604000D02*
X140208000Y-133604000D01*
%TD*%
%TA.AperFunction,Conductor*%
%TO.N,GND*%
G36*
X186386303Y-76213449D02*
G01*
X186432177Y-76266149D01*
X186443500Y-76317916D01*
X186443500Y-162696609D01*
X186423815Y-162763648D01*
X186371011Y-162809403D01*
X186319323Y-162820609D01*
X98414323Y-162695388D01*
X98347312Y-162675608D01*
X98301632Y-162622739D01*
X98290500Y-162571388D01*
X98290500Y-159993713D01*
X119807500Y-159993713D01*
X119807500Y-160706287D01*
X119840754Y-160916243D01*
X119884647Y-161051332D01*
X119906444Y-161118414D01*
X120002951Y-161307820D01*
X120127890Y-161479786D01*
X120278213Y-161630109D01*
X120450179Y-161755048D01*
X120450181Y-161755049D01*
X120450184Y-161755051D01*
X120639588Y-161851557D01*
X120841757Y-161917246D01*
X121051713Y-161950500D01*
X121051714Y-161950500D01*
X121264286Y-161950500D01*
X121264287Y-161950500D01*
X121474243Y-161917246D01*
X121676412Y-161851557D01*
X121865816Y-161755051D01*
X121892558Y-161735622D01*
X122037786Y-161630109D01*
X122037788Y-161630106D01*
X122037792Y-161630104D01*
X122188104Y-161479792D01*
X122188106Y-161479788D01*
X122188109Y-161479786D01*
X122313048Y-161307820D01*
X122313047Y-161307820D01*
X122313051Y-161307816D01*
X122317514Y-161299054D01*
X122365488Y-161248259D01*
X122433308Y-161231463D01*
X122499444Y-161253999D01*
X122538486Y-161299056D01*
X122542951Y-161307820D01*
X122667890Y-161479786D01*
X122818213Y-161630109D01*
X122990179Y-161755048D01*
X122990181Y-161755049D01*
X122990184Y-161755051D01*
X123179588Y-161851557D01*
X123381757Y-161917246D01*
X123591713Y-161950500D01*
X123591714Y-161950500D01*
X123804286Y-161950500D01*
X123804287Y-161950500D01*
X124014243Y-161917246D01*
X124216412Y-161851557D01*
X124405816Y-161755051D01*
X124432558Y-161735622D01*
X124577786Y-161630109D01*
X124577788Y-161630106D01*
X124577792Y-161630104D01*
X124728104Y-161479792D01*
X124728106Y-161479788D01*
X124728109Y-161479786D01*
X124853048Y-161307820D01*
X124853047Y-161307820D01*
X124853051Y-161307816D01*
X124857514Y-161299054D01*
X124905488Y-161248259D01*
X124973308Y-161231463D01*
X125039444Y-161253999D01*
X125078486Y-161299056D01*
X125082951Y-161307820D01*
X125207890Y-161479786D01*
X125358213Y-161630109D01*
X125530179Y-161755048D01*
X125530181Y-161755049D01*
X125530184Y-161755051D01*
X125719588Y-161851557D01*
X125921757Y-161917246D01*
X126131713Y-161950500D01*
X126131714Y-161950500D01*
X126344286Y-161950500D01*
X126344287Y-161950500D01*
X126554243Y-161917246D01*
X126756412Y-161851557D01*
X126945816Y-161755051D01*
X126972558Y-161735622D01*
X127117786Y-161630109D01*
X127117788Y-161630106D01*
X127117792Y-161630104D01*
X127268104Y-161479792D01*
X127268106Y-161479788D01*
X127268109Y-161479786D01*
X127393048Y-161307820D01*
X127393047Y-161307820D01*
X127393051Y-161307816D01*
X127397514Y-161299054D01*
X127445488Y-161248259D01*
X127513308Y-161231463D01*
X127579444Y-161253999D01*
X127618486Y-161299056D01*
X127622951Y-161307820D01*
X127747890Y-161479786D01*
X127898213Y-161630109D01*
X128070179Y-161755048D01*
X128070181Y-161755049D01*
X128070184Y-161755051D01*
X128259588Y-161851557D01*
X128461757Y-161917246D01*
X128671713Y-161950500D01*
X128671714Y-161950500D01*
X128884286Y-161950500D01*
X128884287Y-161950500D01*
X129094243Y-161917246D01*
X129296412Y-161851557D01*
X129485816Y-161755051D01*
X129512558Y-161735622D01*
X129657786Y-161630109D01*
X129657788Y-161630106D01*
X129657792Y-161630104D01*
X129808104Y-161479792D01*
X129808106Y-161479788D01*
X129808109Y-161479786D01*
X129933048Y-161307820D01*
X129933047Y-161307820D01*
X129933051Y-161307816D01*
X129937514Y-161299054D01*
X129985488Y-161248259D01*
X130053308Y-161231463D01*
X130119444Y-161253999D01*
X130158486Y-161299056D01*
X130162951Y-161307820D01*
X130287890Y-161479786D01*
X130438213Y-161630109D01*
X130610179Y-161755048D01*
X130610181Y-161755049D01*
X130610184Y-161755051D01*
X130799588Y-161851557D01*
X131001757Y-161917246D01*
X131211713Y-161950500D01*
X131211714Y-161950500D01*
X131424286Y-161950500D01*
X131424287Y-161950500D01*
X131634243Y-161917246D01*
X131836412Y-161851557D01*
X132025816Y-161755051D01*
X132052558Y-161735622D01*
X132197786Y-161630109D01*
X132197788Y-161630106D01*
X132197792Y-161630104D01*
X132348104Y-161479792D01*
X132348106Y-161479788D01*
X132348109Y-161479786D01*
X132473048Y-161307820D01*
X132473047Y-161307820D01*
X132473051Y-161307816D01*
X132477514Y-161299054D01*
X132525488Y-161248259D01*
X132593308Y-161231463D01*
X132659444Y-161253999D01*
X132698486Y-161299056D01*
X132702951Y-161307820D01*
X132827890Y-161479786D01*
X132978213Y-161630109D01*
X133150179Y-161755048D01*
X133150181Y-161755049D01*
X133150184Y-161755051D01*
X133339588Y-161851557D01*
X133541757Y-161917246D01*
X133751713Y-161950500D01*
X133751714Y-161950500D01*
X133964286Y-161950500D01*
X133964287Y-161950500D01*
X134174243Y-161917246D01*
X134376412Y-161851557D01*
X134565816Y-161755051D01*
X134592558Y-161735622D01*
X134737786Y-161630109D01*
X134737788Y-161630106D01*
X134737792Y-161630104D01*
X134888104Y-161479792D01*
X134888106Y-161479788D01*
X134888109Y-161479786D01*
X135013048Y-161307820D01*
X135013047Y-161307820D01*
X135013051Y-161307816D01*
X135109557Y-161118412D01*
X135175246Y-160916243D01*
X135208500Y-160706287D01*
X135208500Y-159993713D01*
X135175246Y-159783757D01*
X135109557Y-159581588D01*
X135013051Y-159392184D01*
X135013049Y-159392181D01*
X135013048Y-159392179D01*
X134888109Y-159220213D01*
X134737786Y-159069890D01*
X134565820Y-158944951D01*
X134376414Y-158848444D01*
X134376413Y-158848443D01*
X134376412Y-158848443D01*
X134174243Y-158782754D01*
X134174241Y-158782753D01*
X134174240Y-158782753D01*
X134012957Y-158757208D01*
X133964287Y-158749500D01*
X133751713Y-158749500D01*
X133703042Y-158757208D01*
X133541760Y-158782753D01*
X133339585Y-158848444D01*
X133150179Y-158944951D01*
X132978213Y-159069890D01*
X132827890Y-159220213D01*
X132702949Y-159392182D01*
X132698484Y-159400946D01*
X132650509Y-159451742D01*
X132582688Y-159468536D01*
X132516553Y-159445998D01*
X132477516Y-159400946D01*
X132473050Y-159392182D01*
X132348109Y-159220213D01*
X132197786Y-159069890D01*
X132025820Y-158944951D01*
X131836414Y-158848444D01*
X131836413Y-158848443D01*
X131836412Y-158848443D01*
X131634243Y-158782754D01*
X131634241Y-158782753D01*
X131634240Y-158782753D01*
X131472957Y-158757208D01*
X131424287Y-158749500D01*
X131211713Y-158749500D01*
X131163042Y-158757208D01*
X131001760Y-158782753D01*
X130799585Y-158848444D01*
X130610179Y-158944951D01*
X130438213Y-159069890D01*
X130287890Y-159220213D01*
X130162949Y-159392182D01*
X130158484Y-159400946D01*
X130110509Y-159451742D01*
X130042688Y-159468536D01*
X129976553Y-159445998D01*
X129937516Y-159400946D01*
X129933050Y-159392182D01*
X129808109Y-159220213D01*
X129657786Y-159069890D01*
X129485820Y-158944951D01*
X129296414Y-158848444D01*
X129296413Y-158848443D01*
X129296412Y-158848443D01*
X129094243Y-158782754D01*
X129094241Y-158782753D01*
X129094240Y-158782753D01*
X128932957Y-158757208D01*
X128884287Y-158749500D01*
X128671713Y-158749500D01*
X128623042Y-158757208D01*
X128461760Y-158782753D01*
X128259585Y-158848444D01*
X128070179Y-158944951D01*
X127898213Y-159069890D01*
X127747890Y-159220213D01*
X127622949Y-159392182D01*
X127618484Y-159400946D01*
X127570509Y-159451742D01*
X127502688Y-159468536D01*
X127436553Y-159445998D01*
X127397516Y-159400946D01*
X127393050Y-159392182D01*
X127268109Y-159220213D01*
X127117786Y-159069890D01*
X126945820Y-158944951D01*
X126756414Y-158848444D01*
X126756413Y-158848443D01*
X126756412Y-158848443D01*
X126554243Y-158782754D01*
X126554241Y-158782753D01*
X126554240Y-158782753D01*
X126392957Y-158757208D01*
X126344287Y-158749500D01*
X126131713Y-158749500D01*
X126083042Y-158757208D01*
X125921760Y-158782753D01*
X125719585Y-158848444D01*
X125530179Y-158944951D01*
X125358213Y-159069890D01*
X125207890Y-159220213D01*
X125082949Y-159392182D01*
X125078484Y-159400946D01*
X125030509Y-159451742D01*
X124962688Y-159468536D01*
X124896553Y-159445998D01*
X124857516Y-159400946D01*
X124853050Y-159392182D01*
X124728109Y-159220213D01*
X124577786Y-159069890D01*
X124405820Y-158944951D01*
X124216414Y-158848444D01*
X124216413Y-158848443D01*
X124216412Y-158848443D01*
X124014243Y-158782754D01*
X124014241Y-158782753D01*
X124014240Y-158782753D01*
X123852957Y-158757208D01*
X123804287Y-158749500D01*
X123591713Y-158749500D01*
X123543042Y-158757208D01*
X123381760Y-158782753D01*
X123179585Y-158848444D01*
X122990179Y-158944951D01*
X122818213Y-159069890D01*
X122667890Y-159220213D01*
X122542949Y-159392182D01*
X122538484Y-159400946D01*
X122490509Y-159451742D01*
X122422688Y-159468536D01*
X122356553Y-159445998D01*
X122317516Y-159400946D01*
X122313050Y-159392182D01*
X122188109Y-159220213D01*
X122037786Y-159069890D01*
X121865820Y-158944951D01*
X121676414Y-158848444D01*
X121676413Y-158848443D01*
X121676412Y-158848443D01*
X121474243Y-158782754D01*
X121474241Y-158782753D01*
X121474240Y-158782753D01*
X121312957Y-158757208D01*
X121264287Y-158749500D01*
X121051713Y-158749500D01*
X121003042Y-158757208D01*
X120841760Y-158782753D01*
X120639585Y-158848444D01*
X120450179Y-158944951D01*
X120278213Y-159069890D01*
X120127890Y-159220213D01*
X120002951Y-159392179D01*
X119906444Y-159581585D01*
X119840753Y-159783760D01*
X119807500Y-159993713D01*
X98290500Y-159993713D01*
X98290500Y-149446713D01*
X101509500Y-149446713D01*
X101509500Y-150159286D01*
X101542753Y-150369239D01*
X101608444Y-150571414D01*
X101704951Y-150760820D01*
X101829890Y-150932786D01*
X101980213Y-151083109D01*
X102152179Y-151208048D01*
X102152181Y-151208049D01*
X102152184Y-151208051D01*
X102341588Y-151304557D01*
X102543757Y-151370246D01*
X102753713Y-151403500D01*
X102753714Y-151403500D01*
X102966286Y-151403500D01*
X102966287Y-151403500D01*
X103176243Y-151370246D01*
X103378412Y-151304557D01*
X103567816Y-151208051D01*
X103643589Y-151152999D01*
X103739786Y-151083109D01*
X103739788Y-151083106D01*
X103739792Y-151083104D01*
X103890104Y-150932792D01*
X103890106Y-150932788D01*
X103890109Y-150932786D01*
X104015048Y-150760820D01*
X104015047Y-150760820D01*
X104015051Y-150760816D01*
X104019514Y-150752054D01*
X104067488Y-150701259D01*
X104135308Y-150684463D01*
X104201444Y-150706999D01*
X104240486Y-150752056D01*
X104244951Y-150760820D01*
X104369890Y-150932786D01*
X104520213Y-151083109D01*
X104692179Y-151208048D01*
X104692181Y-151208049D01*
X104692184Y-151208051D01*
X104881588Y-151304557D01*
X105083757Y-151370246D01*
X105293713Y-151403500D01*
X105293714Y-151403500D01*
X105506286Y-151403500D01*
X105506287Y-151403500D01*
X105716243Y-151370246D01*
X105918412Y-151304557D01*
X106107816Y-151208051D01*
X106183589Y-151152999D01*
X106279786Y-151083109D01*
X106279788Y-151083106D01*
X106279792Y-151083104D01*
X106430104Y-150932792D01*
X106430106Y-150932788D01*
X106430109Y-150932786D01*
X106555048Y-150760820D01*
X106555047Y-150760820D01*
X106555051Y-150760816D01*
X106559514Y-150752054D01*
X106607488Y-150701259D01*
X106675308Y-150684463D01*
X106741444Y-150706999D01*
X106780486Y-150752056D01*
X106784951Y-150760820D01*
X106909890Y-150932786D01*
X107060213Y-151083109D01*
X107232179Y-151208048D01*
X107232181Y-151208049D01*
X107232184Y-151208051D01*
X107421588Y-151304557D01*
X107623757Y-151370246D01*
X107833713Y-151403500D01*
X107833714Y-151403500D01*
X108046286Y-151403500D01*
X108046287Y-151403500D01*
X108256243Y-151370246D01*
X108458412Y-151304557D01*
X108647816Y-151208051D01*
X108723589Y-151152999D01*
X108819786Y-151083109D01*
X108819788Y-151083106D01*
X108819792Y-151083104D01*
X108970104Y-150932792D01*
X108991830Y-150902887D01*
X109047160Y-150860221D01*
X109116773Y-150854240D01*
X109178569Y-150886845D01*
X109191417Y-150901460D01*
X109272813Y-151010190D01*
X109387906Y-151096350D01*
X109387913Y-151096354D01*
X109522620Y-151146596D01*
X109522627Y-151146598D01*
X109582155Y-151152999D01*
X109582172Y-151153000D01*
X110230000Y-151153000D01*
X110230000Y-150236012D01*
X110287007Y-150268925D01*
X110414174Y-150303000D01*
X110545826Y-150303000D01*
X110672993Y-150268925D01*
X110730000Y-150236012D01*
X110730000Y-151153000D01*
X111377828Y-151153000D01*
X111377844Y-151152999D01*
X111437372Y-151146598D01*
X111437379Y-151146596D01*
X111572086Y-151096354D01*
X111572093Y-151096350D01*
X111687187Y-151010190D01*
X111687190Y-151010187D01*
X111773350Y-150895093D01*
X111773354Y-150895086D01*
X111823596Y-150760379D01*
X111823598Y-150760372D01*
X111829999Y-150700844D01*
X111830000Y-150700827D01*
X111830000Y-150053000D01*
X110913012Y-150053000D01*
X110945925Y-149995993D01*
X110980000Y-149868826D01*
X110980000Y-149737174D01*
X110945925Y-149610007D01*
X110913012Y-149553000D01*
X111830000Y-149553000D01*
X111830000Y-148905172D01*
X111829999Y-148905155D01*
X111823598Y-148845627D01*
X111823596Y-148845620D01*
X111773354Y-148710913D01*
X111773350Y-148710906D01*
X111687190Y-148595812D01*
X111687187Y-148595809D01*
X111572093Y-148509649D01*
X111572086Y-148509645D01*
X111437379Y-148459403D01*
X111437372Y-148459401D01*
X111377844Y-148453000D01*
X110730000Y-148453000D01*
X110730000Y-149369988D01*
X110672993Y-149337075D01*
X110545826Y-149303000D01*
X110414174Y-149303000D01*
X110287007Y-149337075D01*
X110230000Y-149369988D01*
X110230000Y-148453000D01*
X109582155Y-148453000D01*
X109522627Y-148459401D01*
X109522620Y-148459403D01*
X109387913Y-148509645D01*
X109387906Y-148509649D01*
X109272812Y-148595809D01*
X109191416Y-148704540D01*
X109135482Y-148746410D01*
X109065791Y-148751394D01*
X109004468Y-148717908D01*
X108991831Y-148703113D01*
X108970109Y-148673215D01*
X108970104Y-148673208D01*
X108966102Y-148669206D01*
X108932617Y-148607883D01*
X108937601Y-148538191D01*
X108966102Y-148493844D01*
X128677947Y-128781999D01*
X131055127Y-128781999D01*
X131055128Y-128782000D01*
X132018314Y-128782000D01*
X132013920Y-128786394D01*
X131961259Y-128877606D01*
X131934000Y-128979339D01*
X131934000Y-129084661D01*
X131961259Y-129186394D01*
X132013920Y-129277606D01*
X132018314Y-129282000D01*
X131055128Y-129282000D01*
X131107730Y-129478317D01*
X131107734Y-129478326D01*
X131203865Y-129684482D01*
X131334342Y-129870820D01*
X131495179Y-130031657D01*
X131681517Y-130162134D01*
X131887673Y-130258265D01*
X131887682Y-130258269D01*
X132083999Y-130310872D01*
X132084000Y-130310871D01*
X132084000Y-129347686D01*
X132088394Y-129352080D01*
X132179606Y-129404741D01*
X132281339Y-129432000D01*
X132386661Y-129432000D01*
X132488394Y-129404741D01*
X132579606Y-129352080D01*
X132584000Y-129347686D01*
X132584000Y-130310872D01*
X132780317Y-130258269D01*
X132780326Y-130258265D01*
X132986482Y-130162134D01*
X133172820Y-130031657D01*
X133333657Y-129870820D01*
X133464134Y-129684482D01*
X133560265Y-129478326D01*
X133560269Y-129478317D01*
X133612872Y-129282000D01*
X132649686Y-129282000D01*
X132654080Y-129277606D01*
X132706741Y-129186394D01*
X132734000Y-129084661D01*
X132734000Y-128979339D01*
X132706741Y-128877606D01*
X132654080Y-128786394D01*
X132649686Y-128782000D01*
X133612872Y-128782000D01*
X133612872Y-128781999D01*
X133560269Y-128585682D01*
X133560265Y-128585673D01*
X133464134Y-128379517D01*
X133333657Y-128193179D01*
X133172820Y-128032342D01*
X132986482Y-127901865D01*
X132780328Y-127805734D01*
X132584000Y-127753127D01*
X132584000Y-128716314D01*
X132579606Y-128711920D01*
X132488394Y-128659259D01*
X132386661Y-128632000D01*
X132281339Y-128632000D01*
X132179606Y-128659259D01*
X132088394Y-128711920D01*
X132084000Y-128716314D01*
X132084000Y-127753127D01*
X131887671Y-127805734D01*
X131681517Y-127901865D01*
X131495179Y-128032342D01*
X131334342Y-128193179D01*
X131203865Y-128379517D01*
X131107734Y-128585673D01*
X131107730Y-128585682D01*
X131055127Y-128781999D01*
X128677947Y-128781999D01*
X130789127Y-126670819D01*
X130850450Y-126637334D01*
X130876808Y-126634500D01*
X136585192Y-126634500D01*
X136652231Y-126654185D01*
X136672873Y-126670819D01*
X137253325Y-127251272D01*
X137253326Y-127251273D01*
X137253329Y-127251275D01*
X137253331Y-127251277D01*
X137359873Y-127322465D01*
X137478256Y-127371501D01*
X137478260Y-127371501D01*
X137478261Y-127371502D01*
X137603928Y-127396500D01*
X137603931Y-127396500D01*
X138314899Y-127396500D01*
X138381938Y-127416185D01*
X138415217Y-127447615D01*
X138503019Y-127568464D01*
X138643536Y-127708981D01*
X138804306Y-127825787D01*
X138922832Y-127886179D01*
X138960780Y-127905515D01*
X139011576Y-127953490D01*
X139028371Y-128021311D01*
X139005833Y-128087446D01*
X138960780Y-128126485D01*
X138804305Y-128206213D01*
X138643533Y-128323021D01*
X138503021Y-128463533D01*
X138503016Y-128463539D01*
X138415217Y-128584385D01*
X138359887Y-128627051D01*
X138314899Y-128635500D01*
X137533644Y-128635500D01*
X137466605Y-128615815D01*
X137432069Y-128582623D01*
X137359599Y-128479124D01*
X137305331Y-128424856D01*
X137204877Y-128324402D01*
X137025639Y-128198898D01*
X137025640Y-128198898D01*
X137025638Y-128198897D01*
X136909338Y-128144666D01*
X136827330Y-128106425D01*
X136827326Y-128106424D01*
X136827322Y-128106422D01*
X136615977Y-128049793D01*
X136398002Y-128030723D01*
X136397998Y-128030723D01*
X136252682Y-128043436D01*
X136180023Y-128049793D01*
X136180020Y-128049793D01*
X135968677Y-128106422D01*
X135968668Y-128106426D01*
X135770361Y-128198898D01*
X135770357Y-128198900D01*
X135591121Y-128324402D01*
X135436402Y-128479121D01*
X135310900Y-128658357D01*
X135310898Y-128658361D01*
X135218426Y-128856668D01*
X135218422Y-128856677D01*
X135161793Y-129068020D01*
X135161793Y-129068024D01*
X135142723Y-129285997D01*
X135142723Y-129286002D01*
X135161793Y-129503975D01*
X135161793Y-129503979D01*
X135218422Y-129715322D01*
X135218424Y-129715326D01*
X135218425Y-129715330D01*
X135244211Y-129770629D01*
X135310897Y-129913638D01*
X135310898Y-129913639D01*
X135436402Y-130092877D01*
X135591123Y-130247598D01*
X135770361Y-130373102D01*
X135968670Y-130465575D01*
X136180023Y-130522207D01*
X136362926Y-130538208D01*
X136397998Y-130541277D01*
X136398000Y-130541277D01*
X136398002Y-130541277D01*
X136426254Y-130538805D01*
X136615977Y-130522207D01*
X136827330Y-130465575D01*
X137025639Y-130373102D01*
X137204877Y-130247598D01*
X137359598Y-130092877D01*
X137432071Y-129989374D01*
X137486647Y-129945751D01*
X137533645Y-129936500D01*
X138314899Y-129936500D01*
X138381938Y-129956185D01*
X138415217Y-129987615D01*
X138491694Y-130092877D01*
X138503019Y-130108464D01*
X138643536Y-130248981D01*
X138804306Y-130365787D01*
X138891149Y-130410035D01*
X138981367Y-130456005D01*
X138981370Y-130456006D01*
X139075866Y-130486709D01*
X139170364Y-130517413D01*
X139366639Y-130548500D01*
X139366640Y-130548500D01*
X140541360Y-130548500D01*
X140541361Y-130548500D01*
X140737636Y-130517413D01*
X140926632Y-130456005D01*
X141103694Y-130365787D01*
X141264464Y-130248981D01*
X141404981Y-130108464D01*
X141521787Y-129947694D01*
X141612005Y-129770632D01*
X141673413Y-129581636D01*
X141704500Y-129385361D01*
X141704500Y-129186639D01*
X141673413Y-128990364D01*
X141612005Y-128801368D01*
X141612005Y-128801367D01*
X141552545Y-128684672D01*
X141521787Y-128624306D01*
X141404981Y-128463536D01*
X141264464Y-128323019D01*
X141103694Y-128206213D01*
X140947218Y-128126484D01*
X140896423Y-128078510D01*
X140879628Y-128010689D01*
X140902165Y-127944554D01*
X140947218Y-127905515D01*
X141103694Y-127825787D01*
X141264464Y-127708981D01*
X141404981Y-127568464D01*
X141521787Y-127407694D01*
X141612005Y-127230632D01*
X141673413Y-127041636D01*
X141704500Y-126845361D01*
X141704500Y-126646639D01*
X141673413Y-126450364D01*
X141612005Y-126261368D01*
X141612005Y-126261367D01*
X141566035Y-126171149D01*
X141521787Y-126084306D01*
X141404981Y-125923536D01*
X141264464Y-125783019D01*
X141103694Y-125666213D01*
X140947218Y-125586484D01*
X140896423Y-125538510D01*
X140879628Y-125470689D01*
X140902165Y-125404554D01*
X140947218Y-125365515D01*
X141103694Y-125285787D01*
X141264464Y-125168981D01*
X141404981Y-125028464D01*
X141521787Y-124867694D01*
X141612005Y-124690632D01*
X141673413Y-124501636D01*
X141704500Y-124305361D01*
X141704500Y-124106639D01*
X141673413Y-123910364D01*
X141612005Y-123721368D01*
X141612005Y-123721367D01*
X141521786Y-123544305D01*
X141404981Y-123383536D01*
X141264464Y-123243019D01*
X141103694Y-123126213D01*
X140947218Y-123046484D01*
X140896423Y-122998510D01*
X140879628Y-122930689D01*
X140902165Y-122864554D01*
X140947218Y-122825515D01*
X141103694Y-122745787D01*
X141264464Y-122628981D01*
X141404981Y-122488464D01*
X141521787Y-122327694D01*
X141612005Y-122150632D01*
X141673413Y-121961636D01*
X141704500Y-121765361D01*
X141704500Y-121566639D01*
X141673413Y-121370364D01*
X141612005Y-121181368D01*
X141612005Y-121181367D01*
X141566035Y-121091149D01*
X141521787Y-121004306D01*
X141404981Y-120843536D01*
X141264464Y-120703019D01*
X141103694Y-120586213D01*
X140947218Y-120506484D01*
X140896423Y-120458510D01*
X140879628Y-120390689D01*
X140902165Y-120324554D01*
X140947218Y-120285515D01*
X141103694Y-120205787D01*
X141264464Y-120088981D01*
X141404981Y-119948464D01*
X141521787Y-119787694D01*
X141612005Y-119610632D01*
X141673413Y-119421636D01*
X141704500Y-119225361D01*
X141704500Y-119026639D01*
X141673413Y-118830364D01*
X141638947Y-118724287D01*
X141612006Y-118641370D01*
X141612005Y-118641367D01*
X141540227Y-118500497D01*
X141521787Y-118464306D01*
X141404981Y-118303536D01*
X141264464Y-118163019D01*
X141103694Y-118046213D01*
X140947218Y-117966484D01*
X140896423Y-117918510D01*
X140879628Y-117850689D01*
X140902165Y-117784554D01*
X140947218Y-117745515D01*
X141103694Y-117665787D01*
X141264464Y-117548981D01*
X141404981Y-117408464D01*
X141521787Y-117247694D01*
X141612005Y-117070632D01*
X141612128Y-117070255D01*
X141623745Y-117034500D01*
X141673413Y-116881636D01*
X141704500Y-116685361D01*
X141704500Y-116486639D01*
X141673413Y-116290364D01*
X141638947Y-116184287D01*
X141612006Y-116101370D01*
X141612005Y-116101367D01*
X141545942Y-115971713D01*
X141521787Y-115924306D01*
X141404981Y-115763536D01*
X141264464Y-115623019D01*
X141103694Y-115506213D01*
X140947218Y-115426484D01*
X140896423Y-115378510D01*
X140879628Y-115310689D01*
X140902165Y-115244554D01*
X140947218Y-115205515D01*
X141103694Y-115125787D01*
X141264464Y-115008981D01*
X141404981Y-114868464D01*
X141521787Y-114707694D01*
X141612005Y-114530632D01*
X141673413Y-114341636D01*
X141704500Y-114145361D01*
X141704500Y-113946639D01*
X141673413Y-113750364D01*
X141638947Y-113644287D01*
X141612006Y-113561370D01*
X141612005Y-113561367D01*
X141545942Y-113431713D01*
X141521787Y-113384306D01*
X141404981Y-113223536D01*
X141264464Y-113083019D01*
X141103694Y-112966213D01*
X140947218Y-112886484D01*
X140896423Y-112838510D01*
X140879628Y-112770689D01*
X140902165Y-112704554D01*
X140947218Y-112665515D01*
X141103694Y-112585787D01*
X141264464Y-112468981D01*
X141404981Y-112328464D01*
X141521787Y-112167694D01*
X141612005Y-111990632D01*
X141673413Y-111801636D01*
X141704500Y-111605361D01*
X141704500Y-111406639D01*
X141673413Y-111210364D01*
X141612005Y-111021368D01*
X141612005Y-111021367D01*
X141566035Y-110931149D01*
X141521787Y-110844306D01*
X141404981Y-110683536D01*
X141264464Y-110543019D01*
X141103694Y-110426213D01*
X140947218Y-110346484D01*
X140896423Y-110298510D01*
X140879628Y-110230689D01*
X140902165Y-110164554D01*
X140947218Y-110125515D01*
X141103694Y-110045787D01*
X141264464Y-109928981D01*
X141404981Y-109788464D01*
X141521787Y-109627694D01*
X141612005Y-109450632D01*
X141673413Y-109261636D01*
X141704500Y-109065361D01*
X141704500Y-108866639D01*
X141673413Y-108670364D01*
X141629973Y-108536668D01*
X141612006Y-108481370D01*
X141612005Y-108481367D01*
X141529939Y-108320305D01*
X141521787Y-108304306D01*
X141404981Y-108143536D01*
X141264464Y-108003019D01*
X141103694Y-107886213D01*
X140947218Y-107806484D01*
X140896423Y-107758510D01*
X140879628Y-107690689D01*
X140902165Y-107624554D01*
X140947218Y-107585515D01*
X141103694Y-107505787D01*
X141264464Y-107388981D01*
X141404981Y-107248464D01*
X141521787Y-107087694D01*
X141612005Y-106910632D01*
X141673413Y-106721636D01*
X141704500Y-106525361D01*
X141704500Y-106326639D01*
X141673413Y-106130364D01*
X141612005Y-105941368D01*
X141612005Y-105941367D01*
X141566035Y-105851149D01*
X141521787Y-105764306D01*
X141404981Y-105603536D01*
X141264464Y-105463019D01*
X141103694Y-105346213D01*
X140947218Y-105266484D01*
X140896423Y-105218510D01*
X140879628Y-105150689D01*
X140902165Y-105084554D01*
X140947218Y-105045515D01*
X141103694Y-104965787D01*
X141264464Y-104848981D01*
X141404981Y-104708464D01*
X141521787Y-104547694D01*
X141612005Y-104370632D01*
X141673413Y-104181636D01*
X141704500Y-103985361D01*
X141704500Y-103786639D01*
X141673413Y-103590364D01*
X141621635Y-103431007D01*
X141612006Y-103401370D01*
X141612005Y-103401367D01*
X141521786Y-103224305D01*
X141404981Y-103063536D01*
X141264464Y-102923019D01*
X141103694Y-102806213D01*
X140947218Y-102726484D01*
X140896423Y-102678510D01*
X140879628Y-102610689D01*
X140902165Y-102544554D01*
X140947218Y-102505515D01*
X141103694Y-102425787D01*
X141264464Y-102308981D01*
X141404981Y-102168464D01*
X141521787Y-102007694D01*
X141612005Y-101830632D01*
X141673413Y-101641636D01*
X141704500Y-101445361D01*
X141704500Y-101246639D01*
X141673413Y-101050364D01*
X141642709Y-100955866D01*
X141612006Y-100861370D01*
X141612005Y-100861367D01*
X141566035Y-100771149D01*
X141521787Y-100684306D01*
X141404981Y-100523536D01*
X141264464Y-100383019D01*
X141103694Y-100266213D01*
X140947218Y-100186484D01*
X140896423Y-100138510D01*
X140879628Y-100070689D01*
X140902165Y-100004554D01*
X140947218Y-99965515D01*
X141103694Y-99885787D01*
X141264464Y-99768981D01*
X141404981Y-99628464D01*
X141492783Y-99507615D01*
X141548113Y-99464949D01*
X141593101Y-99456500D01*
X141665192Y-99456500D01*
X141732231Y-99476185D01*
X141752873Y-99492819D01*
X147141181Y-104881127D01*
X147174666Y-104942450D01*
X147177500Y-104968808D01*
X147177500Y-129219192D01*
X147157815Y-129286231D01*
X147141181Y-129306873D01*
X141498873Y-134949181D01*
X141437550Y-134982666D01*
X141411192Y-134985500D01*
X129983929Y-134985500D01*
X129858261Y-135010497D01*
X129858255Y-135010499D01*
X129739875Y-135059533D01*
X129739866Y-135059538D01*
X129633331Y-135130723D01*
X129633327Y-135130726D01*
X128272727Y-136491325D01*
X128272724Y-136491328D01*
X128233713Y-136549712D01*
X128233714Y-136549713D01*
X128201534Y-136597874D01*
X128152499Y-136716255D01*
X128152497Y-136716261D01*
X128127500Y-136841928D01*
X128127500Y-136920382D01*
X128107815Y-136987421D01*
X128073408Y-137021099D01*
X128074125Y-137022085D01*
X127898213Y-137149890D01*
X127747890Y-137300213D01*
X127622949Y-137472182D01*
X127618484Y-137480946D01*
X127570509Y-137531742D01*
X127502688Y-137548536D01*
X127436553Y-137525998D01*
X127397516Y-137480946D01*
X127393050Y-137472182D01*
X127268109Y-137300213D01*
X127117786Y-137149890D01*
X126941875Y-137022085D01*
X126942851Y-137020740D01*
X126900834Y-136974295D01*
X126888500Y-136920382D01*
X126888500Y-136718808D01*
X126908185Y-136651769D01*
X126924819Y-136631127D01*
X129265127Y-134290819D01*
X129326450Y-134257334D01*
X129352808Y-134254500D01*
X140272071Y-134254500D01*
X140356615Y-134237682D01*
X140397744Y-134229501D01*
X140516127Y-134180465D01*
X140622669Y-134109277D01*
X146047276Y-128684669D01*
X146118465Y-128578127D01*
X146167501Y-128459744D01*
X146174441Y-128424856D01*
X146192500Y-128334069D01*
X146192500Y-110101644D01*
X146212185Y-110034605D01*
X146245377Y-110000069D01*
X146267695Y-109984442D01*
X146348877Y-109927598D01*
X146503598Y-109772877D01*
X146629102Y-109593639D01*
X146721575Y-109395330D01*
X146778207Y-109183977D01*
X146797277Y-108966000D01*
X146796899Y-108961684D01*
X146787053Y-108849136D01*
X146778207Y-108748023D01*
X146721575Y-108536670D01*
X146629102Y-108338362D01*
X146629100Y-108338359D01*
X146629099Y-108338357D01*
X146503599Y-108159124D01*
X146469098Y-108124623D01*
X146348877Y-108004402D01*
X146180086Y-107886213D01*
X146169638Y-107878897D01*
X146026165Y-107811995D01*
X145971330Y-107786425D01*
X145971326Y-107786424D01*
X145971322Y-107786422D01*
X145759977Y-107729793D01*
X145542002Y-107710723D01*
X145541998Y-107710723D01*
X145396682Y-107723436D01*
X145324023Y-107729793D01*
X145324020Y-107729793D01*
X145112677Y-107786422D01*
X145112668Y-107786426D01*
X144914361Y-107878898D01*
X144914357Y-107878900D01*
X144735121Y-108004402D01*
X144580402Y-108159121D01*
X144454900Y-108338357D01*
X144454898Y-108338361D01*
X144362426Y-108536668D01*
X144362422Y-108536677D01*
X144305793Y-108748020D01*
X144305793Y-108748024D01*
X144287101Y-108961684D01*
X144286723Y-108966000D01*
X144297624Y-109090608D01*
X144305793Y-109183975D01*
X144305793Y-109183979D01*
X144362422Y-109395322D01*
X144362424Y-109395326D01*
X144362425Y-109395330D01*
X144388213Y-109450632D01*
X144454897Y-109593638D01*
X144454898Y-109593639D01*
X144580402Y-109772877D01*
X144660788Y-109853263D01*
X144735124Y-109927599D01*
X144838623Y-110000069D01*
X144882248Y-110054645D01*
X144891500Y-110101644D01*
X144891500Y-127949192D01*
X144871815Y-128016231D01*
X144855181Y-128036873D01*
X139974873Y-132917181D01*
X139913550Y-132950666D01*
X139887192Y-132953500D01*
X128967929Y-132953500D01*
X128842261Y-132978497D01*
X128842255Y-132978499D01*
X128723874Y-133027534D01*
X128617326Y-133098726D01*
X125732727Y-135983325D01*
X125732721Y-135983332D01*
X125662676Y-136088164D01*
X125662671Y-136088173D01*
X125661534Y-136089873D01*
X125612499Y-136208255D01*
X125612497Y-136208261D01*
X125587500Y-136333928D01*
X125587500Y-136920382D01*
X125567815Y-136987421D01*
X125533408Y-137021099D01*
X125534125Y-137022085D01*
X125358213Y-137149890D01*
X125207890Y-137300213D01*
X125082949Y-137472182D01*
X125078202Y-137481499D01*
X125030227Y-137532293D01*
X124962405Y-137549087D01*
X124896271Y-137526548D01*
X124857234Y-137481495D01*
X124852622Y-137472444D01*
X124727727Y-137300540D01*
X124727723Y-137300535D01*
X124577464Y-137150276D01*
X124577459Y-137150272D01*
X124405557Y-137025379D01*
X124216215Y-136928903D01*
X124014124Y-136863241D01*
X123948000Y-136852768D01*
X123948000Y-137996988D01*
X123890993Y-137964075D01*
X123763826Y-137930000D01*
X123632174Y-137930000D01*
X123505007Y-137964075D01*
X123448000Y-137996988D01*
X123448000Y-136852768D01*
X123447999Y-136852768D01*
X123381875Y-136863241D01*
X123179784Y-136928903D01*
X122990442Y-137025379D01*
X122818540Y-137150272D01*
X122818535Y-137150276D01*
X122668276Y-137300535D01*
X122668272Y-137300540D01*
X122543379Y-137472442D01*
X122446904Y-137661782D01*
X122381242Y-137863869D01*
X122381242Y-137863872D01*
X122348000Y-138073753D01*
X122348000Y-138180000D01*
X123264988Y-138180000D01*
X123232075Y-138237007D01*
X123198000Y-138364174D01*
X123198000Y-138495826D01*
X123232075Y-138622993D01*
X123264988Y-138680000D01*
X122348000Y-138680000D01*
X122348000Y-138786246D01*
X122381242Y-138996127D01*
X122381242Y-138996130D01*
X122446904Y-139198217D01*
X122543379Y-139387557D01*
X122668272Y-139559459D01*
X122668276Y-139559464D01*
X122818535Y-139709723D01*
X122818540Y-139709727D01*
X122990442Y-139834620D01*
X123179782Y-139931095D01*
X123381871Y-139996757D01*
X123448000Y-140007231D01*
X123448000Y-138863012D01*
X123505007Y-138895925D01*
X123632174Y-138930000D01*
X123763826Y-138930000D01*
X123890993Y-138895925D01*
X123948000Y-138863012D01*
X123948000Y-140007230D01*
X124014126Y-139996757D01*
X124014129Y-139996757D01*
X124216217Y-139931095D01*
X124405557Y-139834620D01*
X124577459Y-139709727D01*
X124577464Y-139709723D01*
X124727723Y-139559464D01*
X124727727Y-139559459D01*
X124852620Y-139387558D01*
X124857232Y-139378507D01*
X124905205Y-139327709D01*
X124973025Y-139310912D01*
X125039161Y-139333447D01*
X125078204Y-139378504D01*
X125082949Y-139387817D01*
X125207890Y-139559786D01*
X125358213Y-139710109D01*
X125530179Y-139835048D01*
X125530181Y-139835049D01*
X125530184Y-139835051D01*
X125719588Y-139931557D01*
X125921757Y-139997246D01*
X126131713Y-140030500D01*
X126131714Y-140030500D01*
X126344286Y-140030500D01*
X126344287Y-140030500D01*
X126554243Y-139997246D01*
X126756412Y-139931557D01*
X126945816Y-139835051D01*
X126967789Y-139819086D01*
X127117786Y-139710109D01*
X127117788Y-139710106D01*
X127117792Y-139710104D01*
X127268104Y-139559792D01*
X127268106Y-139559788D01*
X127268109Y-139559786D01*
X127393048Y-139387820D01*
X127393050Y-139387817D01*
X127393051Y-139387816D01*
X127397514Y-139379054D01*
X127445488Y-139328259D01*
X127513308Y-139311463D01*
X127579444Y-139333999D01*
X127618486Y-139379056D01*
X127622951Y-139387820D01*
X127747890Y-139559786D01*
X127898213Y-139710109D01*
X128070179Y-139835048D01*
X128070181Y-139835049D01*
X128070184Y-139835051D01*
X128259588Y-139931557D01*
X128461757Y-139997246D01*
X128671713Y-140030500D01*
X128671714Y-140030500D01*
X128884286Y-140030500D01*
X128884287Y-140030500D01*
X129094243Y-139997246D01*
X129296412Y-139931557D01*
X129485816Y-139835051D01*
X129507789Y-139819086D01*
X129657786Y-139710109D01*
X129657788Y-139710106D01*
X129657792Y-139710104D01*
X129808104Y-139559792D01*
X129808106Y-139559788D01*
X129808109Y-139559786D01*
X129933048Y-139387820D01*
X129933050Y-139387817D01*
X129933051Y-139387816D01*
X129937514Y-139379054D01*
X129985488Y-139328259D01*
X130053308Y-139311463D01*
X130119444Y-139333999D01*
X130158486Y-139379056D01*
X130162951Y-139387820D01*
X130287890Y-139559786D01*
X130438213Y-139710109D01*
X130610179Y-139835048D01*
X130610181Y-139835049D01*
X130610184Y-139835051D01*
X130799588Y-139931557D01*
X131001757Y-139997246D01*
X131211713Y-140030500D01*
X131211714Y-140030500D01*
X131424286Y-140030500D01*
X131424287Y-140030500D01*
X131634243Y-139997246D01*
X131836412Y-139931557D01*
X132025816Y-139835051D01*
X132047789Y-139819086D01*
X132197786Y-139710109D01*
X132197788Y-139710106D01*
X132197792Y-139710104D01*
X132348104Y-139559792D01*
X132348106Y-139559788D01*
X132348109Y-139559786D01*
X132473048Y-139387820D01*
X132473050Y-139387817D01*
X132473051Y-139387816D01*
X132477514Y-139379054D01*
X132525488Y-139328259D01*
X132593308Y-139311463D01*
X132659444Y-139333999D01*
X132698486Y-139379056D01*
X132702951Y-139387820D01*
X132827890Y-139559786D01*
X132978213Y-139710109D01*
X133150179Y-139835048D01*
X133150181Y-139835049D01*
X133150184Y-139835051D01*
X133339588Y-139931557D01*
X133541757Y-139997246D01*
X133751713Y-140030500D01*
X133751714Y-140030500D01*
X133964286Y-140030500D01*
X133964287Y-140030500D01*
X134174243Y-139997246D01*
X134376412Y-139931557D01*
X134565816Y-139835051D01*
X134737792Y-139710104D01*
X134883875Y-139564020D01*
X134945194Y-139530538D01*
X135014886Y-139535522D01*
X135059234Y-139564023D01*
X138559181Y-143063969D01*
X138592666Y-143125292D01*
X138595500Y-143151650D01*
X138595500Y-146895771D01*
X138628181Y-147060073D01*
X138628184Y-147060082D01*
X138692296Y-147214863D01*
X138692297Y-147214866D01*
X138785372Y-147354161D01*
X138785375Y-147354165D01*
X142877181Y-151445969D01*
X142910666Y-151507292D01*
X142913500Y-151533650D01*
X142913500Y-158899481D01*
X142893815Y-158966520D01*
X142859352Y-159001934D01*
X142657019Y-159139883D01*
X142462494Y-159320375D01*
X142462492Y-159320377D01*
X142297042Y-159527845D01*
X142164361Y-159757654D01*
X142067416Y-160004667D01*
X142067410Y-160004686D01*
X142008364Y-160263385D01*
X142008363Y-160263390D01*
X141988535Y-160527995D01*
X141988535Y-160528004D01*
X142008363Y-160792609D01*
X142008364Y-160792614D01*
X142067410Y-161051313D01*
X142067412Y-161051322D01*
X142067414Y-161051327D01*
X142164361Y-161298345D01*
X142297042Y-161528155D01*
X142462492Y-161735623D01*
X142657016Y-161916114D01*
X142876268Y-162065598D01*
X143115350Y-162180734D01*
X143368922Y-162258950D01*
X143368923Y-162258950D01*
X143368926Y-162258951D01*
X143631311Y-162298499D01*
X143631316Y-162298499D01*
X143631319Y-162298500D01*
X143631320Y-162298500D01*
X143896680Y-162298500D01*
X143896681Y-162298500D01*
X143896688Y-162298499D01*
X144159073Y-162258951D01*
X144159074Y-162258950D01*
X144159078Y-162258950D01*
X144412650Y-162180734D01*
X144651733Y-162065598D01*
X144870984Y-161916114D01*
X145065508Y-161735623D01*
X145230958Y-161528155D01*
X145363639Y-161298345D01*
X145460586Y-161051327D01*
X145519635Y-160792619D01*
X145519636Y-160792609D01*
X145539465Y-160528004D01*
X145539465Y-160527995D01*
X145519636Y-160263390D01*
X145519635Y-160263385D01*
X145519635Y-160263381D01*
X145460586Y-160004673D01*
X145363639Y-159757655D01*
X145230958Y-159527845D01*
X145065508Y-159320377D01*
X144870984Y-159139886D01*
X144870980Y-159139883D01*
X144870979Y-159139882D01*
X144668648Y-159001933D01*
X144624346Y-158947904D01*
X144614500Y-158899480D01*
X144614500Y-151046232D01*
X144614499Y-151046228D01*
X144585703Y-150901460D01*
X144581816Y-150881918D01*
X144533408Y-150765051D01*
X144528025Y-150752056D01*
X144517706Y-150727142D01*
X144517705Y-150727140D01*
X144517704Y-150727137D01*
X144424626Y-150587838D01*
X144424622Y-150587834D01*
X144424620Y-150587831D01*
X140332819Y-146496030D01*
X140299334Y-146434707D01*
X140296500Y-146408349D01*
X140296500Y-146303997D01*
X147842723Y-146303997D01*
X147842723Y-146304002D01*
X147861793Y-146521975D01*
X147861793Y-146521979D01*
X147918422Y-146733322D01*
X147918424Y-146733326D01*
X147918425Y-146733330D01*
X147964661Y-146832484D01*
X148010897Y-146931638D01*
X148010898Y-146931639D01*
X148136402Y-147110877D01*
X148291123Y-147265598D01*
X148470361Y-147391102D01*
X148668670Y-147483575D01*
X148880023Y-147540207D01*
X149062926Y-147556208D01*
X149097998Y-147559277D01*
X149098000Y-147559277D01*
X149098002Y-147559277D01*
X149126254Y-147556805D01*
X149315977Y-147540207D01*
X149527330Y-147483575D01*
X149725639Y-147391102D01*
X149904877Y-147265598D01*
X149979656Y-147190819D01*
X150040979Y-147157334D01*
X150067337Y-147154500D01*
X151213768Y-147154500D01*
X151213769Y-147154499D01*
X151268538Y-147143605D01*
X151378074Y-147121818D01*
X151378078Y-147121816D01*
X151378082Y-147121816D01*
X151423415Y-147103037D01*
X151532863Y-147057704D01*
X151672162Y-146964627D01*
X158569968Y-140066818D01*
X158631291Y-140033334D01*
X158657649Y-140030500D01*
X158851286Y-140030500D01*
X158851287Y-140030500D01*
X159061243Y-139997246D01*
X159263412Y-139931557D01*
X159452816Y-139835051D01*
X159474789Y-139819086D01*
X159624786Y-139710109D01*
X159624788Y-139710106D01*
X159624792Y-139710104D01*
X159775104Y-139559792D01*
X159775106Y-139559788D01*
X159775109Y-139559786D01*
X159900048Y-139387820D01*
X159900050Y-139387817D01*
X159900051Y-139387816D01*
X159904514Y-139379054D01*
X159952488Y-139328259D01*
X160020308Y-139311463D01*
X160086444Y-139333999D01*
X160125486Y-139379056D01*
X160129951Y-139387820D01*
X160254890Y-139559786D01*
X160405213Y-139710109D01*
X160577179Y-139835048D01*
X160577181Y-139835049D01*
X160577184Y-139835051D01*
X160766588Y-139931557D01*
X160968757Y-139997246D01*
X161178713Y-140030500D01*
X161178714Y-140030500D01*
X161391286Y-140030500D01*
X161391287Y-140030500D01*
X161601243Y-139997246D01*
X161803412Y-139931557D01*
X161992816Y-139835051D01*
X162014789Y-139819086D01*
X162164786Y-139710109D01*
X162164788Y-139710106D01*
X162164792Y-139710104D01*
X162315104Y-139559792D01*
X162315106Y-139559788D01*
X162315109Y-139559786D01*
X162440048Y-139387820D01*
X162440050Y-139387817D01*
X162440051Y-139387816D01*
X162536557Y-139198412D01*
X162602246Y-138996243D01*
X162635500Y-138786287D01*
X162635500Y-138333650D01*
X162655185Y-138266611D01*
X162671819Y-138245969D01*
X163124969Y-137792819D01*
X163186292Y-137759334D01*
X163212650Y-137756500D01*
X176006281Y-137756500D01*
X176073320Y-137776185D01*
X176116765Y-137824205D01*
X176136947Y-137863814D01*
X176136948Y-137863815D01*
X176261890Y-138035786D01*
X176405181Y-138179077D01*
X176438666Y-138240400D01*
X176441500Y-138266758D01*
X176441500Y-154261771D01*
X176474181Y-154426073D01*
X176474184Y-154426082D01*
X176538296Y-154580863D01*
X176538297Y-154580866D01*
X176631372Y-154720161D01*
X176631375Y-154720165D01*
X182597181Y-160685969D01*
X182630666Y-160747292D01*
X182633500Y-160773650D01*
X182633500Y-161845870D01*
X182633501Y-161845876D01*
X182639908Y-161905483D01*
X182690202Y-162040328D01*
X182690206Y-162040335D01*
X182776452Y-162155544D01*
X182776455Y-162155547D01*
X182891664Y-162241793D01*
X182891671Y-162241797D01*
X183026517Y-162292091D01*
X183026516Y-162292091D01*
X183033444Y-162292835D01*
X183086127Y-162298500D01*
X185721872Y-162298499D01*
X185781483Y-162292091D01*
X185916331Y-162241796D01*
X186031546Y-162155546D01*
X186117796Y-162040331D01*
X186168091Y-161905483D01*
X186174500Y-161845873D01*
X186174499Y-159210128D01*
X186168091Y-159150517D01*
X186164124Y-159139882D01*
X186117797Y-159015671D01*
X186117793Y-159015664D01*
X186031547Y-158900455D01*
X186031544Y-158900452D01*
X185916335Y-158814206D01*
X185916328Y-158814202D01*
X185781482Y-158763908D01*
X185781483Y-158763908D01*
X185721883Y-158757501D01*
X185721881Y-158757500D01*
X185721873Y-158757500D01*
X185721865Y-158757500D01*
X183125650Y-158757500D01*
X183058611Y-158737815D01*
X183037969Y-158721181D01*
X178178819Y-153862030D01*
X178145334Y-153800707D01*
X178142500Y-153774349D01*
X178142500Y-142747995D01*
X182629037Y-142747995D01*
X182629037Y-142748004D01*
X182648860Y-143012535D01*
X182648861Y-143012540D01*
X182707890Y-143271166D01*
X182707896Y-143271185D01*
X182804814Y-143518128D01*
X182804813Y-143518128D01*
X182937456Y-143747871D01*
X182987641Y-143810803D01*
X183921037Y-142877408D01*
X183938075Y-142940993D01*
X184003901Y-143055007D01*
X184096993Y-143148099D01*
X184211007Y-143213925D01*
X184274591Y-143230962D01*
X183340438Y-144165113D01*
X183516518Y-144285162D01*
X183516526Y-144285167D01*
X183755530Y-144400264D01*
X183755528Y-144400264D01*
X184009025Y-144478458D01*
X184009031Y-144478459D01*
X184271351Y-144517999D01*
X184271358Y-144518000D01*
X184536642Y-144518000D01*
X184536648Y-144517999D01*
X184798968Y-144478459D01*
X184798974Y-144478458D01*
X185052470Y-144400264D01*
X185291474Y-144285167D01*
X185291484Y-144285160D01*
X185467560Y-144165113D01*
X184533408Y-143230962D01*
X184596993Y-143213925D01*
X184711007Y-143148099D01*
X184804099Y-143055007D01*
X184869925Y-142940993D01*
X184886962Y-142877408D01*
X185820357Y-143810803D01*
X185870542Y-143747871D01*
X186003185Y-143518128D01*
X186100103Y-143271185D01*
X186100109Y-143271166D01*
X186159138Y-143012540D01*
X186159139Y-143012535D01*
X186178963Y-142748004D01*
X186178963Y-142747995D01*
X186159139Y-142483464D01*
X186159138Y-142483459D01*
X186100109Y-142224833D01*
X186100103Y-142224814D01*
X186003185Y-141977871D01*
X186003186Y-141977871D01*
X185870543Y-141748128D01*
X185820356Y-141685196D01*
X184886962Y-142618590D01*
X184869925Y-142555007D01*
X184804099Y-142440993D01*
X184711007Y-142347901D01*
X184596993Y-142282075D01*
X184533409Y-142265037D01*
X185467560Y-141330885D01*
X185291475Y-141210833D01*
X185291474Y-141210832D01*
X185052469Y-141095735D01*
X185052471Y-141095735D01*
X184798974Y-141017541D01*
X184798968Y-141017540D01*
X184536648Y-140978000D01*
X184271351Y-140978000D01*
X184009031Y-141017540D01*
X184009025Y-141017541D01*
X183755529Y-141095735D01*
X183516524Y-141210834D01*
X183516511Y-141210841D01*
X183340438Y-141330884D01*
X184274591Y-142265037D01*
X184211007Y-142282075D01*
X184096993Y-142347901D01*
X184003901Y-142440993D01*
X183938075Y-142555007D01*
X183921037Y-142618591D01*
X182987642Y-141685196D01*
X182937457Y-141748127D01*
X182804814Y-141977871D01*
X182707896Y-142224814D01*
X182707890Y-142224833D01*
X182648861Y-142483459D01*
X182648860Y-142483464D01*
X182629037Y-142747995D01*
X178142500Y-142747995D01*
X178142500Y-138266758D01*
X178162185Y-138199719D01*
X178178819Y-138179077D01*
X178234903Y-138122993D01*
X178322104Y-138035792D01*
X178322106Y-138035788D01*
X178322109Y-138035786D01*
X178447012Y-137863869D01*
X178447051Y-137863816D01*
X178451793Y-137854508D01*
X178499763Y-137803711D01*
X178567583Y-137786911D01*
X178633719Y-137809445D01*
X178672763Y-137854500D01*
X178677377Y-137863555D01*
X178802272Y-138035459D01*
X178802276Y-138035464D01*
X178952535Y-138185723D01*
X178952540Y-138185727D01*
X179124442Y-138310620D01*
X179313782Y-138407095D01*
X179515871Y-138472757D01*
X179582000Y-138483231D01*
X179582000Y-137339012D01*
X179639007Y-137371925D01*
X179766174Y-137406000D01*
X179897826Y-137406000D01*
X180024993Y-137371925D01*
X180082000Y-137339012D01*
X180082000Y-138483230D01*
X180148126Y-138472757D01*
X180148129Y-138472757D01*
X180350217Y-138407095D01*
X180539557Y-138310620D01*
X180711459Y-138185727D01*
X180711464Y-138185723D01*
X180861723Y-138035464D01*
X180861727Y-138035459D01*
X180986620Y-137863557D01*
X181083095Y-137674217D01*
X181148757Y-137472130D01*
X181148757Y-137472127D01*
X181182000Y-137262246D01*
X181182000Y-137156000D01*
X180265012Y-137156000D01*
X180297925Y-137098993D01*
X180332000Y-136971826D01*
X180332000Y-136840174D01*
X180297925Y-136713007D01*
X180265012Y-136656000D01*
X181182000Y-136656000D01*
X181182000Y-136549753D01*
X181148757Y-136339872D01*
X181148757Y-136339869D01*
X181083095Y-136137782D01*
X180986620Y-135948442D01*
X180861727Y-135776540D01*
X180861723Y-135776535D01*
X180711464Y-135626276D01*
X180711459Y-135626272D01*
X180539557Y-135501379D01*
X180350215Y-135404903D01*
X180148124Y-135339241D01*
X180082000Y-135328768D01*
X180082000Y-136472988D01*
X180024993Y-136440075D01*
X179897826Y-136406000D01*
X179766174Y-136406000D01*
X179639007Y-136440075D01*
X179582000Y-136472988D01*
X179582000Y-135328768D01*
X179581999Y-135328768D01*
X179515875Y-135339241D01*
X179313784Y-135404903D01*
X179124442Y-135501379D01*
X178952540Y-135626272D01*
X178952535Y-135626276D01*
X178802276Y-135776535D01*
X178802272Y-135776540D01*
X178677378Y-135948443D01*
X178672762Y-135957502D01*
X178624784Y-136008295D01*
X178556963Y-136025087D01*
X178490829Y-136002546D01*
X178451794Y-135957493D01*
X178447051Y-135948184D01*
X178447049Y-135948181D01*
X178447048Y-135948179D01*
X178322109Y-135776213D01*
X178171786Y-135625890D01*
X177999820Y-135500951D01*
X177810414Y-135404444D01*
X177810413Y-135404443D01*
X177810412Y-135404443D01*
X177608243Y-135338754D01*
X177608241Y-135338753D01*
X177608240Y-135338753D01*
X177446957Y-135313208D01*
X177398287Y-135305500D01*
X177185713Y-135305500D01*
X177137042Y-135313208D01*
X176975760Y-135338753D01*
X176773585Y-135404444D01*
X176584179Y-135500951D01*
X176412213Y-135625890D01*
X176261890Y-135776213D01*
X176136948Y-135948184D01*
X176136947Y-135948185D01*
X176116765Y-135987795D01*
X176068791Y-136038591D01*
X176006281Y-136055500D01*
X162725228Y-136055500D01*
X162560925Y-136088182D01*
X162560917Y-136088184D01*
X162406139Y-136152295D01*
X162266837Y-136245373D01*
X161687540Y-136824670D01*
X161626217Y-136858155D01*
X161580461Y-136859462D01*
X161442109Y-136837549D01*
X161391287Y-136829500D01*
X161178713Y-136829500D01*
X161130042Y-136837208D01*
X160968760Y-136862753D01*
X160766585Y-136928444D01*
X160577179Y-137024951D01*
X160405213Y-137149890D01*
X160254890Y-137300213D01*
X160129949Y-137472182D01*
X160125484Y-137480946D01*
X160077509Y-137531742D01*
X160009688Y-137548536D01*
X159943553Y-137525998D01*
X159904516Y-137480946D01*
X159900050Y-137472182D01*
X159775109Y-137300213D01*
X159631819Y-137156923D01*
X159598334Y-137095600D01*
X159595500Y-137069242D01*
X159595500Y-96166651D01*
X159615185Y-96099612D01*
X159631819Y-96078970D01*
X161097970Y-94612819D01*
X161159293Y-94579334D01*
X161185651Y-94576500D01*
X163879693Y-94576500D01*
X163946732Y-94596185D01*
X163967374Y-94612819D01*
X164043536Y-94688981D01*
X164204306Y-94805787D01*
X164361332Y-94885796D01*
X164412127Y-94933769D01*
X164428922Y-95001590D01*
X164406385Y-95067725D01*
X164361332Y-95106764D01*
X164204569Y-95186639D01*
X164043860Y-95303403D01*
X164043859Y-95303403D01*
X163903403Y-95443859D01*
X163903403Y-95443860D01*
X163786641Y-95604567D01*
X163696456Y-95781564D01*
X163635074Y-95970482D01*
X163627865Y-96015999D01*
X163627865Y-96016000D01*
X164920988Y-96016000D01*
X164888075Y-96073007D01*
X164854000Y-96200174D01*
X164854000Y-96331826D01*
X164888075Y-96458993D01*
X164920988Y-96516000D01*
X163627865Y-96516000D01*
X163635074Y-96561517D01*
X163696456Y-96750435D01*
X163786641Y-96927432D01*
X163903403Y-97088139D01*
X163903403Y-97088140D01*
X164043859Y-97228596D01*
X164204567Y-97345358D01*
X164361331Y-97425234D01*
X164412127Y-97473209D01*
X164428922Y-97541030D01*
X164406384Y-97607165D01*
X164361331Y-97646204D01*
X164204305Y-97726213D01*
X164043533Y-97843021D01*
X163903021Y-97983533D01*
X163786213Y-98144305D01*
X163695994Y-98321367D01*
X163695993Y-98321370D01*
X163634587Y-98510362D01*
X163603500Y-98706639D01*
X163603500Y-98905360D01*
X163634587Y-99101637D01*
X163695993Y-99290629D01*
X163695994Y-99290632D01*
X163768403Y-99432741D01*
X163786213Y-99467694D01*
X163903019Y-99628464D01*
X164043536Y-99768981D01*
X164204306Y-99885787D01*
X164322832Y-99946179D01*
X164360780Y-99965515D01*
X164411576Y-100013490D01*
X164428371Y-100081311D01*
X164405833Y-100147446D01*
X164360780Y-100186485D01*
X164204305Y-100266213D01*
X164043533Y-100383021D01*
X163903021Y-100523533D01*
X163786213Y-100684305D01*
X163695994Y-100861367D01*
X163695993Y-100861370D01*
X163634587Y-101050362D01*
X163603500Y-101246639D01*
X163603500Y-101445360D01*
X163634587Y-101641637D01*
X163695993Y-101830629D01*
X163695994Y-101830632D01*
X163779343Y-101994211D01*
X163786213Y-102007694D01*
X163903019Y-102168464D01*
X164043536Y-102308981D01*
X164204306Y-102425787D01*
X164322832Y-102486179D01*
X164360780Y-102505515D01*
X164411576Y-102553490D01*
X164428371Y-102621311D01*
X164405833Y-102687446D01*
X164360780Y-102726485D01*
X164204305Y-102806213D01*
X164043533Y-102923021D01*
X163903021Y-103063533D01*
X163786213Y-103224305D01*
X163695994Y-103401367D01*
X163695993Y-103401370D01*
X163634587Y-103590362D01*
X163603500Y-103786639D01*
X163603500Y-103985360D01*
X163634587Y-104181637D01*
X163695993Y-104370629D01*
X163695994Y-104370632D01*
X163776712Y-104529048D01*
X163786213Y-104547694D01*
X163903019Y-104708464D01*
X164043536Y-104848981D01*
X164204306Y-104965787D01*
X164322832Y-105026179D01*
X164360780Y-105045515D01*
X164411576Y-105093490D01*
X164428371Y-105161311D01*
X164405833Y-105227446D01*
X164360780Y-105266485D01*
X164204305Y-105346213D01*
X164043533Y-105463021D01*
X163903021Y-105603533D01*
X163786213Y-105764305D01*
X163695994Y-105941367D01*
X163695993Y-105941370D01*
X163634587Y-106130362D01*
X163603500Y-106326639D01*
X163603500Y-106525360D01*
X163634587Y-106721637D01*
X163695993Y-106910629D01*
X163695994Y-106910632D01*
X163767772Y-107051502D01*
X163786213Y-107087694D01*
X163903019Y-107248464D01*
X164043536Y-107388981D01*
X164204306Y-107505787D01*
X164322832Y-107566179D01*
X164360780Y-107585515D01*
X164411576Y-107633490D01*
X164428371Y-107701311D01*
X164405833Y-107767446D01*
X164360780Y-107806485D01*
X164204305Y-107886213D01*
X164043533Y-108003021D01*
X163903021Y-108143533D01*
X163903016Y-108143539D01*
X163815217Y-108264385D01*
X163759887Y-108307051D01*
X163714899Y-108315500D01*
X162679644Y-108315500D01*
X162612605Y-108295815D01*
X162578069Y-108262623D01*
X162575209Y-108258539D01*
X162505598Y-108159123D01*
X162350877Y-108004402D01*
X162182086Y-107886213D01*
X162171638Y-107878897D01*
X162028165Y-107811995D01*
X161973330Y-107786425D01*
X161973326Y-107786424D01*
X161973322Y-107786422D01*
X161761977Y-107729793D01*
X161544002Y-107710723D01*
X161543998Y-107710723D01*
X161398682Y-107723436D01*
X161326023Y-107729793D01*
X161326020Y-107729793D01*
X161114677Y-107786422D01*
X161114668Y-107786426D01*
X160916361Y-107878898D01*
X160916357Y-107878900D01*
X160737121Y-108004402D01*
X160582402Y-108159121D01*
X160456900Y-108338357D01*
X160456898Y-108338361D01*
X160364426Y-108536668D01*
X160364422Y-108536677D01*
X160307793Y-108748020D01*
X160307793Y-108748024D01*
X160289101Y-108961684D01*
X160288723Y-108966000D01*
X160299624Y-109090608D01*
X160307793Y-109183975D01*
X160307793Y-109183979D01*
X160364422Y-109395322D01*
X160364424Y-109395326D01*
X160364425Y-109395330D01*
X160390213Y-109450632D01*
X160456897Y-109593638D01*
X160456898Y-109593639D01*
X160582402Y-109772877D01*
X160737123Y-109927598D01*
X160916361Y-110053102D01*
X161114670Y-110145575D01*
X161326023Y-110202207D01*
X161508926Y-110218208D01*
X161543998Y-110221277D01*
X161544000Y-110221277D01*
X161544002Y-110221277D01*
X161572254Y-110218805D01*
X161761977Y-110202207D01*
X161973330Y-110145575D01*
X162171639Y-110053102D01*
X162350877Y-109927598D01*
X162505598Y-109772877D01*
X162578071Y-109669374D01*
X162632647Y-109625751D01*
X162679645Y-109616500D01*
X163714899Y-109616500D01*
X163781938Y-109636185D01*
X163815217Y-109667615D01*
X163827635Y-109684707D01*
X163903019Y-109788464D01*
X164043536Y-109928981D01*
X164204306Y-110045787D01*
X164313931Y-110101644D01*
X164360780Y-110125515D01*
X164411576Y-110173490D01*
X164428371Y-110241311D01*
X164405833Y-110307446D01*
X164360780Y-110346485D01*
X164204305Y-110426213D01*
X164043533Y-110543021D01*
X163903021Y-110683533D01*
X163786213Y-110844305D01*
X163695994Y-111021367D01*
X163695993Y-111021370D01*
X163634587Y-111210362D01*
X163603500Y-111406639D01*
X163603500Y-111605360D01*
X163634587Y-111801637D01*
X163695993Y-111990629D01*
X163695994Y-111990632D01*
X163740644Y-112078261D01*
X163786213Y-112167694D01*
X163903019Y-112328464D01*
X164043536Y-112468981D01*
X164204306Y-112585787D01*
X164322832Y-112646179D01*
X164360780Y-112665515D01*
X164411576Y-112713490D01*
X164428371Y-112781311D01*
X164405833Y-112847446D01*
X164360780Y-112886485D01*
X164204305Y-112966213D01*
X164043533Y-113083021D01*
X163903021Y-113223533D01*
X163786213Y-113384305D01*
X163695994Y-113561367D01*
X163695993Y-113561370D01*
X163634587Y-113750362D01*
X163603500Y-113946639D01*
X163603500Y-114145360D01*
X163634587Y-114341637D01*
X163695993Y-114530629D01*
X163695994Y-114530632D01*
X163778750Y-114693048D01*
X163786213Y-114707694D01*
X163903019Y-114868464D01*
X164043536Y-115008981D01*
X164204306Y-115125787D01*
X164271400Y-115159973D01*
X164360780Y-115205515D01*
X164411576Y-115253490D01*
X164428371Y-115321311D01*
X164405833Y-115387446D01*
X164360780Y-115426485D01*
X164204305Y-115506213D01*
X164043533Y-115623021D01*
X163903021Y-115763533D01*
X163786213Y-115924305D01*
X163695994Y-116101367D01*
X163695993Y-116101370D01*
X163634587Y-116290362D01*
X163603500Y-116486639D01*
X163603500Y-116685360D01*
X163634587Y-116881637D01*
X163695993Y-117070629D01*
X163695994Y-117070632D01*
X163767772Y-117211502D01*
X163786213Y-117247694D01*
X163903019Y-117408464D01*
X164043536Y-117548981D01*
X164204306Y-117665787D01*
X164277211Y-117702934D01*
X164360780Y-117745515D01*
X164411576Y-117793490D01*
X164428371Y-117861311D01*
X164405833Y-117927446D01*
X164360780Y-117966485D01*
X164204305Y-118046213D01*
X164043533Y-118163021D01*
X163903021Y-118303533D01*
X163786213Y-118464305D01*
X163695994Y-118641367D01*
X163695993Y-118641370D01*
X163634587Y-118830362D01*
X163603500Y-119026639D01*
X163603500Y-119225360D01*
X163634587Y-119421637D01*
X163695993Y-119610629D01*
X163695994Y-119610632D01*
X163778752Y-119773051D01*
X163786213Y-119787694D01*
X163903019Y-119948464D01*
X164043536Y-120088981D01*
X164204306Y-120205787D01*
X164322832Y-120266179D01*
X164360780Y-120285515D01*
X164411576Y-120333490D01*
X164428371Y-120401311D01*
X164405833Y-120467446D01*
X164360780Y-120506485D01*
X164204305Y-120586213D01*
X164043533Y-120703021D01*
X163903021Y-120843533D01*
X163786213Y-121004305D01*
X163695994Y-121181367D01*
X163695993Y-121181370D01*
X163634587Y-121370362D01*
X163621022Y-121456009D01*
X163603500Y-121566639D01*
X163603500Y-121765361D01*
X163605227Y-121776262D01*
X163634587Y-121961637D01*
X163695993Y-122150629D01*
X163695994Y-122150632D01*
X163767772Y-122291502D01*
X163786213Y-122327694D01*
X163903019Y-122488464D01*
X164043536Y-122628981D01*
X164204306Y-122745787D01*
X164322832Y-122806179D01*
X164360780Y-122825515D01*
X164411576Y-122873490D01*
X164428371Y-122941311D01*
X164405833Y-123007446D01*
X164360780Y-123046485D01*
X164204305Y-123126213D01*
X164043533Y-123243021D01*
X163903021Y-123383533D01*
X163786213Y-123544305D01*
X163695994Y-123721367D01*
X163695993Y-123721370D01*
X163634587Y-123910362D01*
X163603500Y-124106639D01*
X163603500Y-124305361D01*
X163616034Y-124384500D01*
X163634587Y-124501637D01*
X163695993Y-124690629D01*
X163695994Y-124690632D01*
X163786213Y-124867694D01*
X163903019Y-125028464D01*
X164043536Y-125168981D01*
X164204306Y-125285787D01*
X164297948Y-125333500D01*
X164360780Y-125365515D01*
X164411576Y-125413490D01*
X164428371Y-125481311D01*
X164405833Y-125547446D01*
X164360780Y-125586485D01*
X164204305Y-125666213D01*
X164043533Y-125783021D01*
X163903021Y-125923533D01*
X163786213Y-126084305D01*
X163695994Y-126261367D01*
X163695993Y-126261370D01*
X163634587Y-126450362D01*
X163603500Y-126646639D01*
X163603500Y-126845360D01*
X163634587Y-127041637D01*
X163695993Y-127230629D01*
X163695994Y-127230632D01*
X163767772Y-127371502D01*
X163786213Y-127407694D01*
X163903019Y-127568464D01*
X164043536Y-127708981D01*
X164204306Y-127825787D01*
X164325100Y-127887334D01*
X164375894Y-127935307D01*
X164392689Y-128003128D01*
X164370152Y-128069263D01*
X164315437Y-128112715D01*
X164307141Y-128115743D01*
X164306374Y-128115992D01*
X164306367Y-128115994D01*
X164129305Y-128206213D01*
X163968533Y-128323021D01*
X163828021Y-128463533D01*
X163711213Y-128624305D01*
X163620994Y-128801367D01*
X163620993Y-128801370D01*
X163559587Y-128990362D01*
X163559587Y-128990364D01*
X163528500Y-129186639D01*
X163528500Y-129385361D01*
X163535887Y-129432000D01*
X163559587Y-129581637D01*
X163620993Y-129770629D01*
X163620994Y-129770632D01*
X163693861Y-129913639D01*
X163711213Y-129947694D01*
X163828019Y-130108464D01*
X163968536Y-130248981D01*
X164129306Y-130365787D01*
X164216149Y-130410035D01*
X164306367Y-130456005D01*
X164306370Y-130456006D01*
X164400866Y-130486709D01*
X164495364Y-130517413D01*
X164691639Y-130548500D01*
X164691640Y-130548500D01*
X165866360Y-130548500D01*
X165866361Y-130548500D01*
X166062636Y-130517413D01*
X166251632Y-130456005D01*
X166428694Y-130365787D01*
X166589464Y-130248981D01*
X166729981Y-130108464D01*
X166846787Y-129947694D01*
X166937005Y-129770632D01*
X166998413Y-129581636D01*
X167029500Y-129385361D01*
X167029500Y-129186639D01*
X166998413Y-128990364D01*
X166937005Y-128801368D01*
X166937005Y-128801367D01*
X166877545Y-128684672D01*
X166846787Y-128624306D01*
X166729981Y-128463536D01*
X166589464Y-128323019D01*
X166428694Y-128206213D01*
X166307900Y-128144665D01*
X166257105Y-128096691D01*
X166240310Y-128028870D01*
X166262847Y-127962736D01*
X166317562Y-127919284D01*
X166325885Y-127916248D01*
X166326629Y-127916006D01*
X166326632Y-127916005D01*
X166503694Y-127825787D01*
X166664464Y-127708981D01*
X166804981Y-127568464D01*
X166921787Y-127407694D01*
X167012005Y-127230632D01*
X167073413Y-127041636D01*
X167104500Y-126845361D01*
X167104500Y-126646639D01*
X167073413Y-126450364D01*
X167012005Y-126261368D01*
X167012005Y-126261367D01*
X166966035Y-126171149D01*
X166921787Y-126084306D01*
X166804981Y-125923536D01*
X166730123Y-125848678D01*
X171422000Y-125848678D01*
X171422000Y-125936000D01*
X172368314Y-125936000D01*
X172363920Y-125940394D01*
X172311259Y-126031606D01*
X172284000Y-126133339D01*
X172284000Y-126238661D01*
X172311259Y-126340394D01*
X172363920Y-126431606D01*
X172368314Y-126436000D01*
X171422000Y-126436000D01*
X171422000Y-126523321D01*
X171453075Y-126719520D01*
X171453075Y-126719523D01*
X171514457Y-126908437D01*
X171604641Y-127085432D01*
X171721403Y-127246139D01*
X171721403Y-127246140D01*
X171861859Y-127386596D01*
X172022567Y-127503358D01*
X172199562Y-127593542D01*
X172388473Y-127654922D01*
X172434000Y-127662133D01*
X172434000Y-126501686D01*
X172438394Y-126506080D01*
X172529606Y-126558741D01*
X172631339Y-126586000D01*
X172736661Y-126586000D01*
X172838394Y-126558741D01*
X172929606Y-126506080D01*
X172934000Y-126501686D01*
X172934000Y-127662132D01*
X172979526Y-127654922D01*
X173168437Y-127593542D01*
X173345432Y-127503358D01*
X173506139Y-127386596D01*
X173506140Y-127386596D01*
X173646596Y-127246140D01*
X173646596Y-127246139D01*
X173763358Y-127085432D01*
X173853542Y-126908437D01*
X173914924Y-126719523D01*
X173914924Y-126719520D01*
X173946000Y-126523321D01*
X173946000Y-126436000D01*
X172999686Y-126436000D01*
X173004080Y-126431606D01*
X173056741Y-126340394D01*
X173084000Y-126238661D01*
X173084000Y-126133339D01*
X173056741Y-126031606D01*
X173004080Y-125940394D01*
X172999686Y-125936000D01*
X173946000Y-125936000D01*
X173946000Y-125848678D01*
X173914924Y-125652479D01*
X173914924Y-125652476D01*
X173853542Y-125463562D01*
X173763358Y-125286567D01*
X173646596Y-125125860D01*
X173646596Y-125125859D01*
X173506140Y-124985403D01*
X173345432Y-124868641D01*
X173168434Y-124778456D01*
X173168436Y-124778456D01*
X172979517Y-124717074D01*
X172934000Y-124709865D01*
X172934000Y-125870314D01*
X172929606Y-125865920D01*
X172838394Y-125813259D01*
X172736661Y-125786000D01*
X172631339Y-125786000D01*
X172529606Y-125813259D01*
X172438394Y-125865920D01*
X172434000Y-125870314D01*
X172434000Y-124709865D01*
X172433999Y-124709865D01*
X172388482Y-124717074D01*
X172199564Y-124778456D01*
X172022567Y-124868641D01*
X171861860Y-124985403D01*
X171861859Y-124985403D01*
X171721403Y-125125859D01*
X171721403Y-125125860D01*
X171604641Y-125286567D01*
X171514457Y-125463562D01*
X171453075Y-125652476D01*
X171453075Y-125652479D01*
X171422000Y-125848678D01*
X166730123Y-125848678D01*
X166664464Y-125783019D01*
X166503694Y-125666213D01*
X166347218Y-125586484D01*
X166296423Y-125538510D01*
X166279628Y-125470689D01*
X166302165Y-125404554D01*
X166347218Y-125365515D01*
X166503694Y-125285787D01*
X166664464Y-125168981D01*
X166804981Y-125028464D01*
X166921787Y-124867694D01*
X167012005Y-124690632D01*
X167073413Y-124501636D01*
X167104500Y-124305361D01*
X167104500Y-124106639D01*
X167073413Y-123910364D01*
X167012005Y-123721368D01*
X167012005Y-123721367D01*
X166921786Y-123544305D01*
X166804981Y-123383536D01*
X166664464Y-123243019D01*
X166503694Y-123126213D01*
X166347218Y-123046484D01*
X166296423Y-122998510D01*
X166279628Y-122930689D01*
X166302165Y-122864554D01*
X166347218Y-122825515D01*
X166503694Y-122745787D01*
X166664464Y-122628981D01*
X166804981Y-122488464D01*
X166892783Y-122367615D01*
X166948113Y-122324949D01*
X166993101Y-122316500D01*
X169228071Y-122316500D01*
X169312615Y-122299682D01*
X169353744Y-122291501D01*
X169472127Y-122242465D01*
X169514212Y-122214345D01*
X169578669Y-122171277D01*
X171955276Y-119794669D01*
X172026465Y-119688127D01*
X172075501Y-119569744D01*
X172081284Y-119540670D01*
X172100500Y-119444069D01*
X172100500Y-117580808D01*
X172120185Y-117513769D01*
X172136812Y-117493134D01*
X172139315Y-117490629D01*
X172143044Y-117486901D01*
X172204363Y-117453412D01*
X172269046Y-117456644D01*
X172388364Y-117495413D01*
X172584639Y-117526500D01*
X172584640Y-117526500D01*
X172783360Y-117526500D01*
X172783361Y-117526500D01*
X172979636Y-117495413D01*
X173168632Y-117434005D01*
X173345694Y-117343787D01*
X173506464Y-117226981D01*
X173646981Y-117086464D01*
X173647599Y-117085612D01*
X173647916Y-117085368D01*
X173650145Y-117082759D01*
X173650693Y-117083227D01*
X173702930Y-117042948D01*
X173747916Y-117034500D01*
X178180163Y-117034500D01*
X178247202Y-117054185D01*
X178286561Y-117096615D01*
X178287022Y-117096314D01*
X178288785Y-117099012D01*
X178289214Y-117099475D01*
X178289826Y-117100606D01*
X178425833Y-117308782D01*
X178425836Y-117308785D01*
X178594256Y-117491738D01*
X178667798Y-117548978D01*
X178790488Y-117644472D01*
X178790492Y-117644475D01*
X178829872Y-117665786D01*
X178889458Y-117698032D01*
X178898517Y-117702934D01*
X178948108Y-117752153D01*
X178963500Y-117811989D01*
X178963500Y-121456009D01*
X178943815Y-121523048D01*
X178898518Y-121565063D01*
X178790501Y-121623519D01*
X178790494Y-121623523D01*
X178594257Y-121776261D01*
X178425833Y-121959217D01*
X178289826Y-122167393D01*
X178189936Y-122395118D01*
X178128892Y-122636175D01*
X178128890Y-122636187D01*
X178108357Y-122883994D01*
X178108357Y-122884005D01*
X178128890Y-123131812D01*
X178128892Y-123131824D01*
X178189936Y-123372881D01*
X178289826Y-123600606D01*
X178425833Y-123808782D01*
X178425836Y-123808785D01*
X178594256Y-123991738D01*
X178790491Y-124144474D01*
X179009190Y-124262828D01*
X179244386Y-124343571D01*
X179489665Y-124384500D01*
X179738335Y-124384500D01*
X179983614Y-124343571D01*
X180218810Y-124262828D01*
X180437509Y-124144474D01*
X180633744Y-123991738D01*
X180802164Y-123808785D01*
X180938173Y-123600607D01*
X181038063Y-123372881D01*
X181099108Y-123131821D01*
X181099960Y-123121540D01*
X181119643Y-122884005D01*
X181119643Y-122883994D01*
X181099109Y-122636187D01*
X181099107Y-122636175D01*
X181038063Y-122395118D01*
X180938173Y-122167393D01*
X180802166Y-121959217D01*
X180715857Y-121865461D01*
X180633744Y-121776262D01*
X180437509Y-121623526D01*
X180437508Y-121623525D01*
X180437505Y-121623523D01*
X180437498Y-121623519D01*
X180329482Y-121565063D01*
X180279891Y-121515844D01*
X180264500Y-121456009D01*
X180264500Y-117811989D01*
X180284185Y-117744950D01*
X180329483Y-117702934D01*
X180338542Y-117698032D01*
X180437509Y-117644474D01*
X180633744Y-117491738D01*
X180802164Y-117308785D01*
X180938173Y-117100607D01*
X181038063Y-116872881D01*
X181099108Y-116631821D01*
X181099109Y-116631812D01*
X181119643Y-116384005D01*
X181119643Y-116383994D01*
X181099109Y-116136187D01*
X181099107Y-116136175D01*
X181038063Y-115895118D01*
X180938173Y-115667393D01*
X180802166Y-115459217D01*
X180736096Y-115387446D01*
X180633744Y-115276262D01*
X180437509Y-115123526D01*
X180437507Y-115123525D01*
X180437506Y-115123524D01*
X180218811Y-115005172D01*
X180218802Y-115005169D01*
X179983616Y-114924429D01*
X179738335Y-114883500D01*
X179489665Y-114883500D01*
X179244383Y-114924429D01*
X179009197Y-115005169D01*
X179009188Y-115005172D01*
X178790493Y-115123524D01*
X178594257Y-115276261D01*
X178594256Y-115276262D01*
X178583452Y-115287997D01*
X178425833Y-115459217D01*
X178289826Y-115667393D01*
X178289214Y-115668525D01*
X178288842Y-115668898D01*
X178287022Y-115671686D01*
X178286448Y-115671311D01*
X178239991Y-115718112D01*
X178180163Y-115733500D01*
X174059511Y-115733500D01*
X173992472Y-115713815D01*
X173946717Y-115661011D01*
X173937038Y-115628898D01*
X173926060Y-115559588D01*
X173915413Y-115492364D01*
X173870647Y-115354587D01*
X173854006Y-115303370D01*
X173854005Y-115303367D01*
X173780941Y-115159973D01*
X173763787Y-115126306D01*
X173646981Y-114965536D01*
X173506464Y-114825019D01*
X173345694Y-114708213D01*
X173315931Y-114693048D01*
X173168632Y-114617994D01*
X173168629Y-114617993D01*
X172979637Y-114556587D01*
X172881498Y-114541043D01*
X172783361Y-114525500D01*
X172584639Y-114525500D01*
X172552256Y-114530629D01*
X172388362Y-114556587D01*
X172199370Y-114617993D01*
X172199367Y-114617994D01*
X172022305Y-114708213D01*
X171861533Y-114825021D01*
X171721021Y-114965533D01*
X171604213Y-115126305D01*
X171513994Y-115303367D01*
X171513993Y-115303370D01*
X171452587Y-115492362D01*
X171421500Y-115688639D01*
X171421500Y-116317191D01*
X171401815Y-116384230D01*
X171385181Y-116404872D01*
X170944727Y-116845325D01*
X170944726Y-116845326D01*
X170873534Y-116951874D01*
X170824499Y-117070255D01*
X170824497Y-117070261D01*
X170799500Y-117195928D01*
X170799500Y-119059192D01*
X170779815Y-119126231D01*
X170763181Y-119146873D01*
X168930873Y-120979181D01*
X168869550Y-121012666D01*
X168843192Y-121015500D01*
X166993101Y-121015500D01*
X166926062Y-120995815D01*
X166892783Y-120964385D01*
X166804983Y-120843539D01*
X166804978Y-120843533D01*
X166664466Y-120703021D01*
X166664464Y-120703019D01*
X166503694Y-120586213D01*
X166347218Y-120506484D01*
X166296423Y-120458510D01*
X166279628Y-120390689D01*
X166302165Y-120324554D01*
X166347218Y-120285515D01*
X166503694Y-120205787D01*
X166664464Y-120088981D01*
X166804981Y-119948464D01*
X166892783Y-119827615D01*
X166948113Y-119784949D01*
X166993101Y-119776500D01*
X167450071Y-119776500D01*
X167534615Y-119759682D01*
X167575744Y-119751501D01*
X167694127Y-119702465D01*
X167800669Y-119631277D01*
X170177276Y-117254669D01*
X170248465Y-117148127D01*
X170297501Y-117029744D01*
X170301528Y-117009501D01*
X170322500Y-116904069D01*
X170322500Y-112588807D01*
X170342185Y-112521768D01*
X170358814Y-112501131D01*
X172179051Y-110680893D01*
X172240372Y-110647410D01*
X172305047Y-110650644D01*
X172424364Y-110689413D01*
X172620639Y-110720500D01*
X172620640Y-110720500D01*
X172819360Y-110720500D01*
X172819361Y-110720500D01*
X173015636Y-110689413D01*
X173204632Y-110628005D01*
X173381694Y-110537787D01*
X173542464Y-110420981D01*
X173682981Y-110280464D01*
X173799787Y-110119694D01*
X173890005Y-109942632D01*
X173919042Y-109853260D01*
X173958478Y-109795587D01*
X173968076Y-109788481D01*
X174062669Y-109725277D01*
X178991091Y-104796853D01*
X179052412Y-104763370D01*
X179119032Y-104767254D01*
X179143520Y-104775661D01*
X179172385Y-104785571D01*
X179417665Y-104826500D01*
X179666335Y-104826500D01*
X179911614Y-104785571D01*
X180146810Y-104704828D01*
X180365509Y-104586474D01*
X180561744Y-104433738D01*
X180730164Y-104250785D01*
X180866173Y-104042607D01*
X180966063Y-103814881D01*
X181027108Y-103573821D01*
X181031228Y-103524099D01*
X181047643Y-103326005D01*
X181047643Y-103325994D01*
X181027109Y-103078187D01*
X181027107Y-103078175D01*
X180966063Y-102837118D01*
X180866173Y-102609393D01*
X180730166Y-102401217D01*
X180688159Y-102355585D01*
X180561744Y-102218262D01*
X180365509Y-102065526D01*
X180365508Y-102065525D01*
X180365505Y-102065523D01*
X180365498Y-102065519D01*
X180257482Y-102007063D01*
X180207891Y-101957844D01*
X180192500Y-101898009D01*
X180192500Y-98253989D01*
X180212185Y-98186950D01*
X180257483Y-98144934D01*
X180258644Y-98144306D01*
X180365509Y-98086474D01*
X180561744Y-97933738D01*
X180730164Y-97750785D01*
X180866173Y-97542607D01*
X180966063Y-97314881D01*
X181027108Y-97073821D01*
X181039238Y-96927432D01*
X181047643Y-96826005D01*
X181047643Y-96825994D01*
X181027109Y-96578187D01*
X181027107Y-96578175D01*
X180966063Y-96337118D01*
X180866173Y-96109393D01*
X180730166Y-95901217D01*
X180637058Y-95800075D01*
X180561744Y-95718262D01*
X180365509Y-95565526D01*
X180365507Y-95565525D01*
X180365506Y-95565524D01*
X180146811Y-95447172D01*
X180146802Y-95447169D01*
X179911616Y-95366429D01*
X179666335Y-95325500D01*
X179417665Y-95325500D01*
X179172383Y-95366429D01*
X178937197Y-95447169D01*
X178937188Y-95447172D01*
X178718493Y-95565524D01*
X178522257Y-95718261D01*
X178353833Y-95901217D01*
X178217826Y-96109393D01*
X178117936Y-96337118D01*
X178056892Y-96578175D01*
X178056890Y-96578187D01*
X178036357Y-96825994D01*
X178036357Y-96826005D01*
X178056890Y-97073812D01*
X178056892Y-97073824D01*
X178117936Y-97314881D01*
X178217826Y-97542606D01*
X178353833Y-97750782D01*
X178353836Y-97750785D01*
X178522256Y-97933738D01*
X178644764Y-98029090D01*
X178718488Y-98086472D01*
X178718492Y-98086475D01*
X178787902Y-98124037D01*
X178825356Y-98144306D01*
X178826517Y-98144934D01*
X178876108Y-98194153D01*
X178891500Y-98253989D01*
X178891500Y-101898009D01*
X178871815Y-101965048D01*
X178826518Y-102007063D01*
X178718501Y-102065519D01*
X178718494Y-102065523D01*
X178522257Y-102218261D01*
X178353833Y-102401217D01*
X178217826Y-102609393D01*
X178117936Y-102837118D01*
X178056892Y-103078175D01*
X178056890Y-103078187D01*
X178036357Y-103325994D01*
X178036357Y-103326005D01*
X178056890Y-103573812D01*
X178056892Y-103573824D01*
X178103719Y-103758737D01*
X178101094Y-103828557D01*
X178071194Y-103876858D01*
X173823430Y-108124623D01*
X173762107Y-108158108D01*
X173692415Y-108153124D01*
X173648068Y-108124623D01*
X173542466Y-108019021D01*
X173542464Y-108019019D01*
X173381694Y-107902213D01*
X173204632Y-107811994D01*
X173204629Y-107811993D01*
X173015637Y-107750587D01*
X172884348Y-107729793D01*
X172819361Y-107719500D01*
X172620639Y-107719500D01*
X172555652Y-107729793D01*
X172424362Y-107750587D01*
X172235370Y-107811993D01*
X172235367Y-107811994D01*
X172058305Y-107902213D01*
X171897533Y-108019021D01*
X171757021Y-108159533D01*
X171640213Y-108320305D01*
X171549994Y-108497367D01*
X171549993Y-108497370D01*
X171488587Y-108686362D01*
X171457500Y-108882639D01*
X171457500Y-109511191D01*
X171437815Y-109578230D01*
X171421181Y-109598872D01*
X169166727Y-111853325D01*
X169166726Y-111853326D01*
X169095534Y-111959874D01*
X169046499Y-112078255D01*
X169046497Y-112078261D01*
X169021500Y-112203928D01*
X169021500Y-116519192D01*
X169001815Y-116586231D01*
X168985181Y-116606873D01*
X167152873Y-118439181D01*
X167091550Y-118472666D01*
X167065192Y-118475500D01*
X166993101Y-118475500D01*
X166926062Y-118455815D01*
X166892783Y-118424385D01*
X166830285Y-118338364D01*
X166804981Y-118303536D01*
X166664464Y-118163019D01*
X166503694Y-118046213D01*
X166347218Y-117966484D01*
X166296423Y-117918510D01*
X166279628Y-117850689D01*
X166302165Y-117784554D01*
X166347218Y-117745515D01*
X166503694Y-117665787D01*
X166664464Y-117548981D01*
X166804981Y-117408464D01*
X166921787Y-117247694D01*
X167012005Y-117070632D01*
X167012128Y-117070255D01*
X167023745Y-117034500D01*
X167073413Y-116881636D01*
X167104500Y-116685361D01*
X167104500Y-116486639D01*
X167073413Y-116290364D01*
X167038947Y-116184287D01*
X167012006Y-116101370D01*
X167012005Y-116101367D01*
X166945942Y-115971713D01*
X166921787Y-115924306D01*
X166804981Y-115763536D01*
X166664464Y-115623019D01*
X166503694Y-115506213D01*
X166347218Y-115426484D01*
X166296423Y-115378510D01*
X166279628Y-115310689D01*
X166302165Y-115244554D01*
X166347218Y-115205515D01*
X166503694Y-115125787D01*
X166664464Y-115008981D01*
X166804981Y-114868464D01*
X166921787Y-114707694D01*
X167012005Y-114530632D01*
X167073413Y-114341636D01*
X167104500Y-114145361D01*
X167104500Y-113946639D01*
X167073413Y-113750364D01*
X167038947Y-113644287D01*
X167012006Y-113561370D01*
X167012005Y-113561367D01*
X166945942Y-113431713D01*
X166921787Y-113384306D01*
X166804981Y-113223536D01*
X166664464Y-113083019D01*
X166503694Y-112966213D01*
X166347218Y-112886484D01*
X166296423Y-112838510D01*
X166279628Y-112770689D01*
X166302165Y-112704554D01*
X166347218Y-112665515D01*
X166503694Y-112585787D01*
X166664464Y-112468981D01*
X166804981Y-112328464D01*
X166921787Y-112167694D01*
X167012005Y-111990632D01*
X167073413Y-111801636D01*
X167104500Y-111605361D01*
X167104500Y-111406639D01*
X167073413Y-111210364D01*
X167012005Y-111021368D01*
X167012005Y-111021367D01*
X166966035Y-110931149D01*
X166921787Y-110844306D01*
X166804981Y-110683536D01*
X166664464Y-110543019D01*
X166503694Y-110426213D01*
X166347218Y-110346484D01*
X166296423Y-110298510D01*
X166279628Y-110230689D01*
X166302165Y-110164554D01*
X166347218Y-110125515D01*
X166503694Y-110045787D01*
X166664464Y-109928981D01*
X166804981Y-109788464D01*
X166921787Y-109627694D01*
X167012005Y-109450632D01*
X167073413Y-109261636D01*
X167104500Y-109065361D01*
X167104500Y-108866639D01*
X167073413Y-108670364D01*
X167029973Y-108536668D01*
X167012006Y-108481370D01*
X167012005Y-108481367D01*
X166929939Y-108320305D01*
X166921787Y-108304306D01*
X166804981Y-108143536D01*
X166664464Y-108003019D01*
X166503694Y-107886213D01*
X166347218Y-107806484D01*
X166296423Y-107758510D01*
X166279628Y-107690689D01*
X166302165Y-107624554D01*
X166347218Y-107585515D01*
X166503694Y-107505787D01*
X166664464Y-107388981D01*
X166804981Y-107248464D01*
X166921787Y-107087694D01*
X167012005Y-106910632D01*
X167073413Y-106721636D01*
X167104500Y-106525361D01*
X167104500Y-106326639D01*
X167073413Y-106130364D01*
X167012005Y-105941368D01*
X167012005Y-105941367D01*
X166966035Y-105851149D01*
X166921787Y-105764306D01*
X166804981Y-105603536D01*
X166664464Y-105463019D01*
X166503694Y-105346213D01*
X166347218Y-105266484D01*
X166296423Y-105218510D01*
X166279628Y-105150689D01*
X166302165Y-105084554D01*
X166347218Y-105045515D01*
X166503694Y-104965787D01*
X166664464Y-104848981D01*
X166804981Y-104708464D01*
X166921787Y-104547694D01*
X167012005Y-104370632D01*
X167073413Y-104181636D01*
X167104500Y-103985361D01*
X167104500Y-103786639D01*
X167073413Y-103590364D01*
X167021635Y-103431007D01*
X167012006Y-103401370D01*
X167012005Y-103401367D01*
X166921786Y-103224305D01*
X166804981Y-103063536D01*
X166664464Y-102923019D01*
X166503694Y-102806213D01*
X166347218Y-102726484D01*
X166296423Y-102678510D01*
X166279628Y-102610689D01*
X166302165Y-102544554D01*
X166347218Y-102505515D01*
X166503694Y-102425787D01*
X166664464Y-102308981D01*
X166804981Y-102168464D01*
X166921787Y-102007694D01*
X167012005Y-101830632D01*
X167073413Y-101641636D01*
X167104500Y-101445361D01*
X167104500Y-101246639D01*
X167073413Y-101050364D01*
X167042709Y-100955866D01*
X167012006Y-100861370D01*
X167012005Y-100861367D01*
X166966035Y-100771149D01*
X166921787Y-100684306D01*
X166804981Y-100523536D01*
X166664464Y-100383019D01*
X166503694Y-100266213D01*
X166347218Y-100186484D01*
X166296423Y-100138510D01*
X166279628Y-100070689D01*
X166302165Y-100004554D01*
X166347218Y-99965515D01*
X166503694Y-99885787D01*
X166664464Y-99768981D01*
X166804981Y-99628464D01*
X166921787Y-99467694D01*
X167012005Y-99290632D01*
X167073413Y-99101636D01*
X167104500Y-98905361D01*
X167104500Y-98722678D01*
X171458000Y-98722678D01*
X171458000Y-98810000D01*
X172404314Y-98810000D01*
X172399920Y-98814394D01*
X172347259Y-98905606D01*
X172320000Y-99007339D01*
X172320000Y-99112661D01*
X172347259Y-99214394D01*
X172399920Y-99305606D01*
X172404314Y-99310000D01*
X171458000Y-99310000D01*
X171458000Y-99397321D01*
X171489075Y-99593520D01*
X171489075Y-99593523D01*
X171550457Y-99782437D01*
X171640641Y-99959432D01*
X171757403Y-100120139D01*
X171757403Y-100120140D01*
X171897859Y-100260596D01*
X172058567Y-100377358D01*
X172235562Y-100467542D01*
X172424473Y-100528922D01*
X172470000Y-100536133D01*
X172470000Y-99375686D01*
X172474394Y-99380080D01*
X172565606Y-99432741D01*
X172667339Y-99460000D01*
X172772661Y-99460000D01*
X172874394Y-99432741D01*
X172965606Y-99380080D01*
X172970000Y-99375686D01*
X172970000Y-100536132D01*
X173015526Y-100528922D01*
X173204437Y-100467542D01*
X173381432Y-100377358D01*
X173542139Y-100260596D01*
X173542140Y-100260596D01*
X173682596Y-100120140D01*
X173682596Y-100120139D01*
X173799358Y-99959432D01*
X173889542Y-99782437D01*
X173950924Y-99593523D01*
X173950924Y-99593520D01*
X173982000Y-99397321D01*
X173982000Y-99310000D01*
X173035686Y-99310000D01*
X173040080Y-99305606D01*
X173092741Y-99214394D01*
X173120000Y-99112661D01*
X173120000Y-99007339D01*
X173092741Y-98905606D01*
X173040080Y-98814394D01*
X173035686Y-98810000D01*
X173982000Y-98810000D01*
X173982000Y-98722678D01*
X173950924Y-98526479D01*
X173950924Y-98526476D01*
X173889542Y-98337562D01*
X173799358Y-98160567D01*
X173682596Y-97999860D01*
X173682596Y-97999859D01*
X173542140Y-97859403D01*
X173381432Y-97742641D01*
X173204434Y-97652456D01*
X173204436Y-97652456D01*
X173015517Y-97591074D01*
X172970000Y-97583865D01*
X172970000Y-98744314D01*
X172965606Y-98739920D01*
X172874394Y-98687259D01*
X172772661Y-98660000D01*
X172667339Y-98660000D01*
X172565606Y-98687259D01*
X172474394Y-98739920D01*
X172470000Y-98744314D01*
X172470000Y-97583865D01*
X172469999Y-97583865D01*
X172424482Y-97591074D01*
X172235564Y-97652456D01*
X172058567Y-97742641D01*
X171897860Y-97859403D01*
X171897859Y-97859403D01*
X171757403Y-97999859D01*
X171757403Y-97999860D01*
X171640641Y-98160567D01*
X171550457Y-98337562D01*
X171489075Y-98526476D01*
X171489075Y-98526479D01*
X171458000Y-98722678D01*
X167104500Y-98722678D01*
X167104500Y-98706639D01*
X167073413Y-98510364D01*
X167012005Y-98321368D01*
X167012005Y-98321367D01*
X166940227Y-98180497D01*
X166921787Y-98144306D01*
X166804981Y-97983536D01*
X166664464Y-97843019D01*
X166503694Y-97726213D01*
X166346667Y-97646203D01*
X166295872Y-97598229D01*
X166279077Y-97530408D01*
X166301614Y-97464273D01*
X166346668Y-97425234D01*
X166503432Y-97345358D01*
X166664139Y-97228596D01*
X166664140Y-97228596D01*
X166804596Y-97088140D01*
X166804596Y-97088139D01*
X166921358Y-96927432D01*
X167011543Y-96750435D01*
X167072925Y-96561517D01*
X167080134Y-96516000D01*
X165787012Y-96516000D01*
X165819925Y-96458993D01*
X165854000Y-96331826D01*
X165854000Y-96200174D01*
X165819925Y-96073007D01*
X165787012Y-96016000D01*
X167080135Y-96016000D01*
X167080134Y-96015999D01*
X167072925Y-95970482D01*
X167011543Y-95781564D01*
X166921358Y-95604567D01*
X166804596Y-95443860D01*
X166804596Y-95443859D01*
X166664140Y-95303403D01*
X166503432Y-95186641D01*
X166346668Y-95106765D01*
X166295872Y-95058790D01*
X166279077Y-94990969D01*
X166301615Y-94924834D01*
X166346667Y-94885796D01*
X166503694Y-94805787D01*
X166664464Y-94688981D01*
X166804981Y-94548464D01*
X166921787Y-94387694D01*
X167012005Y-94210632D01*
X167073413Y-94021636D01*
X167104500Y-93825361D01*
X167104500Y-93626639D01*
X167073413Y-93430364D01*
X167042709Y-93335866D01*
X167012006Y-93241370D01*
X167012005Y-93241367D01*
X166961908Y-93143048D01*
X166921787Y-93064306D01*
X166804981Y-92903536D01*
X166664464Y-92763019D01*
X166503694Y-92646213D01*
X166326633Y-92555995D01*
X166290179Y-92544150D01*
X166232505Y-92504711D01*
X166205308Y-92440352D01*
X166204500Y-92426220D01*
X166204500Y-92097650D01*
X166224185Y-92030611D01*
X166240819Y-92009969D01*
X171348620Y-86902168D01*
X171348626Y-86902162D01*
X171441704Y-86762863D01*
X171505816Y-86608081D01*
X171538500Y-86443767D01*
X171538500Y-84967439D01*
X171558185Y-84900400D01*
X171610989Y-84854645D01*
X171619168Y-84851257D01*
X171619485Y-84851139D01*
X171730331Y-84809796D01*
X171845546Y-84723546D01*
X171931796Y-84608331D01*
X171982091Y-84473483D01*
X171988500Y-84413873D01*
X171988499Y-83565997D01*
X172883034Y-83565997D01*
X172883034Y-83566002D01*
X172902858Y-83792599D01*
X172902860Y-83792610D01*
X172961730Y-84012317D01*
X172961735Y-84012331D01*
X173057863Y-84218478D01*
X173108974Y-84291472D01*
X173788000Y-83612446D01*
X173788000Y-83618661D01*
X173815259Y-83720394D01*
X173867920Y-83811606D01*
X173942394Y-83886080D01*
X174033606Y-83938741D01*
X174135339Y-83966000D01*
X174141553Y-83966000D01*
X173462526Y-84645025D01*
X173535513Y-84696132D01*
X173535521Y-84696136D01*
X173741668Y-84792264D01*
X173741682Y-84792269D01*
X173961389Y-84851139D01*
X173961400Y-84851141D01*
X174187998Y-84870966D01*
X174188002Y-84870966D01*
X174414599Y-84851141D01*
X174414610Y-84851139D01*
X174634317Y-84792269D01*
X174634331Y-84792264D01*
X174840478Y-84696136D01*
X174913471Y-84645024D01*
X174234447Y-83966000D01*
X174240661Y-83966000D01*
X174342394Y-83938741D01*
X174433606Y-83886080D01*
X174508080Y-83811606D01*
X174560741Y-83720394D01*
X174588000Y-83618661D01*
X174588000Y-83612447D01*
X175267024Y-84291471D01*
X175318136Y-84218478D01*
X175414264Y-84012331D01*
X175414269Y-84012317D01*
X175473139Y-83792610D01*
X175473141Y-83792599D01*
X175492966Y-83566002D01*
X175492966Y-83565997D01*
X175473141Y-83339400D01*
X175473139Y-83339389D01*
X175414269Y-83119682D01*
X175414264Y-83119668D01*
X175318136Y-82913521D01*
X175318132Y-82913513D01*
X175267025Y-82840526D01*
X174588000Y-83519551D01*
X174588000Y-83513339D01*
X174560741Y-83411606D01*
X174508080Y-83320394D01*
X174433606Y-83245920D01*
X174342394Y-83193259D01*
X174240661Y-83166000D01*
X174234445Y-83166000D01*
X174913472Y-82486974D01*
X174840478Y-82435863D01*
X174634331Y-82339735D01*
X174634317Y-82339730D01*
X174414610Y-82280860D01*
X174414599Y-82280858D01*
X174188002Y-82261034D01*
X174187998Y-82261034D01*
X173961400Y-82280858D01*
X173961389Y-82280860D01*
X173741682Y-82339730D01*
X173741673Y-82339734D01*
X173535516Y-82435866D01*
X173535512Y-82435868D01*
X173462526Y-82486973D01*
X173462526Y-82486974D01*
X174141553Y-83166000D01*
X174135339Y-83166000D01*
X174033606Y-83193259D01*
X173942394Y-83245920D01*
X173867920Y-83320394D01*
X173815259Y-83411606D01*
X173788000Y-83513339D01*
X173788000Y-83519552D01*
X173108974Y-82840526D01*
X173108973Y-82840526D01*
X173057868Y-82913512D01*
X173057866Y-82913516D01*
X172961734Y-83119673D01*
X172961730Y-83119682D01*
X172902860Y-83339389D01*
X172902858Y-83339400D01*
X172883034Y-83565997D01*
X171988499Y-83565997D01*
X171988499Y-82718128D01*
X171982091Y-82658517D01*
X171931796Y-82523669D01*
X171931795Y-82523668D01*
X171931793Y-82523664D01*
X171845547Y-82408455D01*
X171845544Y-82408452D01*
X171730335Y-82322206D01*
X171730328Y-82322202D01*
X171595482Y-82271908D01*
X171595483Y-82271908D01*
X171535883Y-82265501D01*
X171535881Y-82265500D01*
X171535873Y-82265500D01*
X171535864Y-82265500D01*
X169840129Y-82265500D01*
X169840123Y-82265501D01*
X169780516Y-82271908D01*
X169645671Y-82322202D01*
X169645664Y-82322206D01*
X169530455Y-82408452D01*
X169530452Y-82408455D01*
X169444206Y-82523664D01*
X169444202Y-82523671D01*
X169393908Y-82658517D01*
X169387501Y-82718116D01*
X169387501Y-82718123D01*
X169387500Y-82718135D01*
X169387500Y-84413870D01*
X169387501Y-84413876D01*
X169393908Y-84473483D01*
X169444202Y-84608328D01*
X169444206Y-84608335D01*
X169530452Y-84723544D01*
X169530455Y-84723547D01*
X169645664Y-84809793D01*
X169645673Y-84809798D01*
X169742480Y-84845904D01*
X169756515Y-84851139D01*
X169756832Y-84851257D01*
X169812766Y-84893127D01*
X169837184Y-84958592D01*
X169837500Y-84967439D01*
X169837500Y-85956348D01*
X169817815Y-86023387D01*
X169801181Y-86044029D01*
X164693375Y-91151834D01*
X164693372Y-91151838D01*
X164600299Y-91291130D01*
X164600292Y-91291143D01*
X164554962Y-91400583D01*
X164536185Y-91445913D01*
X164536182Y-91445925D01*
X164503500Y-91610228D01*
X164503500Y-92426220D01*
X164483815Y-92493259D01*
X164431011Y-92539014D01*
X164417821Y-92544150D01*
X164381366Y-92555995D01*
X164204305Y-92646213D01*
X164043533Y-92763021D01*
X163967374Y-92839181D01*
X163906051Y-92872666D01*
X163879693Y-92875500D01*
X160698228Y-92875500D01*
X160533925Y-92908182D01*
X160533913Y-92908185D01*
X160488583Y-92926962D01*
X160379143Y-92972292D01*
X160379130Y-92972299D01*
X160239838Y-93065372D01*
X160239834Y-93065375D01*
X158084375Y-95220834D01*
X158084372Y-95220838D01*
X157991299Y-95360130D01*
X157991292Y-95360143D01*
X157945962Y-95469583D01*
X157927185Y-95514913D01*
X157927182Y-95514925D01*
X157894500Y-95679228D01*
X157894500Y-137069242D01*
X157874815Y-137136281D01*
X157858181Y-137156923D01*
X157714894Y-137300209D01*
X157714890Y-137300213D01*
X157589951Y-137472179D01*
X157493444Y-137661585D01*
X157427753Y-137863760D01*
X157394500Y-138073713D01*
X157394500Y-138785349D01*
X157374815Y-138852388D01*
X157358181Y-138873030D01*
X150814030Y-145417181D01*
X150752707Y-145450666D01*
X150726349Y-145453500D01*
X150067337Y-145453500D01*
X150000298Y-145433815D01*
X149979656Y-145417181D01*
X149904881Y-145342406D01*
X149904877Y-145342402D01*
X149725639Y-145216898D01*
X149725640Y-145216898D01*
X149725638Y-145216897D01*
X149626484Y-145170661D01*
X149527330Y-145124425D01*
X149527326Y-145124424D01*
X149527322Y-145124422D01*
X149315977Y-145067793D01*
X149098002Y-145048723D01*
X149097998Y-145048723D01*
X148952682Y-145061436D01*
X148880023Y-145067793D01*
X148880020Y-145067793D01*
X148668677Y-145124422D01*
X148668668Y-145124426D01*
X148470361Y-145216898D01*
X148470357Y-145216900D01*
X148291121Y-145342402D01*
X148136402Y-145497121D01*
X148010900Y-145676357D01*
X148010898Y-145676361D01*
X147918426Y-145874668D01*
X147918422Y-145874677D01*
X147861793Y-146086020D01*
X147861793Y-146086024D01*
X147842723Y-146303997D01*
X140296500Y-146303997D01*
X140296500Y-142747995D01*
X141989037Y-142747995D01*
X141989037Y-142748004D01*
X142008860Y-143012535D01*
X142008861Y-143012540D01*
X142067890Y-143271166D01*
X142067896Y-143271185D01*
X142164814Y-143518128D01*
X142164813Y-143518128D01*
X142297456Y-143747871D01*
X142347641Y-143810803D01*
X143281037Y-142877408D01*
X143298075Y-142940993D01*
X143363901Y-143055007D01*
X143456993Y-143148099D01*
X143571007Y-143213925D01*
X143634591Y-143230962D01*
X142700438Y-144165113D01*
X142876518Y-144285162D01*
X142876526Y-144285167D01*
X143115530Y-144400264D01*
X143115528Y-144400264D01*
X143369025Y-144478458D01*
X143369031Y-144478459D01*
X143631351Y-144517999D01*
X143631358Y-144518000D01*
X143896642Y-144518000D01*
X143896648Y-144517999D01*
X144158968Y-144478459D01*
X144158974Y-144478458D01*
X144412470Y-144400264D01*
X144651474Y-144285167D01*
X144651484Y-144285160D01*
X144827560Y-144165113D01*
X143893408Y-143230962D01*
X143956993Y-143213925D01*
X144071007Y-143148099D01*
X144164099Y-143055007D01*
X144229925Y-142940993D01*
X144246962Y-142877408D01*
X145180357Y-143810803D01*
X145230542Y-143747871D01*
X145363185Y-143518128D01*
X145460103Y-143271185D01*
X145460109Y-143271166D01*
X145519138Y-143012540D01*
X145519139Y-143012535D01*
X145538963Y-142748004D01*
X145538963Y-142747995D01*
X145519139Y-142483464D01*
X145519138Y-142483459D01*
X145460109Y-142224833D01*
X145460103Y-142224814D01*
X145363185Y-141977871D01*
X145363186Y-141977871D01*
X145230543Y-141748128D01*
X145180356Y-141685196D01*
X144246962Y-142618590D01*
X144229925Y-142555007D01*
X144164099Y-142440993D01*
X144071007Y-142347901D01*
X143956993Y-142282075D01*
X143893409Y-142265037D01*
X144827560Y-141330885D01*
X144651475Y-141210833D01*
X144651474Y-141210832D01*
X144412469Y-141095735D01*
X144412471Y-141095735D01*
X144158974Y-141017541D01*
X144158968Y-141017540D01*
X143896648Y-140978000D01*
X143631351Y-140978000D01*
X143369031Y-141017540D01*
X143369025Y-141017541D01*
X143115529Y-141095735D01*
X142876524Y-141210834D01*
X142876511Y-141210841D01*
X142700438Y-141330884D01*
X143634591Y-142265037D01*
X143571007Y-142282075D01*
X143456993Y-142347901D01*
X143363901Y-142440993D01*
X143298075Y-142555007D01*
X143281037Y-142618591D01*
X142347642Y-141685196D01*
X142297457Y-141748127D01*
X142164814Y-141977871D01*
X142067896Y-142224814D01*
X142067890Y-142224833D01*
X142008861Y-142483459D01*
X142008860Y-142483464D01*
X141989037Y-142747995D01*
X140296500Y-142747995D01*
X140296500Y-142664232D01*
X140296499Y-142664228D01*
X140263817Y-142499924D01*
X140263816Y-142499918D01*
X140245037Y-142454584D01*
X140199704Y-142345137D01*
X140106626Y-142205838D01*
X140106622Y-142205834D01*
X140106620Y-142205831D01*
X140106619Y-142205830D01*
X135670165Y-137769375D01*
X135670161Y-137769372D01*
X135530866Y-137676297D01*
X135530863Y-137676296D01*
X135421416Y-137630962D01*
X135421414Y-137630961D01*
X135376086Y-137612185D01*
X135376074Y-137612182D01*
X135211771Y-137579500D01*
X135211767Y-137579500D01*
X135143719Y-137579500D01*
X135076680Y-137559815D01*
X135033235Y-137511795D01*
X135013052Y-137472185D01*
X135013051Y-137472184D01*
X134888109Y-137300213D01*
X134737786Y-137149890D01*
X134565820Y-137024951D01*
X134376414Y-136928444D01*
X134376413Y-136928443D01*
X134376412Y-136928443D01*
X134174243Y-136862754D01*
X134174241Y-136862753D01*
X134174240Y-136862753D01*
X134012957Y-136837208D01*
X133964287Y-136829500D01*
X133751713Y-136829500D01*
X133703042Y-136837208D01*
X133541760Y-136862753D01*
X133339585Y-136928444D01*
X133150179Y-137024951D01*
X132978213Y-137149890D01*
X132827890Y-137300213D01*
X132702949Y-137472182D01*
X132698484Y-137480946D01*
X132650509Y-137531742D01*
X132582688Y-137548536D01*
X132516553Y-137525998D01*
X132477516Y-137480946D01*
X132473050Y-137472182D01*
X132348109Y-137300213D01*
X132197786Y-137149890D01*
X132025820Y-137024951D01*
X131836414Y-136928444D01*
X131836413Y-136928443D01*
X131836412Y-136928443D01*
X131634243Y-136862754D01*
X131634241Y-136862753D01*
X131634240Y-136862753D01*
X131472957Y-136837208D01*
X131424287Y-136829500D01*
X131211713Y-136829500D01*
X131163042Y-136837208D01*
X131001760Y-136862753D01*
X130799585Y-136928444D01*
X130610179Y-137024951D01*
X130438213Y-137149890D01*
X130287890Y-137300213D01*
X130162949Y-137472182D01*
X130158484Y-137480946D01*
X130110509Y-137531742D01*
X130042688Y-137548536D01*
X129976553Y-137525998D01*
X129937516Y-137480946D01*
X129933050Y-137472182D01*
X129808109Y-137300213D01*
X129657793Y-137149897D01*
X129657780Y-137149886D01*
X129657231Y-137149487D01*
X129657073Y-137149282D01*
X129654085Y-137146730D01*
X129654621Y-137146102D01*
X129614571Y-137094152D01*
X129608601Y-137024538D01*
X129641214Y-136962747D01*
X129642374Y-136961570D01*
X130281126Y-136322819D01*
X130342449Y-136289334D01*
X130368807Y-136286500D01*
X141796071Y-136286500D01*
X141880615Y-136269682D01*
X141921744Y-136261501D01*
X142040127Y-136212465D01*
X142046418Y-136208261D01*
X142046427Y-136208258D01*
X142046426Y-136208257D01*
X142130179Y-136152295D01*
X142146669Y-136141277D01*
X148333277Y-129954669D01*
X148404465Y-129848127D01*
X148453501Y-129729744D01*
X148456368Y-129715330D01*
X148478500Y-129604069D01*
X148478500Y-104583931D01*
X148478500Y-104583928D01*
X148453502Y-104458260D01*
X148453500Y-104458254D01*
X148431070Y-104404103D01*
X148431070Y-104404102D01*
X148404469Y-104339881D01*
X148404468Y-104339880D01*
X148404466Y-104339874D01*
X148398664Y-104331191D01*
X148333278Y-104233332D01*
X148333272Y-104233325D01*
X142400673Y-98300726D01*
X142400669Y-98300723D01*
X142294127Y-98229535D01*
X142222514Y-98199872D01*
X142175744Y-98180499D01*
X142175738Y-98180497D01*
X142050071Y-98155500D01*
X142050069Y-98155500D01*
X141593101Y-98155500D01*
X141526062Y-98135815D01*
X141492783Y-98104385D01*
X141404983Y-97983539D01*
X141404978Y-97983533D01*
X141264466Y-97843021D01*
X141264464Y-97843019D01*
X141103694Y-97726213D01*
X140946667Y-97646203D01*
X140895872Y-97598229D01*
X140879077Y-97530408D01*
X140901614Y-97464273D01*
X140946668Y-97425234D01*
X141103432Y-97345358D01*
X141264139Y-97228596D01*
X141264140Y-97228596D01*
X141404596Y-97088140D01*
X141404596Y-97088139D01*
X141521358Y-96927432D01*
X141611543Y-96750435D01*
X141672925Y-96561517D01*
X141680134Y-96516000D01*
X140387012Y-96516000D01*
X140419925Y-96458993D01*
X140454000Y-96331826D01*
X140454000Y-96200174D01*
X140419925Y-96073007D01*
X140387012Y-96016000D01*
X141680135Y-96016000D01*
X141680134Y-96015999D01*
X141672925Y-95970482D01*
X141611543Y-95781564D01*
X141521358Y-95604567D01*
X141404596Y-95443860D01*
X141404596Y-95443859D01*
X141264140Y-95303403D01*
X141103432Y-95186641D01*
X140982228Y-95124884D01*
X140931432Y-95076909D01*
X140914637Y-95009088D01*
X140937175Y-94942953D01*
X140991890Y-94899502D01*
X141000202Y-94896469D01*
X141001632Y-94896005D01*
X141178694Y-94805787D01*
X141339464Y-94688981D01*
X141479981Y-94548464D01*
X141596787Y-94387694D01*
X141687005Y-94210632D01*
X141748413Y-94021636D01*
X141779500Y-93825361D01*
X141779500Y-93626639D01*
X141748413Y-93430364D01*
X141687005Y-93241368D01*
X141687000Y-93241358D01*
X141685909Y-93238725D01*
X141685791Y-93237634D01*
X141685499Y-93236734D01*
X141685688Y-93236672D01*
X141678434Y-93169256D01*
X141709704Y-93106774D01*
X141712757Y-93103609D01*
X146399549Y-88416819D01*
X146460872Y-88383334D01*
X146487230Y-88380500D01*
X162379920Y-88380500D01*
X162477462Y-88361096D01*
X162524913Y-88351658D01*
X162661495Y-88295084D01*
X162710729Y-88262186D01*
X162784416Y-88212952D01*
X169946548Y-81050818D01*
X170007871Y-81017334D01*
X170034229Y-81014500D01*
X175659770Y-81014500D01*
X175726809Y-81034185D01*
X175747451Y-81050819D01*
X183255181Y-88558549D01*
X183288666Y-88619872D01*
X183291500Y-88646230D01*
X183291500Y-95452128D01*
X183271815Y-95519167D01*
X183226522Y-95561179D01*
X183218491Y-95565526D01*
X183087667Y-95667350D01*
X183022257Y-95718261D01*
X182853833Y-95901217D01*
X182717826Y-96109393D01*
X182617936Y-96337118D01*
X182556892Y-96578175D01*
X182556890Y-96578187D01*
X182536357Y-96825994D01*
X182536357Y-96826005D01*
X182556890Y-97073812D01*
X182556892Y-97073824D01*
X182617936Y-97314881D01*
X182717826Y-97542606D01*
X182853833Y-97750782D01*
X182853836Y-97750785D01*
X183022256Y-97933738D01*
X183218491Y-98086474D01*
X183222939Y-98088881D01*
X183226513Y-98090815D01*
X183276106Y-98140032D01*
X183291500Y-98199872D01*
X183291500Y-101952128D01*
X183271815Y-102019167D01*
X183226522Y-102061179D01*
X183218491Y-102065526D01*
X183089172Y-102166179D01*
X183022257Y-102218261D01*
X182853833Y-102401217D01*
X182717826Y-102609393D01*
X182617936Y-102837118D01*
X182556892Y-103078175D01*
X182556890Y-103078187D01*
X182536357Y-103325994D01*
X182536357Y-103326005D01*
X182556890Y-103573812D01*
X182556892Y-103573824D01*
X182617936Y-103814881D01*
X182717826Y-104042606D01*
X182853833Y-104250782D01*
X182856602Y-104253790D01*
X183022256Y-104433738D01*
X183073985Y-104474000D01*
X183215223Y-104583931D01*
X183218491Y-104586474D01*
X183226513Y-104590815D01*
X183276106Y-104640032D01*
X183291500Y-104699872D01*
X183291500Y-115062120D01*
X183271815Y-115129159D01*
X183243663Y-115159973D01*
X183094258Y-115276260D01*
X183094256Y-115276261D01*
X183094256Y-115276262D01*
X183073952Y-115298317D01*
X182925833Y-115459217D01*
X182789826Y-115667393D01*
X182689936Y-115895118D01*
X182628892Y-116136175D01*
X182628890Y-116136187D01*
X182608357Y-116383994D01*
X182608357Y-116384005D01*
X182628890Y-116631812D01*
X182628892Y-116631824D01*
X182689936Y-116872881D01*
X182789826Y-117100606D01*
X182925833Y-117308782D01*
X182925836Y-117308785D01*
X183094256Y-117491738D01*
X183290491Y-117644474D01*
X183298513Y-117648815D01*
X183348106Y-117698032D01*
X183363500Y-117757872D01*
X183363500Y-121510128D01*
X183343815Y-121577167D01*
X183298522Y-121619179D01*
X183290491Y-121623526D01*
X183159667Y-121725350D01*
X183094257Y-121776261D01*
X182925833Y-121959217D01*
X182789826Y-122167393D01*
X182689936Y-122395118D01*
X182628892Y-122636175D01*
X182628890Y-122636187D01*
X182608357Y-122883994D01*
X182608357Y-122884005D01*
X182628890Y-123131812D01*
X182628892Y-123131824D01*
X182689936Y-123372881D01*
X182789826Y-123600606D01*
X182925833Y-123808782D01*
X182925836Y-123808785D01*
X183094256Y-123991738D01*
X183290491Y-124144474D01*
X183509190Y-124262828D01*
X183744386Y-124343571D01*
X183989665Y-124384500D01*
X184238335Y-124384500D01*
X184483614Y-124343571D01*
X184718810Y-124262828D01*
X184937509Y-124144474D01*
X185133744Y-123991738D01*
X185302164Y-123808785D01*
X185438173Y-123600607D01*
X185538063Y-123372881D01*
X185599108Y-123131821D01*
X185599960Y-123121540D01*
X185619643Y-122884005D01*
X185619643Y-122883994D01*
X185599109Y-122636187D01*
X185599107Y-122636175D01*
X185538063Y-122395118D01*
X185438173Y-122167393D01*
X185302166Y-121959217D01*
X185215857Y-121865461D01*
X185133744Y-121776262D01*
X184937509Y-121623526D01*
X184929477Y-121619179D01*
X184879891Y-121569961D01*
X184864500Y-121510128D01*
X184864500Y-117757872D01*
X184884185Y-117690833D01*
X184929487Y-117648815D01*
X184937509Y-117644474D01*
X185133744Y-117491738D01*
X185302164Y-117308785D01*
X185438173Y-117100607D01*
X185538063Y-116872881D01*
X185599108Y-116631821D01*
X185599109Y-116631812D01*
X185619643Y-116384005D01*
X185619643Y-116383994D01*
X185599109Y-116136187D01*
X185599107Y-116136175D01*
X185538063Y-115895118D01*
X185438173Y-115667393D01*
X185302166Y-115459217D01*
X185236096Y-115387446D01*
X185133744Y-115276262D01*
X184937509Y-115123526D01*
X184937508Y-115123525D01*
X184937505Y-115123523D01*
X184937498Y-115123519D01*
X184857482Y-115080216D01*
X184807891Y-115030997D01*
X184792500Y-114971162D01*
X184792500Y-104699872D01*
X184812185Y-104632833D01*
X184857487Y-104590815D01*
X184865509Y-104586474D01*
X185061744Y-104433738D01*
X185230164Y-104250785D01*
X185366173Y-104042607D01*
X185466063Y-103814881D01*
X185527108Y-103573821D01*
X185531228Y-103524099D01*
X185547643Y-103326005D01*
X185547643Y-103325994D01*
X185527109Y-103078187D01*
X185527107Y-103078175D01*
X185466063Y-102837118D01*
X185366173Y-102609393D01*
X185230166Y-102401217D01*
X185188159Y-102355585D01*
X185061744Y-102218262D01*
X184865509Y-102065526D01*
X184857477Y-102061179D01*
X184807891Y-102011961D01*
X184792500Y-101952128D01*
X184792500Y-98199872D01*
X184812185Y-98132833D01*
X184857487Y-98090815D01*
X184865509Y-98086474D01*
X185061744Y-97933738D01*
X185230164Y-97750785D01*
X185366173Y-97542607D01*
X185466063Y-97314881D01*
X185527108Y-97073821D01*
X185539238Y-96927432D01*
X185547643Y-96826005D01*
X185547643Y-96825994D01*
X185527109Y-96578187D01*
X185527107Y-96578175D01*
X185466063Y-96337118D01*
X185366173Y-96109393D01*
X185230166Y-95901217D01*
X185137058Y-95800075D01*
X185061744Y-95718262D01*
X184865509Y-95565526D01*
X184857477Y-95561179D01*
X184807891Y-95511961D01*
X184792500Y-95452128D01*
X184792500Y-88210079D01*
X184763659Y-88065092D01*
X184763658Y-88065091D01*
X184763658Y-88065087D01*
X184707084Y-87928505D01*
X184674186Y-87879270D01*
X184674185Y-87879268D01*
X184624956Y-87805589D01*
X184624952Y-87805584D01*
X176500421Y-79681052D01*
X176500414Y-79681046D01*
X176426729Y-79631812D01*
X176426729Y-79631813D01*
X176377491Y-79598913D01*
X176240917Y-79542343D01*
X176240907Y-79542340D01*
X176095920Y-79513500D01*
X176095918Y-79513500D01*
X169598082Y-79513500D01*
X169598080Y-79513500D01*
X169453092Y-79542340D01*
X169453082Y-79542343D01*
X169316508Y-79598913D01*
X169193584Y-79681048D01*
X169193584Y-79681049D01*
X162031451Y-86843181D01*
X161970128Y-86876666D01*
X161943770Y-86879500D01*
X146051080Y-86879500D01*
X145906092Y-86908340D01*
X145906086Y-86908342D01*
X145769508Y-86964914D01*
X145769496Y-86964921D01*
X145720269Y-86997813D01*
X145646588Y-87047044D01*
X145646580Y-87047050D01*
X140266451Y-92427181D01*
X140205128Y-92460666D01*
X140178770Y-92463500D01*
X139441639Y-92463500D01*
X139376214Y-92473862D01*
X139245362Y-92494587D01*
X139056370Y-92555993D01*
X139056367Y-92555994D01*
X138879305Y-92646213D01*
X138718533Y-92763021D01*
X138578020Y-92903534D01*
X138562871Y-92924386D01*
X138507540Y-92967051D01*
X138462553Y-92975500D01*
X134546080Y-92975500D01*
X134401092Y-93004340D01*
X134401082Y-93004343D01*
X134264511Y-93060912D01*
X134264498Y-93060919D01*
X134141584Y-93143048D01*
X134141580Y-93143051D01*
X131283195Y-96001435D01*
X131221872Y-96034920D01*
X131184708Y-96037282D01*
X131064004Y-96026723D01*
X131063998Y-96026723D01*
X130918682Y-96039436D01*
X130846023Y-96045793D01*
X130846020Y-96045793D01*
X130634677Y-96102422D01*
X130634668Y-96102426D01*
X130436361Y-96194898D01*
X130436357Y-96194900D01*
X130257121Y-96320402D01*
X130102402Y-96475121D01*
X129976900Y-96654357D01*
X129976898Y-96654361D01*
X129884426Y-96852668D01*
X129884422Y-96852677D01*
X129827793Y-97064020D01*
X129827793Y-97064023D01*
X129808723Y-97282000D01*
X129824669Y-97464273D01*
X129827793Y-97499975D01*
X129827793Y-97499979D01*
X129884422Y-97711322D01*
X129884424Y-97711326D01*
X129884425Y-97711330D01*
X129899026Y-97742641D01*
X129976897Y-97909638D01*
X129993772Y-97933738D01*
X130102402Y-98088877D01*
X130257123Y-98243598D01*
X130436361Y-98369102D01*
X130634670Y-98461575D01*
X130846023Y-98518207D01*
X131028926Y-98534208D01*
X131063998Y-98537277D01*
X131064000Y-98537277D01*
X131064002Y-98537277D01*
X131092254Y-98534805D01*
X131281977Y-98518207D01*
X131493330Y-98461575D01*
X131691639Y-98369102D01*
X131870877Y-98243598D01*
X132025598Y-98088877D01*
X132151102Y-97909639D01*
X132243575Y-97711330D01*
X132300207Y-97499977D01*
X132319277Y-97282000D01*
X132308716Y-97161290D01*
X132322482Y-97092792D01*
X132344560Y-97062806D01*
X134894548Y-94512819D01*
X134955871Y-94479334D01*
X134982229Y-94476500D01*
X138462553Y-94476500D01*
X138529592Y-94496185D01*
X138562869Y-94527612D01*
X138578019Y-94548464D01*
X138718536Y-94688981D01*
X138879306Y-94805787D01*
X138976345Y-94855231D01*
X139000728Y-94867655D01*
X139051524Y-94915630D01*
X139068319Y-94983451D01*
X139045781Y-95049586D01*
X138991066Y-95093037D01*
X138982757Y-95096069D01*
X138981564Y-95096456D01*
X138804567Y-95186641D01*
X138643860Y-95303403D01*
X138643859Y-95303403D01*
X138503403Y-95443859D01*
X138503403Y-95443860D01*
X138386641Y-95604567D01*
X138296456Y-95781564D01*
X138235074Y-95970482D01*
X138227865Y-96015999D01*
X138227865Y-96016000D01*
X139520988Y-96016000D01*
X139488075Y-96073007D01*
X139454000Y-96200174D01*
X139454000Y-96331826D01*
X139488075Y-96458993D01*
X139520988Y-96516000D01*
X138227865Y-96516000D01*
X138235074Y-96561517D01*
X138296456Y-96750435D01*
X138386641Y-96927432D01*
X138503403Y-97088139D01*
X138503403Y-97088140D01*
X138643859Y-97228596D01*
X138804567Y-97345358D01*
X138961331Y-97425234D01*
X139012127Y-97473209D01*
X139028922Y-97541030D01*
X139006384Y-97607165D01*
X138961331Y-97646204D01*
X138804305Y-97726213D01*
X138643533Y-97843021D01*
X138503021Y-97983533D01*
X138386213Y-98144305D01*
X138295994Y-98321367D01*
X138295993Y-98321370D01*
X138234587Y-98510362D01*
X138203500Y-98706639D01*
X138203500Y-98905360D01*
X138234587Y-99101637D01*
X138295993Y-99290629D01*
X138295994Y-99290632D01*
X138368403Y-99432741D01*
X138386213Y-99467694D01*
X138503019Y-99628464D01*
X138643536Y-99768981D01*
X138804306Y-99885787D01*
X138922832Y-99946179D01*
X138960780Y-99965515D01*
X139011576Y-100013490D01*
X139028371Y-100081311D01*
X139005833Y-100147446D01*
X138960780Y-100186485D01*
X138804305Y-100266213D01*
X138643533Y-100383021D01*
X138503021Y-100523533D01*
X138386213Y-100684305D01*
X138295994Y-100861367D01*
X138295993Y-100861370D01*
X138234587Y-101050362D01*
X138203500Y-101246639D01*
X138203500Y-101445360D01*
X138234587Y-101641637D01*
X138295993Y-101830629D01*
X138295994Y-101830632D01*
X138379343Y-101994211D01*
X138386213Y-102007694D01*
X138503019Y-102168464D01*
X138643536Y-102308981D01*
X138804306Y-102425787D01*
X138922832Y-102486179D01*
X138960780Y-102505515D01*
X139011576Y-102553490D01*
X139028371Y-102621311D01*
X139005833Y-102687446D01*
X138960780Y-102726485D01*
X138804305Y-102806213D01*
X138643533Y-102923021D01*
X138503021Y-103063533D01*
X138386213Y-103224305D01*
X138295994Y-103401367D01*
X138295993Y-103401370D01*
X138234587Y-103590362D01*
X138203500Y-103786639D01*
X138203500Y-103985360D01*
X138234587Y-104181637D01*
X138295993Y-104370629D01*
X138295994Y-104370632D01*
X138376712Y-104529048D01*
X138386213Y-104547694D01*
X138503019Y-104708464D01*
X138643536Y-104848981D01*
X138804306Y-104965787D01*
X138922832Y-105026179D01*
X138960780Y-105045515D01*
X139011576Y-105093490D01*
X139028371Y-105161311D01*
X139005833Y-105227446D01*
X138960780Y-105266485D01*
X138804305Y-105346213D01*
X138643533Y-105463021D01*
X138503021Y-105603533D01*
X138503016Y-105603539D01*
X138415217Y-105724385D01*
X138359887Y-105767051D01*
X138314899Y-105775500D01*
X137480808Y-105775500D01*
X137413769Y-105755815D01*
X137393127Y-105739181D01*
X129700674Y-98046727D01*
X129700673Y-98046726D01*
X129630532Y-97999860D01*
X129594127Y-97975535D01*
X129475744Y-97926499D01*
X129475738Y-97926497D01*
X129350071Y-97901500D01*
X129350069Y-97901500D01*
X124649931Y-97901500D01*
X124649929Y-97901500D01*
X124524261Y-97926497D01*
X124524255Y-97926499D01*
X124405874Y-97975534D01*
X124299326Y-98046726D01*
X122176724Y-100169328D01*
X122113296Y-100264257D01*
X122105539Y-100275866D01*
X122105533Y-100275877D01*
X122056499Y-100394255D01*
X122056497Y-100394261D01*
X122031500Y-100519928D01*
X122031500Y-101614382D01*
X122011815Y-101681421D01*
X121977408Y-101715099D01*
X121978125Y-101716085D01*
X121802213Y-101843890D01*
X121651892Y-101994211D01*
X121630166Y-102024115D01*
X121574836Y-102066780D01*
X121505222Y-102072758D01*
X121443428Y-102040151D01*
X121430582Y-102025539D01*
X121349186Y-101916809D01*
X121234093Y-101830649D01*
X121234086Y-101830645D01*
X121099379Y-101780403D01*
X121099372Y-101780401D01*
X121039844Y-101774000D01*
X120392000Y-101774000D01*
X120392000Y-102690988D01*
X120334993Y-102658075D01*
X120207826Y-102624000D01*
X120076174Y-102624000D01*
X119949007Y-102658075D01*
X119892000Y-102690988D01*
X119892000Y-101774000D01*
X119244155Y-101774000D01*
X119184627Y-101780401D01*
X119184620Y-101780403D01*
X119049913Y-101830645D01*
X119049906Y-101830649D01*
X118934812Y-101916809D01*
X118934809Y-101916812D01*
X118848649Y-102031906D01*
X118848645Y-102031913D01*
X118798403Y-102166620D01*
X118798401Y-102166627D01*
X118792000Y-102226155D01*
X118792000Y-102874000D01*
X119708988Y-102874000D01*
X119676075Y-102931007D01*
X119642000Y-103058174D01*
X119642000Y-103189826D01*
X119676075Y-103316993D01*
X119708988Y-103374000D01*
X118792000Y-103374000D01*
X118792000Y-104021844D01*
X118798401Y-104081372D01*
X118798403Y-104081379D01*
X118848645Y-104216086D01*
X118848649Y-104216093D01*
X118934809Y-104331187D01*
X118934812Y-104331190D01*
X119049906Y-104417350D01*
X119049913Y-104417354D01*
X119184620Y-104467596D01*
X119184627Y-104467598D01*
X119244155Y-104473999D01*
X119244172Y-104474000D01*
X119892000Y-104474000D01*
X119892000Y-103557012D01*
X119949007Y-103589925D01*
X120076174Y-103624000D01*
X120207826Y-103624000D01*
X120334993Y-103589925D01*
X120392000Y-103557012D01*
X120392000Y-104474000D01*
X121039828Y-104474000D01*
X121039844Y-104473999D01*
X121099372Y-104467598D01*
X121099379Y-104467596D01*
X121234086Y-104417354D01*
X121234093Y-104417350D01*
X121349186Y-104331191D01*
X121430582Y-104222460D01*
X121486516Y-104180589D01*
X121556207Y-104175605D01*
X121617530Y-104209090D01*
X121630167Y-104223886D01*
X121651890Y-104253785D01*
X121651894Y-104253790D01*
X121802213Y-104404109D01*
X121974179Y-104529048D01*
X121974181Y-104529049D01*
X121974184Y-104529051D01*
X122163588Y-104625557D01*
X122365757Y-104691246D01*
X122575713Y-104724500D01*
X122575714Y-104724500D01*
X122788286Y-104724500D01*
X122788287Y-104724500D01*
X122998243Y-104691246D01*
X123200412Y-104625557D01*
X123389816Y-104529051D01*
X123465589Y-104473999D01*
X123561786Y-104404109D01*
X123561793Y-104404103D01*
X123634709Y-104331187D01*
X123712104Y-104253792D01*
X123712106Y-104253788D01*
X123712109Y-104253786D01*
X123837048Y-104081820D01*
X123837047Y-104081820D01*
X123837051Y-104081816D01*
X123841514Y-104073054D01*
X123889488Y-104022259D01*
X123957308Y-104005463D01*
X124023444Y-104027999D01*
X124062486Y-104073056D01*
X124066951Y-104081820D01*
X124191890Y-104253786D01*
X124342213Y-104404109D01*
X124514179Y-104529048D01*
X124514181Y-104529049D01*
X124514184Y-104529051D01*
X124703588Y-104625557D01*
X124905757Y-104691246D01*
X125115713Y-104724500D01*
X125115714Y-104724500D01*
X125328286Y-104724500D01*
X125328287Y-104724500D01*
X125538243Y-104691246D01*
X125715846Y-104633538D01*
X125785685Y-104631544D01*
X125841843Y-104663789D01*
X130649325Y-109471272D01*
X130649332Y-109471278D01*
X130661299Y-109479274D01*
X130755874Y-109542466D01*
X130825221Y-109571189D01*
X130874256Y-109591501D01*
X130874259Y-109591501D01*
X130874260Y-109591502D01*
X130999928Y-109616500D01*
X130999931Y-109616500D01*
X131711341Y-109616500D01*
X131778380Y-109636185D01*
X131824135Y-109688989D01*
X131834079Y-109758147D01*
X131811659Y-109813385D01*
X131687379Y-109984442D01*
X131590904Y-110173782D01*
X131525242Y-110375869D01*
X131525242Y-110375872D01*
X131492000Y-110585753D01*
X131492000Y-110692000D01*
X132408988Y-110692000D01*
X132376075Y-110749007D01*
X132342000Y-110876174D01*
X132342000Y-111007826D01*
X132376075Y-111134993D01*
X132408988Y-111192000D01*
X131492000Y-111192000D01*
X131492000Y-111298246D01*
X131525242Y-111508127D01*
X131525242Y-111508130D01*
X131590904Y-111710217D01*
X131687379Y-111899557D01*
X131812272Y-112071459D01*
X131812276Y-112071464D01*
X131962535Y-112221723D01*
X131962540Y-112221727D01*
X132134442Y-112346620D01*
X132323782Y-112443095D01*
X132525871Y-112508757D01*
X132592000Y-112519231D01*
X132592000Y-111375012D01*
X132649007Y-111407925D01*
X132776174Y-111442000D01*
X132907826Y-111442000D01*
X133034993Y-111407925D01*
X133092000Y-111375012D01*
X133092000Y-112519230D01*
X133158126Y-112508757D01*
X133158129Y-112508757D01*
X133360217Y-112443095D01*
X133549557Y-112346620D01*
X133721459Y-112221727D01*
X133721464Y-112221723D01*
X133871723Y-112071464D01*
X133871727Y-112071459D01*
X133996620Y-111899557D01*
X134093095Y-111710217D01*
X134158757Y-111508130D01*
X134158757Y-111508127D01*
X134192000Y-111298246D01*
X134192000Y-111192000D01*
X133275012Y-111192000D01*
X133307925Y-111134993D01*
X133342000Y-111007826D01*
X133342000Y-110876174D01*
X133307925Y-110749007D01*
X133275012Y-110692000D01*
X134192000Y-110692000D01*
X134192000Y-110585753D01*
X134158757Y-110375872D01*
X134158757Y-110375869D01*
X134093095Y-110173782D01*
X133996620Y-109984442D01*
X133872341Y-109813385D01*
X133848861Y-109747579D01*
X133864687Y-109679525D01*
X133914792Y-109630830D01*
X133972659Y-109616500D01*
X138314899Y-109616500D01*
X138381938Y-109636185D01*
X138415217Y-109667615D01*
X138427635Y-109684707D01*
X138503019Y-109788464D01*
X138643536Y-109928981D01*
X138804306Y-110045787D01*
X138913931Y-110101644D01*
X138960780Y-110125515D01*
X139011576Y-110173490D01*
X139028371Y-110241311D01*
X139005833Y-110307446D01*
X138960780Y-110346485D01*
X138804305Y-110426213D01*
X138643533Y-110543021D01*
X138503021Y-110683533D01*
X138386213Y-110844305D01*
X138295994Y-111021367D01*
X138295993Y-111021370D01*
X138234587Y-111210362D01*
X138203500Y-111406639D01*
X138203500Y-111605360D01*
X138234587Y-111801637D01*
X138295993Y-111990629D01*
X138295994Y-111990632D01*
X138340644Y-112078261D01*
X138386213Y-112167694D01*
X138503019Y-112328464D01*
X138643536Y-112468981D01*
X138804306Y-112585787D01*
X138922832Y-112646179D01*
X138960780Y-112665515D01*
X139011576Y-112713490D01*
X139028371Y-112781311D01*
X139005833Y-112847446D01*
X138960780Y-112886485D01*
X138804305Y-112966213D01*
X138643533Y-113083021D01*
X138503021Y-113223533D01*
X138503016Y-113223539D01*
X138415217Y-113344385D01*
X138359887Y-113387051D01*
X138314899Y-113395500D01*
X126812808Y-113395500D01*
X126745769Y-113375815D01*
X126725127Y-113359181D01*
X126398674Y-113032727D01*
X126398673Y-113032726D01*
X126398669Y-113032723D01*
X126292127Y-112961535D01*
X126173744Y-112912499D01*
X126173738Y-112912497D01*
X126048071Y-112887500D01*
X126048069Y-112887500D01*
X124445618Y-112887500D01*
X124378579Y-112867815D01*
X124344900Y-112833408D01*
X124343915Y-112834125D01*
X124216109Y-112658213D01*
X124065786Y-112507890D01*
X123893820Y-112382951D01*
X123704414Y-112286444D01*
X123704413Y-112286443D01*
X123704412Y-112286443D01*
X123502243Y-112220754D01*
X123502241Y-112220753D01*
X123502240Y-112220753D01*
X123340957Y-112195208D01*
X123292287Y-112187500D01*
X122579713Y-112187500D01*
X122531042Y-112195208D01*
X122369760Y-112220753D01*
X122167585Y-112286444D01*
X121978179Y-112382951D01*
X121806213Y-112507890D01*
X121655890Y-112658213D01*
X121530951Y-112830179D01*
X121434444Y-113019585D01*
X121368753Y-113221760D01*
X121342574Y-113387051D01*
X121335500Y-113431713D01*
X121335500Y-113644287D01*
X121368754Y-113854243D01*
X121398775Y-113946639D01*
X121434444Y-114056414D01*
X121530951Y-114245820D01*
X121655890Y-114417786D01*
X121806213Y-114568109D01*
X121978182Y-114693050D01*
X121986946Y-114697516D01*
X122037742Y-114745491D01*
X122054536Y-114813312D01*
X122031998Y-114879447D01*
X121986946Y-114918484D01*
X121978182Y-114922949D01*
X121806213Y-115047890D01*
X121655890Y-115198213D01*
X121530951Y-115370179D01*
X121434444Y-115559585D01*
X121368753Y-115761760D01*
X121335500Y-115971713D01*
X121335500Y-116184286D01*
X121367131Y-116384000D01*
X121368754Y-116394243D01*
X121430175Y-116583277D01*
X121434444Y-116596414D01*
X121530951Y-116785820D01*
X121655890Y-116957786D01*
X121806213Y-117108109D01*
X121978182Y-117233050D01*
X121986946Y-117237516D01*
X122037742Y-117285491D01*
X122054536Y-117353312D01*
X122031998Y-117419447D01*
X121986946Y-117458484D01*
X121978182Y-117462949D01*
X121806213Y-117587890D01*
X121655890Y-117738213D01*
X121530951Y-117910179D01*
X121434444Y-118099585D01*
X121368753Y-118301760D01*
X121342574Y-118467051D01*
X121335500Y-118511713D01*
X121335500Y-118724287D01*
X121368754Y-118934243D01*
X121426041Y-119110554D01*
X121434444Y-119136414D01*
X121530951Y-119325820D01*
X121655890Y-119497786D01*
X121806209Y-119648105D01*
X121806216Y-119648111D01*
X121835688Y-119669523D01*
X121878355Y-119724852D01*
X121884336Y-119794465D01*
X121851731Y-119856261D01*
X121837117Y-119869108D01*
X121728452Y-119950455D01*
X121642206Y-120065664D01*
X121642202Y-120065671D01*
X121591908Y-120200517D01*
X121585501Y-120260116D01*
X121585501Y-120260123D01*
X121585500Y-120260135D01*
X121585500Y-122055870D01*
X121585501Y-122055876D01*
X121591908Y-122115483D01*
X121642202Y-122250328D01*
X121642206Y-122250335D01*
X121728452Y-122365544D01*
X121728455Y-122365547D01*
X121843664Y-122451793D01*
X121843671Y-122451797D01*
X121978517Y-122502091D01*
X121978516Y-122502091D01*
X121985444Y-122502835D01*
X122038127Y-122508500D01*
X123833872Y-122508499D01*
X123893483Y-122502091D01*
X124028331Y-122451796D01*
X124143546Y-122365546D01*
X124229796Y-122250331D01*
X124280091Y-122115483D01*
X124286500Y-122055873D01*
X124286500Y-121932500D01*
X124306185Y-121865461D01*
X124358989Y-121819706D01*
X124410500Y-121808500D01*
X126880355Y-121808500D01*
X126947394Y-121828185D01*
X126981928Y-121861374D01*
X127054402Y-121964877D01*
X127209123Y-122119598D01*
X127388361Y-122245102D01*
X127586670Y-122337575D01*
X127798023Y-122394207D01*
X127980926Y-122410208D01*
X128015998Y-122413277D01*
X128016000Y-122413277D01*
X128016002Y-122413277D01*
X128044254Y-122410805D01*
X128233977Y-122394207D01*
X128445330Y-122337575D01*
X128643639Y-122245102D01*
X128822877Y-122119598D01*
X128977598Y-121964877D01*
X129103102Y-121785639D01*
X129195575Y-121587330D01*
X129252207Y-121375977D01*
X129271277Y-121158000D01*
X129252207Y-120940023D01*
X129195575Y-120728670D01*
X129103102Y-120530362D01*
X129103100Y-120530359D01*
X129103099Y-120530357D01*
X128977599Y-120351124D01*
X128906480Y-120280005D01*
X128822877Y-120196402D01*
X128643639Y-120070898D01*
X128643640Y-120070898D01*
X128643638Y-120070897D01*
X128544484Y-120024661D01*
X128445330Y-119978425D01*
X128445326Y-119978424D01*
X128445322Y-119978422D01*
X128233977Y-119921793D01*
X128016002Y-119902723D01*
X128015998Y-119902723D01*
X127870682Y-119915436D01*
X127798023Y-119921793D01*
X127798020Y-119921793D01*
X127586677Y-119978422D01*
X127586668Y-119978426D01*
X127388361Y-120070898D01*
X127388357Y-120070900D01*
X127209121Y-120196402D01*
X127054403Y-120351120D01*
X126981931Y-120454623D01*
X126927355Y-120498248D01*
X126880356Y-120507500D01*
X124410499Y-120507500D01*
X124343460Y-120487815D01*
X124297705Y-120435011D01*
X124286499Y-120383500D01*
X124286499Y-120260129D01*
X124286498Y-120260123D01*
X124286497Y-120260116D01*
X124280091Y-120200517D01*
X124278556Y-120196402D01*
X124229797Y-120065671D01*
X124229793Y-120065664D01*
X124143547Y-119950455D01*
X124143544Y-119950452D01*
X124034883Y-119869108D01*
X123993012Y-119813174D01*
X123988028Y-119743483D01*
X124021514Y-119682160D01*
X124036301Y-119669529D01*
X124065792Y-119648104D01*
X124216104Y-119497792D01*
X124216106Y-119497788D01*
X124216109Y-119497786D01*
X124341048Y-119325820D01*
X124341047Y-119325820D01*
X124341051Y-119325816D01*
X124437557Y-119136412D01*
X124503246Y-118934243D01*
X124536500Y-118724287D01*
X124536500Y-118630500D01*
X124556185Y-118563461D01*
X124608989Y-118517706D01*
X124660500Y-118506500D01*
X130947500Y-118506500D01*
X131014539Y-118526185D01*
X131060294Y-118578989D01*
X131071500Y-118630500D01*
X131071500Y-119209360D01*
X131102587Y-119405637D01*
X131163993Y-119594629D01*
X131163994Y-119594632D01*
X131243924Y-119751501D01*
X131254213Y-119771694D01*
X131371019Y-119932464D01*
X131511536Y-120072981D01*
X131672306Y-120189787D01*
X131685289Y-120196402D01*
X131849367Y-120280005D01*
X131849370Y-120280006D01*
X131898611Y-120296005D01*
X132038364Y-120341413D01*
X132234639Y-120372500D01*
X132234640Y-120372500D01*
X132433360Y-120372500D01*
X132433361Y-120372500D01*
X132629636Y-120341413D01*
X132818632Y-120280005D01*
X132995694Y-120189787D01*
X133156464Y-120072981D01*
X133296981Y-119932464D01*
X133413787Y-119771694D01*
X133504005Y-119594632D01*
X133565413Y-119405636D01*
X133596500Y-119209361D01*
X133596500Y-118534639D01*
X133565413Y-118338364D01*
X133508441Y-118163021D01*
X133504006Y-118149370D01*
X133504005Y-118149367D01*
X133413786Y-117972305D01*
X133374702Y-117918510D01*
X133296981Y-117811536D01*
X133156464Y-117671019D01*
X132995694Y-117554213D01*
X132985420Y-117548978D01*
X132818632Y-117463994D01*
X132818629Y-117463993D01*
X132629637Y-117402587D01*
X132531498Y-117387043D01*
X132433361Y-117371500D01*
X132234639Y-117371500D01*
X132169214Y-117381862D01*
X132038362Y-117402587D01*
X131919049Y-117441354D01*
X131849208Y-117443349D01*
X131793051Y-117411105D01*
X131732669Y-117350723D01*
X131626127Y-117279535D01*
X131569755Y-117256185D01*
X131507744Y-117230499D01*
X131490058Y-117226981D01*
X131490043Y-117226978D01*
X131382071Y-117205500D01*
X131382069Y-117205500D01*
X124267758Y-117205500D01*
X124200719Y-117185815D01*
X124154964Y-117133011D01*
X124145020Y-117063853D01*
X124174045Y-117000297D01*
X124180077Y-116993819D01*
X124216104Y-116957792D01*
X124216106Y-116957788D01*
X124216109Y-116957786D01*
X124343915Y-116781875D01*
X124345259Y-116782851D01*
X124391705Y-116740834D01*
X124445618Y-116728500D01*
X125286071Y-116728500D01*
X125370615Y-116711682D01*
X125411744Y-116703501D01*
X125530127Y-116654465D01*
X125536708Y-116650068D01*
X125636669Y-116583277D01*
X126471127Y-115748819D01*
X126532450Y-115715334D01*
X126558808Y-115712500D01*
X134807192Y-115712500D01*
X134874231Y-115732185D01*
X134894873Y-115748819D01*
X136237324Y-117091271D01*
X136237331Y-117091277D01*
X136343871Y-117162464D01*
X136343870Y-117162464D01*
X136378544Y-117176826D01*
X136462256Y-117211501D01*
X136462260Y-117211501D01*
X136462261Y-117211502D01*
X136587928Y-117236500D01*
X136587931Y-117236500D01*
X138314899Y-117236500D01*
X138381938Y-117256185D01*
X138415217Y-117287615D01*
X138462949Y-117353312D01*
X138503019Y-117408464D01*
X138643536Y-117548981D01*
X138804306Y-117665787D01*
X138877211Y-117702934D01*
X138960780Y-117745515D01*
X139011576Y-117793490D01*
X139028371Y-117861311D01*
X139005833Y-117927446D01*
X138960780Y-117966485D01*
X138804305Y-118046213D01*
X138643533Y-118163021D01*
X138503021Y-118303533D01*
X138503016Y-118303539D01*
X138415217Y-118424385D01*
X138359887Y-118467051D01*
X138314899Y-118475500D01*
X137095929Y-118475500D01*
X136970261Y-118500497D01*
X136970255Y-118500499D01*
X136851870Y-118549535D01*
X136745331Y-118620722D01*
X136745324Y-118620728D01*
X132354873Y-123011181D01*
X132293550Y-123044666D01*
X132267192Y-123047500D01*
X129729929Y-123047500D01*
X129604261Y-123072497D01*
X129604251Y-123072500D01*
X129555220Y-123092810D01*
X129485881Y-123121530D01*
X129485863Y-123121540D01*
X129379332Y-123192721D01*
X129379325Y-123192727D01*
X104894726Y-147677326D01*
X104823534Y-147783874D01*
X104774499Y-147902255D01*
X104774497Y-147902261D01*
X104749500Y-148027928D01*
X104749500Y-148293382D01*
X104729815Y-148360421D01*
X104695408Y-148394099D01*
X104696125Y-148395085D01*
X104520213Y-148522890D01*
X104369890Y-148673213D01*
X104244949Y-148845182D01*
X104240484Y-148853946D01*
X104192509Y-148904742D01*
X104124688Y-148921536D01*
X104058553Y-148898998D01*
X104019516Y-148853946D01*
X104015050Y-148845182D01*
X103890110Y-148673215D01*
X103890106Y-148673211D01*
X103890104Y-148673208D01*
X103756818Y-148539922D01*
X103723334Y-148478599D01*
X103720500Y-148452241D01*
X103720500Y-147273337D01*
X103740185Y-147206298D01*
X103756819Y-147185656D01*
X103787976Y-147154499D01*
X103831598Y-147110877D01*
X103957102Y-146931639D01*
X104049575Y-146733330D01*
X104106207Y-146521977D01*
X104125277Y-146304000D01*
X104106207Y-146086023D01*
X104049575Y-145874670D01*
X103957102Y-145676362D01*
X103957100Y-145676359D01*
X103957099Y-145676357D01*
X103831599Y-145497124D01*
X103768290Y-145433815D01*
X103676877Y-145342402D01*
X103497639Y-145216898D01*
X103497640Y-145216898D01*
X103497638Y-145216897D01*
X103398484Y-145170661D01*
X103299330Y-145124425D01*
X103299326Y-145124424D01*
X103299322Y-145124422D01*
X103087977Y-145067793D01*
X102870002Y-145048723D01*
X102869998Y-145048723D01*
X102724682Y-145061436D01*
X102652023Y-145067793D01*
X102652020Y-145067793D01*
X102440677Y-145124422D01*
X102440668Y-145124426D01*
X102242361Y-145216898D01*
X102242357Y-145216900D01*
X102063121Y-145342402D01*
X101908402Y-145497121D01*
X101782900Y-145676357D01*
X101782898Y-145676361D01*
X101690426Y-145874668D01*
X101690422Y-145874677D01*
X101633793Y-146086020D01*
X101633793Y-146086024D01*
X101614723Y-146303997D01*
X101614723Y-146304002D01*
X101633793Y-146521975D01*
X101633793Y-146521979D01*
X101690422Y-146733322D01*
X101690424Y-146733326D01*
X101690425Y-146733330D01*
X101736661Y-146832484D01*
X101782897Y-146931638D01*
X101782898Y-146931639D01*
X101908402Y-147110877D01*
X101908406Y-147110881D01*
X101983181Y-147185656D01*
X102016666Y-147246979D01*
X102019500Y-147273337D01*
X102019500Y-148432242D01*
X101999815Y-148499281D01*
X101983181Y-148519923D01*
X101829894Y-148673209D01*
X101829890Y-148673213D01*
X101704951Y-148845179D01*
X101608444Y-149034585D01*
X101542753Y-149236760D01*
X101509500Y-149446713D01*
X98290500Y-149446713D01*
X98290500Y-109230240D01*
X98290883Y-109224118D01*
X98290858Y-109219613D01*
X98290859Y-109219610D01*
X98290502Y-109155425D01*
X98290500Y-109154736D01*
X98290500Y-109090560D01*
X98290363Y-109089561D01*
X98290280Y-109088941D01*
X98290140Y-109087881D01*
X98283972Y-109065361D01*
X98273127Y-109025770D01*
X98272988Y-109025253D01*
X98257112Y-108966002D01*
X98256392Y-108963314D01*
X98256391Y-108963312D01*
X98256379Y-108963267D01*
X98255971Y-108962295D01*
X98255717Y-108961684D01*
X98255340Y-108960775D01*
X98255312Y-108960728D01*
X98255312Y-108960726D01*
X98222850Y-108905215D01*
X98222604Y-108904793D01*
X98190500Y-108849186D01*
X98190499Y-108849185D01*
X98190471Y-108849136D01*
X98189787Y-108848255D01*
X98189363Y-108847705D01*
X98188823Y-108847002D01*
X98143067Y-108801751D01*
X98142579Y-108801265D01*
X98097272Y-108755958D01*
X98096520Y-108755388D01*
X98095922Y-108754931D01*
X98095140Y-108754330D01*
X98039332Y-108722522D01*
X98038734Y-108722179D01*
X97983135Y-108690078D01*
X97982194Y-108689695D01*
X97981557Y-108689433D01*
X97980648Y-108689056D01*
X97918624Y-108672806D01*
X97917960Y-108672630D01*
X97855837Y-108655985D01*
X97854883Y-108655865D01*
X97854211Y-108655779D01*
X97853168Y-108655641D01*
X97789031Y-108655998D01*
X97788342Y-108656000D01*
X97719602Y-108656000D01*
X97713488Y-108656417D01*
X75555189Y-108779518D01*
X75488041Y-108760206D01*
X75441994Y-108707657D01*
X75430500Y-108655520D01*
X75430500Y-76569085D01*
X75450185Y-76502046D01*
X75502989Y-76456291D01*
X75554216Y-76445085D01*
X186319221Y-76193916D01*
X186386303Y-76213449D01*
G37*
%TD.AperFunction*%
%TD*%
M02*
